<?xml version="1.0" encoding="UTF-8"?>
<svg xmlns="http://www.w3.org/2000/svg" viewBox="0 0 750 500">
  <defs>
    <style>
      .cls-1 {
        fill: #fff;
      }

      .cls-2 {
        fill: #fafafa;
      }

      .cls-3 {
        fill: #f5f5f5;
      }

      .cls-4 {
        fill: #455a64;
      }

      .cls-5 {
        fill: #ae7461;
      }

      .cls-6 {
        opacity: .2;
      }

      .cls-7 {
        fill: #ffbf9d;
      }

      .cls-8 {
        fill: #e0e0e0;
      }

      .cls-9 {
        fill: #ff9a6c;
      }

      .cls-10 {
        fill: #ff725e;
      }

      .cls-11 {
        fill: #26577c;
      }

      .cls-12 {
        fill: #6f4439;
      }

      .cls-13 {
        opacity: .4;
      }

      .cls-14 {
        opacity: .3;
      }

      .cls-15 {
        fill: #263238;
      }
    </style>
  </defs>
  <g id="Background_Complete" data-name="Background Complete">
    <g>
      <rect class="cls-3" x="60.06" y="91.22" width="33.29" height="46.4"/>
      <rect class="cls-3" x="94.63" y="91.22" width="35.97" height="46.4"/>
      <rect class="cls-3" x="94.63" y="140.86" width="35.97" height="44.84"/>
      <polygon class="cls-3" points="135.21 90.41 173.1 90.41 173.1 49.25 174.38 49.25 174.38 90.41 205.21 90.41 205.21 48.34 135.21 48.34 135.21 90.41"/>
      <rect class="cls-3" x="174.38" y="91.22" width="30.83" height="46.4"/>
      <rect class="cls-3" x="174.38" y="140.86" width="30.83" height="44.84"/>
      <rect class="cls-3" x="60.06" y="140.86" width="33.29" height="44.84"/>
      <rect class="cls-3" x="135.21" y="140.86" width="37.88" height="44.84"/>
      <rect class="cls-3" x="60.06" y="186.5" width="33.29" height="40.4"/>
      <rect class="cls-3" x="174.38" y="186.5" width="30.83" height="40.4"/>
      <polygon class="cls-3" points="93.35 90.41 93.35 49.25 94.63 49.25 94.63 90.41 130.6 90.41 130.6 48.34 60.06 48.34 60.06 90.41 93.35 90.41"/>
      <rect class="cls-3" x="135.21" y="186.5" width="37.88" height="40.4"/>
      <rect class="cls-3" x="94.63" y="186.5" width="35.97" height="40.4"/>
      <rect class="cls-3" x="135.21" y="91.22" width="37.88" height="46.4"/>
    </g>
    <g>
      <rect class="cls-3" x="369.95" y="87.97" width="33.29" height="46.4"/>
      <rect class="cls-3" x="404.53" y="87.97" width="35.97" height="46.4"/>
      <rect class="cls-3" x="404.53" y="137.62" width="35.97" height="44.84"/>
      <polygon class="cls-3" points="445.11 87.17 482.99 87.17 482.99 46.01 484.27 46.01 484.27 87.17 515.1 87.17 515.1 45.09 445.11 45.09 445.11 87.17"/>
      <rect class="cls-3" x="484.27" y="87.97" width="30.83" height="46.4"/>
      <rect class="cls-3" x="484.27" y="137.62" width="30.83" height="44.84"/>
      <rect class="cls-3" x="369.95" y="137.62" width="33.29" height="44.84"/>
      <rect class="cls-3" x="445.11" y="137.62" width="37.88" height="44.84"/>
      <rect class="cls-3" x="369.95" y="183.26" width="33.29" height="40.4"/>
      <rect class="cls-3" x="484.27" y="183.26" width="30.83" height="40.4"/>
      <polygon class="cls-3" points="403.25 87.17 403.25 46.01 404.53 46.01 404.53 87.17 440.5 87.17 440.5 45.09 369.95 45.09 369.95 87.17 403.25 87.17"/>
      <rect class="cls-3" x="445.11" y="183.26" width="37.88" height="40.4"/>
      <rect class="cls-3" x="404.53" y="183.26" width="35.97" height="40.4"/>
      <rect class="cls-3" x="445.11" y="87.97" width="37.88" height="46.4"/>
    </g>
    <g>
      <rect class="cls-2" x="257.89" y="69.37" width="24.33" height="6.44"/>
      <path class="cls-8" d="M271.93,82.59s0-.04,0-.12c0-.09,0-.19,0-.33,0-.3-.01-.73-.02-1.27,0-1.11-.02-2.71-.04-4.72l.08,.08c-5.55,.01-14.39,.03-24.32,.05,.05-.06-.12,.12,.12-.12h0v.41s0,.41,0,.41c0,.27,0,.55,0,.82,0,.55,0,1.09,0,1.62,0,1.07,0,2.13,0,3.17l-.12-.12c6.93,.02,12.99,.04,17.34,.06,2.17,.01,3.9,.03,5.12,.03,.59,0,1.05,.01,1.38,.02,.15,0,.27,0,.36,0,.08,0,.13,0,.13,0s-.04,0-.11,0c-.09,0-.2,0-.35,0-.32,0-.78,0-1.36,.02-1.21,0-2.94,.02-5.09,.03-4.37,.01-10.46,.03-17.42,.06h-.12s0-.12,0-.12c0-1.03,0-2.09,0-3.17,0-.54,0-1.08,0-1.62,0-.27,0-.55,0-.82v-.41s0-.21,0-.21v-.18h0v-.02h0c.25-.25,.07-.07,.13-.13,9.94,.02,18.77,.04,24.32,.05h.08s0,.08,0,.08c-.02,2.03-.03,3.65-.04,4.77,0,.53-.01,.95-.02,1.25,0,.13,0,.23,0,.32,0,.07,0,.1,0,.1Z"/>
    </g>
    <g>
      <rect class="cls-2" x="681.9" y="386.66" width="24.33" height="6.44"/>
      <path class="cls-8" d="M695.94,399.87s0-.04,0-.12c0-.09,0-.19,0-.33,0-.3-.01-.73-.02-1.27,0-1.11-.02-2.71-.04-4.72l.08,.08c-5.55,.01-14.39,.03-24.32,.05,.05-.06-.12,.12,.12-.12h0v.82c0,.27,0,.55,0,.82,0,.55,0,1.09,0,1.62,0,1.07,0,2.13,0,3.17l-.12-.12c6.93,.02,12.99,.04,17.34,.06,2.17,.01,3.9,.03,5.12,.03,.59,0,1.05,.01,1.38,.02,.15,0,.27,0,.36,0,.08,0,.13,0,.13,0,0,0-.04,0-.11,0-.09,0-.2,0-.35,0-.32,0-.78,0-1.36,.02-1.21,0-2.94,.02-5.09,.03-4.37,.01-10.46,.03-17.42,.06h-.12s0-.12,0-.12c0-1.03,0-2.09,0-3.17,0-.54,0-1.08,0-1.62,0-.27,0-.55,0-.82v-.8h0v-.02h0c.25-.25,.07-.07,.13-.13,9.94,.02,18.77,.04,24.32,.05h.08s0,.08,0,.08c-.02,2.03-.03,3.65-.04,4.77,0,.53-.01,.95-.02,1.25,0,.13,0,.23,0,.32,0,.07,0,.1,0,.1Z"/>
    </g>
    <g>
      <rect class="cls-2" x="42.2" y="256.52" width="24.33" height="6.44"/>
      <path class="cls-8" d="M56.24,269.73s0-.04,0-.12c0-.09,0-.19,0-.33,0-.3-.01-.73-.02-1.27,0-1.11-.02-2.71-.04-4.72l.08,.08c-5.55,.01-14.39,.03-24.32,.05,.05-.06-.12,.12,.12-.12h0v.82c0,.27,0,.55,0,.82,0,.55,0,1.09,0,1.62,0,1.07,0,2.13,0,3.17l-.12-.12c6.93,.02,12.99,.04,17.34,.06,2.17,.01,3.9,.03,5.12,.03,.59,0,1.05,.01,1.38,.02,.15,0,.27,0,.36,0,.08,0,.13,0,.13,0,0,0-.04,0-.11,0-.09,0-.2,0-.35,0-.32,0-.78,0-1.36,.02-1.21,0-2.94,.02-5.09,.03-4.37,.01-10.46,.03-17.42,.06h-.12s0-.12,0-.12c0-1.03,0-2.09,0-3.17,0-.54,0-1.08,0-1.62,0-.27,0-.55,0-.82v-.8h0v-.02h0c.25-.25,.07-.07,.13-.13,9.94,.02,18.77,.04,24.32,.05h.08s0,.08,0,.08c-.02,2.03-.03,3.65-.04,4.77,0,.53-.01,.95-.02,1.25,0,.13,0,.23,0,.32,0,.07,0,.1,0,.1Z"/>
    </g>
    <g>
      <path class="cls-8" d="M332.32,168.77s0-.04,0-.12c0-.09,0-.19,0-.33,0-.3-.01-.73-.02-1.27,0-1.11-.02-2.71-.04-4.72l.08,.08c-5.55,.01-14.39,.03-24.32,.05,.05-.06-.13,.12,.12-.12h0v.21s0,.21,0,.21v.41c0,.27,0,.55,0,.82,0,.55,0,1.09,0,1.62,0,1.07,0,2.13,0,3.17l-.12-.12c6.93,.02,12.99,.04,17.34,.06,2.17,.01,3.9,.03,5.12,.03,.59,0,1.05,.01,1.38,.02,.15,0,.27,0,.36,0,.08,0,.13,0,.13,0,0,0-.04,0-.11,0-.09,0-.2,0-.35,0-.32,0-.78,0-1.36,.02-1.21,0-2.94,.02-5.09,.03-4.37,.01-10.46,.03-17.42,.06h-.12s0-.12,0-.12c0-1.03,0-2.09,0-3.17,0-.54,0-1.08,0-1.62,0-.27,0-.55,0-.82v-.41s0-.21,0-.21v-.18h0v-.02h0c.25-.25,.07-.07,.13-.13,9.94,.02,18.77,.04,24.32,.05h.08s0,.08,0,.08c-.02,2.03-.03,3.65-.04,4.77,0,.53-.01,.95-.02,1.25,0,.13,0,.23,0,.32,0,.07,0,.1,0,.1Z"/>
      <path class="cls-8" d="M335.62,162.33s0-.04,0-.12c0-.09,0-.2,0-.34,0-.32-.01-.75-.02-1.29-.01-1.13-.03-2.72-.05-4.68l.09,.09c-3.79,0-8.94,.02-14.61,.03-.11,.11,.15-.15,.12-.12h0v.84c0,.28,0,.56,0,.83,0,.55,0,1.1,0,1.64,0,1.08,0,2.12,0,3.12l-.12-.12c4.22,.02,7.85,.04,10.46,.06,1.28,.01,2.31,.02,3.05,.03,.34,0,.61,.01,.82,.01,.19,0,.29,0,.29,.01,0,0-.09,0-.27,.01-.2,0-.46,0-.8,.01-.73,0-1.75,.02-3.02,.03-2.62,.01-6.28,.03-10.54,.06h-.12s0-.12,0-.12c0-1,0-2.04,0-3.12,0-.54,0-1.08,0-1.64,0-.28,0-.55,0-.83v-.42s0-.21,0-.21v-.19h0v-.02h0s.24-.24,.12-.13c5.68,.01,10.83,.03,14.61,.03h.09s0,.09,0,.09c-.02,1.98-.04,3.59-.05,4.74,0,.53-.02,.96-.02,1.27,0,.29-.01,.44-.02,.43Z"/>
    </g>
    <g>
      <path class="cls-8" d="M711.48,181.05s0-.04,0-.12c0-.09,0-.19,0-.33,0-.3-.01-.73-.02-1.27,0-1.11-.02-2.71-.04-4.72l.08,.08c-5.55,.01-14.39,.03-24.32,.05,.05-.06-.12,.12,.12-.12h0v.82c0,.27,0,.55,0,.82,0,.55,0,1.09,0,1.62,0,1.07,0,2.13,0,3.17l-.12-.12c6.93,.02,12.99,.04,17.34,.06,2.17,.01,3.9,.03,5.12,.03,.59,0,1.05,.01,1.38,.02,.15,0,.27,0,.36,0,.08,0,.13,0,.13,0,0,0-.04,0-.11,0-.09,0-.2,0-.35,0-.32,0-.78,0-1.36,.02-1.21,0-2.94,.02-5.09,.03-4.37,.01-10.46,.03-17.42,.06h-.12s0-.12,0-.12c0-1.03,0-2.09,0-3.17,0-.54,0-1.08,0-1.62,0-.27,0-.55,0-.82v-.8h0v-.02h0c.25-.25,.07-.07,.13-.13,9.94,.02,18.77,.04,24.32,.05h.08s0,.08,0,.08c-.02,2.03-.03,3.65-.04,4.77,0,.53-.01,.95-.02,1.25,0,.13,0,.23,0,.32,0,.07,0,.1,0,.1Z"/>
      <path class="cls-8" d="M714.78,174.61s0-.04,0-.12c0-.09,0-.2,0-.34,0-.32-.01-.75-.02-1.29-.01-1.13-.03-2.72-.05-4.68l.09,.09c-3.79,0-8.94,.02-14.61,.03-.11,.11,.15-.15,.12-.12h0v.84c0,.28,0,.56,0,.83,0,.55,0,1.1,0,1.64,0,1.08,0,2.12,0,3.12l-.12-.12c4.22,.02,7.85,.04,10.46,.06,1.28,.01,2.31,.02,3.05,.03,.34,0,.61,.01,.82,.01,.19,0,.29,0,.29,.01,0,0-.09,0-.27,.01-.2,0-.46,0-.8,.01-.73,0-1.75,.02-3.02,.03-2.62,.01-6.28,.03-10.54,.06h-.12s0-.12,0-.12c0-1,0-2.04,0-3.12,0-.54,0-1.08,0-1.64,0-.28,0-.55,0-.83v-.42s0-.21,0-.21v-.19h0v-.02h0s.24-.24,.12-.13c5.68,.01,10.83,.03,14.61,.03h.09s0,.09,0,.09c-.02,1.98-.04,3.59-.05,4.74,0,.53-.02,.96-.02,1.27,0,.29-.01,.44-.02,.43Z"/>
    </g>
  </g>
  <g id="Floor">
    <path class="cls-15" d="M700.95,437.27c0,.14-145.94,.26-325.93,.26s-325.96-.12-325.96-.26,145.91-.26,325.96-.26,325.93,.12,325.93,.26Z"/>
  </g>
  <g id="Device">
    <g>
      <g>
        <path class="cls-4" d="M659.56,359.25l-108.54-.06c-13.05,0-23.63-10.15-23.63-22.67l.05-260.84c0-12.52,10.6-22.67,23.66-22.66l108.54,.06c13.05,0,23.63,10.16,23.63,22.67l-.05,260.84c0,12.52-10.6,22.67-23.66,22.66Z"/>
        <path class="cls-1" d="M659.52,62.32h-21.04s-61.46-.05-61.46-.05h-7.4s-18.42-.01-18.42-.01c-9.15,0-16.57,7.1-16.57,15.87l-.05,254.6c0,8.76,7.41,15.87,16.55,15.88l108.33,.06c9.15,0,16.57-7.1,16.57-15.87l.05-254.6c0-8.76-7.41-15.87-16.55-15.88Z"/>
      </g>
      <g>
        <path class="cls-11" d="M588.13,272.65c-.81,.82-1.97,1.34-3.5,1.57v2.26h-2.44v-2.17c-1.02-.07-1.98-.24-2.88-.52-.91-.28-1.66-.62-2.26-1.03l1.32-2.97c.64,.42,1.37,.76,2.21,1.02,.84,.26,1.67,.39,2.48,.39,1.54,0,2.32-.39,2.32-1.16,0-.41-.22-.71-.66-.9-.44-.2-1.15-.4-2.12-.62-1.07-.23-1.96-.48-2.68-.74-.72-.26-1.33-.69-1.85-1.27-.51-.58-.77-1.37-.77-2.36,0-1.17,.42-2.16,1.26-3,.84-.83,2.05-1.34,3.64-1.53v-2.24h2.44v2.19c.77,.07,1.51,.2,2.22,.41,.71,.2,1.34,.47,1.9,.79l-1.24,2.99c-1.36-.73-2.67-1.1-3.94-1.1-.8,0-1.38,.12-1.75,.36-.37,.24-.55,.55-.55,.92s.22,.66,.65,.85c.43,.19,1.13,.39,2.09,.59,1.08,.23,1.98,.48,2.69,.74,.71,.26,1.33,.68,1.85,1.26,.52,.58,.78,1.36,.78,2.35,0,1.12-.4,2.1-1.21,2.92Z"/>
        <path class="cls-11" d="M604.63,272.65c-.81,.82-1.97,1.34-3.5,1.57v2.26h-2.44v-2.17c-1.02-.07-1.98-.24-2.88-.52-.91-.28-1.66-.62-2.26-1.03l1.32-2.97c.64,.42,1.37,.76,2.21,1.02,.84,.26,1.67,.39,2.48,.39,1.54,0,2.32-.39,2.32-1.16,0-.41-.22-.71-.66-.9-.44-.2-1.15-.4-2.12-.62-1.07-.23-1.96-.48-2.68-.74-.72-.26-1.33-.69-1.85-1.27-.51-.58-.77-1.37-.77-2.36,0-1.17,.42-2.16,1.26-3,.84-.83,2.05-1.34,3.64-1.53v-2.24h2.44v2.19c.77,.07,1.51,.2,2.22,.41,.71,.2,1.34,.47,1.9,.79l-1.24,2.99c-1.36-.73-2.67-1.1-3.94-1.1-.8,0-1.38,.12-1.75,.36-.37,.24-.55,.55-.55,.92s.22,.66,.65,.85c.43,.19,1.13,.39,2.09,.59,1.08,.23,1.98,.48,2.69,.74,.71,.26,1.33,.68,1.85,1.26,.52,.58,.78,1.36,.78,2.35,0,1.12-.4,2.1-1.21,2.92Z"/>
        <path class="cls-11" d="M621.13,272.65c-.81,.82-1.97,1.34-3.5,1.57v2.26h-2.44v-2.17c-1.02-.07-1.98-.24-2.88-.52-.91-.28-1.66-.62-2.26-1.03l1.32-2.97c.64,.42,1.37,.76,2.21,1.02,.84,.26,1.67,.39,2.48,.39,1.54,0,2.32-.39,2.32-1.16,0-.41-.22-.71-.66-.9-.44-.2-1.15-.4-2.12-.62-1.07-.23-1.96-.48-2.68-.74-.72-.26-1.33-.69-1.85-1.27-.51-.58-.77-1.37-.77-2.36,0-1.17,.42-2.16,1.26-3,.84-.83,2.05-1.34,3.64-1.53v-2.24h2.44v2.19c.77,.07,1.51,.2,2.22,.41,.71,.2,1.34,.47,1.9,.79l-1.24,2.99c-1.36-.73-2.67-1.1-3.94-1.1-.8,0-1.38,.12-1.75,.36-.37,.24-.55,.55-.55,.92s.22,.66,.65,.85c.43,.19,1.13,.39,2.09,.59,1.08,.23,1.98,.48,2.69,.74,.71,.26,1.33,.68,1.85,1.26,.52,.58,.78,1.36,.78,2.35,0,1.12-.4,2.1-1.21,2.92Z"/>
        <path class="cls-11" d="M637.63,272.65c-.81,.82-1.97,1.34-3.5,1.57v2.26h-2.44v-2.17c-1.02-.07-1.98-.24-2.88-.52-.91-.28-1.66-.62-2.26-1.03l1.32-2.97c.64,.42,1.37,.76,2.21,1.02,.84,.26,1.67,.39,2.48,.39,1.54,0,2.32-.39,2.32-1.16,0-.41-.22-.71-.66-.9-.44-.2-1.15-.4-2.12-.62-1.07-.23-1.96-.48-2.68-.74-.72-.26-1.33-.69-1.85-1.27-.51-.58-.77-1.37-.77-2.36,0-1.17,.42-2.16,1.26-3,.84-.83,2.05-1.34,3.64-1.53v-2.24h2.44v2.19c.77,.07,1.51,.2,2.22,.41,.71,.2,1.34,.47,1.9,.79l-1.24,2.99c-1.36-.73-2.67-1.1-3.94-1.1-.8,0-1.38,.12-1.75,.36-.37,.24-.55,.55-.55,.92s.22,.66,.65,.85c.43,.19,1.13,.39,2.09,.59,1.08,.23,1.98,.48,2.69,.74,.71,.26,1.33,.68,1.85,1.26,.52,.58,.78,1.36,.78,2.35,0,1.12-.4,2.1-1.21,2.92Z"/>
      </g>
      <g>
        <rect class="cls-8" x="559.82" y="158.55" width="92.41" height="12.56"/>
        <g class="cls-13">
          <rect x="559.82" y="158.55" width="92.41" height="12.56"/>
        </g>
        <path class="cls-8" d="M657.57,157.81c-2.63-1.62-9.44-4.17-11.33-4.39-1.15-.13-6.24-.83-6.24-.83l-1.65-.13s-17.57-8.71-20.37-9.79c-4.33-1.67-13.47-3.13-23.17-1.93,0,0-12.96,1.19-15.84,2.02-2.88,.83-16.81,5.18-16.81,5.18,0,0-6.11,.64-6.01,.88,0,0,.08,.4,.59,.88v3.91s-.68,.92-.85,1.36c-.17,.44-.55,3.91-.55,3.91,0,0-1.83,4.35-1.83,5.49s3.31,5.53,4.11,6.19c.8,.66,7.3,1.62,7.3,1.62v-3.29c.16-5,4.06-9.01,8.84-9.01s8.68,4,8.85,9.01l.02,4.26h50.7l-.03-3.16c-.02-.25-.03-.5-.03-.76,0-5.16,3.97-9.35,8.86-9.35s8.86,4.19,8.86,9.35c0,.25-.01,.51-.03,.76h.18v3.16h5.84s4.74-3.64,4.62-5.49v-5.19c0-.69-.25-1.35-.7-1.86-.66-.74-1.78-1.83-3.32-2.78Z"/>
        <g class="cls-6">
          <path d="M661.59,163.95l-3.74-1.38-.44,2.11-5.97-.33s-2.63-5.21-8-5.66c-4.6-.39-8.26,1.98-8.26,1.98l-26.3-2.7s-13.34-.53-18.49-.46c-5.15,.07-9.68,3.94-9.68,3.94,0,0-1.52-2.28-6.9-2.34-5.38-.05-7.63,3.22-7.63,3.22-3.79-.51-7.45-2.08-10.49-4.49l-.26,.22c-.05,.47-.09,.8-.09,.8,0,0-1.83,4.35-1.83,5.49s3.31,5.53,4.11,6.19c.8,.66,7.3,1.62,7.3,1.62v-3.29c.16-5,4.06-9.01,8.84-9.01s8.68,4,8.85,9.01l.02,4.26h50.7l-.03-3.16c-.02-.25-.03-.5-.03-.76,0-5.16,3.97-9.35,8.86-9.35s8.86,4.19,8.86,9.35c0,.25-.01,.51-.03,.76h.18v3.16h5.84s4.74-3.64,4.62-5.49v-3.69h0Z"/>
        </g>
        <path class="cls-15" d="M571.38,148.21c-.45,.34-.27,1.07,.28,1.15l4.46,.62,25.32,2.89,30.87,1.78c.5,.03,.99-.19,1.26-.62,.26-.41,.36-.98-.29-1.62-1.3-1.29-7.03-4.63-8.37-5.28-1.35-.66-10.79-6.53-24.88-5.73-4.27,.15-12.45,1.42-23.04,2.85-.23,.03-.44,.12-.63,.26l-4.98,3.71Z"/>
        <path class="cls-4" d="M576.65,149.51c.06-.2,2.34-4.66,2.79-4.92s18.87-2.69,19.12-2.36c.25,.33,.89,9.71,.89,9.71l-22.79-2.43Z"/>
        <polygon class="cls-15" points="583.67 143.9 583.51 150.45 584.46 150.45 584.46 143.79 583.67 143.9"/>
        <path class="cls-15" d="M627.94,148.82s.02,.03,.05,.1c.03,.07,.07,.17,.13,.3,.05,.13,.13,.29,.21,.49,.07,.2,.16,.43,.26,.69,.36,1.05,.81,2.63,1.08,4.69,.28,2.06,.39,4.59,.23,7.47-.08,1.44-.23,2.97-.47,4.57-.12,.8-.26,1.62-.43,2.45-.05,.21-.08,.42-.16,.62-.08,.2-.18,.39-.29,.58-.22,.37-.46,.74-.71,1.09v.02s-.04,0-.04,0c-6.13-.12-13.3-.25-20.93-.4-3.96-.09-7.79-.18-11.42-.27-1.82-.04-3.58-.07-5.29-.09-.21,0-.43,0-.64,0-.21,0-.42,0-.63,0-.42-.03-.84-.16-1.21-.35-.37-.19-.71-.45-1-.74-.3-.29-.56-.6-.78-.95h0c-1.95-2.78-3.71-5.35-5.25-7.65-.77-1.15-1.49-2.23-2.13-3.24-.65-1.01-1.24-1.94-1.73-2.8-.25-.43-.48-.85-.65-1.26-.04-.1-.08-.21-.12-.31-.04-.1-.06-.21-.09-.31-.03-.1-.06-.2-.08-.3-.02-.1-.04-.2-.05-.29-.13-.78-.02-1.45,.13-1.97,.15-.52,.35-.88,.5-1.11,.15-.23,.25-.34,.25-.34,0,0-.02,.03-.06,.09-.04,.06-.1,.14-.17,.26-.14,.23-.34,.6-.48,1.11-.14,.51-.25,1.18-.11,1.95,.02,.1,.04,.19,.05,.29,.02,.1,.05,.2,.08,.3,.03,.1,.05,.2,.09,.3,.04,.1,.08,.2,.12,.3,.18,.41,.41,.82,.66,1.25,.5,.86,1.09,1.79,1.74,2.79,.65,1.01,1.37,2.08,2.14,3.23,1.55,2.29,3.31,4.86,5.27,7.64h0c.43,.67,1.02,1.27,1.74,1.65,.36,.19,.76,.31,1.17,.34,.2,.01,.41,.01,.63,0,.21,0,.42,0,.64,0,1.71,.01,3.47,.05,5.29,.08,3.63,.08,7.47,.17,11.42,.27,7.62,.15,14.79,.29,20.93,.41l-.04,.02c.25-.35,.49-.71,.71-1.08,.11-.19,.21-.37,.28-.57,.08-.19,.11-.4,.16-.61,.17-.83,.31-1.64,.43-2.44,.24-1.6,.39-3.12,.48-4.56,.18-2.88,.07-5.4-.2-7.45-.27-2.06-.7-3.63-1.05-4.68-.09-.26-.18-.49-.25-.69-.07-.2-.15-.36-.2-.49-.05-.13-.1-.23-.12-.3-.03-.07-.04-.1-.04-.1Z"/>
        <path class="cls-15" d="M601.82,152.89s.02,.06,.05,.19c.03,.12,.06,.31,.1,.54,.07,.47,.15,1.17,.2,2.02,.11,1.72,.07,4.09,.03,6.7-.04,2.62-.1,4.99-.14,6.7-.03,.85-.05,1.54-.06,2.03,0,.23-.02,.42-.02,.55,0,.06,0,.1,0,.14,0,.03,0,.05,0,.05,0,0,0-.02,0-.05,0-.04,0-.09,0-.14,0-.14,0-.32,0-.55,0-.49,.02-1.18,.03-2.03,.03-1.72,.07-4.09,.11-6.7,.03-2.62,.09-4.99,0-6.7-.04-.86-.11-1.55-.17-2.02-.03-.24-.06-.42-.08-.54,0-.06-.02-.1-.03-.14,0-.03,0-.05,0-.05Z"/>
        <path class="cls-4" d="M602.03,142.04l1.89,9.9,20.14,1.48,3.1-4.36s-7.8-4.6-14.66-5.99c-6.96-1.41-10.47-1.03-10.47-1.03Z"/>
        <g class="cls-6">
          <path d="M586.19,164.9s9.41,4.1,11.12,4.49c1.71,.39,29.28,.61,29.28,.61l.57-1.27-28.78-.2s-11.56-4.48-12.2-3.62Z"/>
        </g>
        <path class="cls-15" d="M580.7,161.44s-.02-.02-.05-.05c-.03-.03-.08-.08-.15-.14-.13-.12-.33-.28-.61-.47-.28-.18-.63-.39-1.05-.59-.43-.19-.92-.39-1.49-.55-.57-.15-1.2-.3-1.88-.38-.34-.05-.7-.07-1.06-.1-.18-.02-.37,0-.56-.01-.19,0-.38-.01-.57,0-1.55,.06-3.24,.48-4.83,1.32-.68,.36-1.32,.77-1.87,1.24l-.04,.04-.03-.05c-.9-1.28-1.73-2.5-2.46-3.61-.72-1.11-1.34-2.13-1.83-2.99-.5-.85-.88-1.55-1.15-2.02-.13-.23-.23-.42-.3-.55-.03-.06-.06-.11-.08-.14-.02-.03-.02-.05-.02-.05,0,0,.01,.01,.03,.05,.02,.04,.05,.08,.08,.14,.08,.13,.18,.31,.32,.54,.28,.48,.68,1.16,1.18,2.01,.51,.85,1.12,1.86,1.85,2.97,.73,1.11,1.57,2.32,2.46,3.6h-.08c.56-.49,1.2-.91,1.89-1.27,1.61-.85,3.32-1.27,4.88-1.33,.19-.02,.39,0,.58,0,.19,0,.38,0,.56,.02,.37,.03,.73,.05,1.07,.11,.69,.08,1.32,.23,1.89,.39,.57,.17,1.07,.37,1.49,.57,.42,.21,.77,.42,1.05,.61,.27,.19,.47,.36,.6,.49,.06,.06,.11,.11,.14,.15,.03,.03,.04,.05,.04,.05Z"/>
        <path class="cls-15" d="M556.62,166.66s-.03-.11-.08-.31c-.04-.2-.1-.5-.17-.86-.13-.73-.3-1.74-.46-2.86-.16-1.12-.28-2.14-.36-2.88-.04-.37-.06-.67-.08-.87-.02-.21-.02-.32-.01-.32s.03,.11,.05,.32c.03,.23,.07,.52,.11,.87,.09,.73,.23,1.75,.39,2.87,.16,1.12,.31,2.13,.43,2.86,.05,.35,.1,.64,.13,.87,.03,.21,.04,.32,.04,.32Z"/>
        <path class="cls-15" d="M565.1,167.4s-.04,0-.11,0c-.08,0-.19,0-.31,0-.27,0-.66,0-1.14-.02-.96-.03-2.29-.11-3.75-.26-1.46-.15-2.78-.34-3.72-.51-.47-.08-.86-.15-1.12-.21-.12-.03-.22-.05-.3-.06-.07-.02-.1-.03-.1-.03,0,0,.04,0,.11,0,.08,.01,.18,.03,.31,.04,.28,.04,.66,.1,1.13,.17,.95,.14,2.27,.32,3.72,.47,1.46,.15,2.78,.24,3.74,.29,.47,.02,.85,.05,1.14,.06,.12,0,.23,.01,.31,.02,.07,0,.11,.01,.11,.01Z"/>
        <path class="cls-1" d="M657.85,162.57s-1.16-2.8-1.13-2.89c.18-.5,.85-1.87,.85-1.87,0,0,.55,.31,1.21,.81,.74,.55,1.63,1.32,2.26,2.03,.36,.41,.56,.95,.56,1.5v2.34s-3.74-1.92-3.74-1.92Z"/>
        <path class="cls-15" d="M632.51,149.62s-.24,.34-.54,.75c-.3,.41-.53,.76-.56,.74-.02-.02,.17-.39,.48-.81,.31-.42,.61-.71,.63-.69Z"/>
        <path class="cls-10" d="M556.73,149.69s8.82,.75,8.73,.95-8.73,2.96-8.73,2.96v-3.91Z"/>
        <path class="cls-15" d="M556.7,153.71s-.05-.9-.05-2c0-1.11,.02-2,.05-2s.05,.9,.05,2c0,1.1-.02,2-.05,2Z"/>
        <path class="cls-15" d="M651.44,164.35s-.02-.03-.05-.08c-.03-.05-.07-.13-.14-.23-.12-.2-.31-.5-.58-.87-.27-.36-.61-.81-1.07-1.28-.45-.47-1-.99-1.68-1.47-.68-.47-1.47-.95-2.42-1.26-.94-.32-2-.48-3.13-.5-1.13-.02-2.34,.09-3.57,.4-.62,.15-1.23,.35-1.84,.62-.61,.27-1.22,.59-1.76,1.01h-.02s-.02,.01-.02,.01c-4.05-.42-8.62-.88-13.43-1.38-4.43-.46-8.64-.89-12.48-1.29-.12-.01-.24-.02-.36-.04-.12,0-.24-.01-.36-.02-.24-.01-.47-.02-.71-.04-.47-.02-.93-.04-1.39-.06-.91-.03-1.8-.07-2.65-.1-1.71-.05-3.31-.09-4.77-.11-2.91-.04-5.27-.05-6.9-.06-.81,0-1.44,0-1.88-.01-.21,0-.37,0-.49,0-.11,0-.17,0-.17,0,0,0,.06,0,.17,0,.11,0,.28,0,.49,0,.43,0,1.06,0,1.88,0,1.63,0,3.99-.01,6.9,.02,1.46,.02,3.05,.05,4.77,.1,.86,.03,1.74,.06,2.66,.09,.46,.02,.92,.04,1.39,.06,.23,.01,.47,.02,.71,.03,.12,0,.24,.01,.36,.02,.12,.01,.24,.02,.36,.04,3.84,.39,8.05,.83,12.48,1.28,4.81,.5,9.38,.97,13.43,1.39h-.04c.56-.42,1.17-.74,1.79-1.01,.61-.27,1.24-.47,1.86-.62,1.24-.31,2.45-.42,3.59-.39,1.14,.02,2.21,.19,3.15,.51,.95,.31,1.75,.79,2.43,1.27,.68,.48,1.23,1.01,1.68,1.48,.45,.47,.79,.93,1.06,1.29,.26,.37,.45,.67,.57,.88,.12,.21,.17,.32,.17,.32Z"/>
        <path class="cls-15" d="M626.6,170s-.04,0-.11,0c-.07,0-.18,0-.31,0-.28,0-.67,0-1.18-.01-1.03-.02-2.52-.04-4.36-.07-3.68-.07-8.76-.17-14.38-.28-2.81-.06-5.48-.12-7.91-.17-.15,0-.3,0-.45,0-.15,0-.3,0-.45-.02-.31-.04-.58-.18-.84-.29-.53-.22-1.06-.43-1.56-.64-1.01-.4-1.96-.76-2.82-1.09-1.73-.66-3.12-1.2-4.08-1.6-.48-.2-.85-.35-1.1-.46-.12-.05-.22-.1-.28-.13-.06-.03-.1-.05-.1-.05,0,0,.03,.01,.1,.04,.07,.03,.16,.07,.29,.12,.26,.1,.63,.25,1.1,.45,.96,.38,2.36,.91,4.09,1.56,.86,.33,1.81,.68,2.82,1.08,.51,.2,1.03,.41,1.56,.63,.27,.11,.53,.24,.82,.28,.14,.02,.29,.02,.44,.02,.15,0,.3,0,.45,0,2.43,.05,5.11,.1,7.91,.16,5.61,.12,10.69,.23,14.37,.31,1.84,.05,3.32,.08,4.36,.11,.51,.02,.91,.03,1.18,.04,.13,0,.23,0,.31,.01,.07,0,.1,0,.1,0Z"/>
        <path class="cls-8" d="M624.27,148.99c-.38,.81-.8,2-.72,3.24,.05,.81,.69,1.44,1.47,1.44l3.63,.03c.53,0,1.02-.39,1.09-.94,.02-.18,0-.37-.09-.57-.38-.8-.69-.65-.69-.65,0,0-1.1-2.35-2.77-3.24-.7-.37-1.57-.05-1.92,.69Z"/>
        <path class="cls-15" d="M628.02,153.69s.14-.03,.33-.17c.18-.14,.43-.37,.53-.74,.09-.36,.07-.68,.07-.91,0-.23-.02-.37-.03-.37-.02,0-.04,.14-.06,.37-.02,.23-.02,.55-.11,.88-.08,.32-.3,.55-.46,.7-.16,.15-.28,.22-.27,.24Z"/>
        <path class="cls-1" d="M628.3,151.04s-.05-.2-.2-.49c-.15-.29-.4-.66-.75-1.02-.35-.35-.71-.61-.99-.77-.28-.16-.47-.22-.47-.21-.02,.04,.7,.37,1.37,1.07,.68,.69,1,1.44,1.04,1.41Z"/>
        <path class="cls-4" d="M600.29,141.38s.01,.04,.03,.11c.02,.09,.04,.2,.07,.33,.06,.29,.13,.71,.22,1.22,.18,1.04,.42,2.47,.64,4.06,.23,1.59,.4,3.03,.49,4.08,.02,.26,.04,.5,.05,.71,.01,.21,.02,.39,.02,.54,0,.14,0,.25,0,.34,0,.08,0,.12,0,.12,0,0,0-.04-.02-.12,0-.09-.01-.2-.02-.34,0-.15-.02-.33-.04-.53-.02-.21-.04-.44-.07-.71-.11-1.05-.29-2.49-.52-4.07-.23-1.59-.45-3.02-.61-4.06-.08-.51-.14-.92-.19-1.23-.02-.14-.03-.25-.05-.34,0-.08-.01-.12,0-.12Z"/>
        <g class="cls-6">
          <path d="M556.73,153.59l4.36-2.68,.13-.82c1.69,.17,3.75,.34,4.24,.54,0,.14-5.37,1.9-8.73,2.96Z"/>
        </g>
        <g class="cls-6">
          <path d="M656.72,159.68l2.33,2.05,2.54,.41v2.34s-3.74-1.92-3.74-1.92c-.46-1.11-.88-2.15-1.13-2.89Z"/>
        </g>
        <path class="cls-15" d="M656.7,159.68s-.02,0-.06-.02c-.04-.02-.1-.04-.17-.07-.15-.07-.37-.16-.65-.29-.57-.25-1.38-.61-2.38-1.05-1-.44-2.2-.96-3.54-1.51-.67-.27-1.38-.56-2.13-.78-.38-.1-.77-.16-1.17-.23-.4-.07-.81-.13-1.22-.2-3.29-.52-6.28-.96-8.44-1.29-1.07-.16-1.95-.3-2.56-.39-.3-.05-.53-.08-.69-.11-.07-.01-.13-.02-.18-.03-.04,0-.06-.01-.06-.01,0,0,.02,0,.06,0,.05,0,.11,.01,.18,.02,.17,.02,.4,.05,.7,.09,.61,.08,1.49,.21,2.56,.35,2.16,.31,5.15,.74,8.44,1.26,.41,.07,.82,.13,1.22,.2,.4,.07,.8,.13,1.18,.23,.76,.23,1.46,.52,2.14,.79,1.34,.55,2.54,1.08,3.54,1.53,1,.45,1.81,.82,2.36,1.09,.27,.13,.49,.23,.64,.3,.07,.03,.12,.06,.16,.08,.04,.02,.06,.03,.05,.03Z"/>
        <g>
          <path class="cls-15" d="M565.46,169.41c-.07,4.73,3.58,8.61,8.14,8.68,4.56,.07,8.31-3.71,8.37-8.43,.07-4.73-3.58-8.61-8.14-8.68-4.56-.07-8.31,3.71-8.37,8.43Z"/>
          <path class="cls-15" d="M565.46,169.39s0,.01,0,.02c-.07,4.73,3.58,8.61,8.14,8.68,4.56,.07,8.31-3.71,8.37-8.43,0,0,0-.01,0-.02l-16.51-.25Z"/>
          <path class="cls-2" d="M567.92,169.45c-.05,3.32,2.51,6.05,5.71,6.09,3.2,.05,5.83-2.6,5.88-5.92,.05-3.32-2.51-6.05-5.71-6.09-3.2-.05-5.83,2.6-5.88,5.92Z"/>
          <path class="cls-8" d="M573.8,163.53c-3.2-.05-5.83,2.6-5.88,5.92l11.59,.17c.05-3.32-2.51-6.05-5.71-6.09Z"/>
          <path class="cls-15" d="M570.18,169.48c-.03,2.02,1.53,3.68,3.48,3.71,1.95,.03,3.55-1.59,3.58-3.61s-1.53-3.68-3.48-3.71c-1.95-.03-3.55,1.59-3.58,3.61Z"/>
        </g>
        <g>
          <path class="cls-15" d="M633.78,169.41c-.07,4.73,3.58,8.61,8.14,8.68,4.56,.07,8.31-3.71,8.37-8.43,.07-4.73-3.58-8.61-8.14-8.68-4.56-.07-8.31,3.71-8.37,8.43Z"/>
          <path class="cls-15" d="M633.78,169.39s0,.01,0,.02c-.07,4.73,3.58,8.61,8.14,8.68,4.56,.07,8.31-3.71,8.37-8.43,0,0,0-.01,0-.02l-16.51-.25Z"/>
          <path class="cls-2" d="M636.24,169.45c-.05,3.32,2.51,6.05,5.71,6.09,3.2,.05,5.83-2.6,5.88-5.92,.05-3.32-2.51-6.05-5.71-6.09-3.2-.05-5.83,2.6-5.88,5.92Z"/>
          <path class="cls-8" d="M642.12,163.53c-3.2-.05-5.83,2.6-5.88,5.92l11.59,.17c.05-3.32-2.51-6.05-5.71-6.09Z"/>
          <path class="cls-15" d="M638.51,169.48c-.03,2.02,1.53,3.68,3.48,3.71,1.95,.03,3.55-1.59,3.58-3.61s-1.53-3.68-3.48-3.71c-1.95-.03-3.55,1.59-3.58,3.61Z"/>
        </g>
        <g>
          <path class="cls-1" d="M610.86,150.27s1.52-.86,3.42-1.85c1.9-1,3.45-1.78,3.46-1.75s-1.52,.86-3.42,1.85c-1.9,.99-3.45,1.78-3.46,1.75Z"/>
          <path class="cls-1" d="M608.73,150.06s1.44-.85,3.24-1.83c1.81-.98,3.28-1.76,3.29-1.73,.01,.03-1.44,.85-3.24,1.83-1.81,.98-3.28,1.76-3.29,1.73Z"/>
          <path class="cls-1" d="M587.44,149.69s.1-.06,.3-.14c.21-.09,.49-.2,.83-.34,.71-.3,1.67-.69,2.72-1.13,1.05-.45,2-.85,2.71-1.16,.33-.14,.61-.26,.82-.35,.19-.08,.3-.12,.31-.12,0,0-.1,.06-.29,.16-.19,.09-.47,.23-.81,.38-.69,.32-1.64,.74-2.7,1.19-1.06,.45-2.03,.83-2.74,1.1-.35,.13-.64,.24-.84,.31-.2,.07-.31,.1-.31,.1Z"/>
          <path class="cls-1" d="M589.41,147.34s.78-.42,1.77-.88c.99-.46,1.8-.81,1.81-.78,.01,.03-.78,.42-1.77,.88-.99,.46-1.8,.81-1.81,.78Z"/>
        </g>
        <path class="cls-15" d="M661.59,164.49s-.01-.12-.02-.34c0-.24-.01-.55-.02-.92,0-.39,0-.85-.02-1.36-.04-.5-.4-.96-.75-1.41-.36-.45-.78-.81-1.17-1.13-.39-.32-.75-.58-1.05-.81-.29-.21-.54-.39-.73-.52-.17-.12-.27-.19-.26-.2,0,0,.11,.05,.29,.16,.18,.11,.44,.28,.75,.5,.31,.22,.68,.48,1.07,.79,.39,.32,.82,.67,1.19,1.14,.18,.23,.36,.46,.5,.7,.14,.24,.25,.51,.27,.77,.02,.52,0,.98,0,1.37,0,.37-.01,.68-.02,.92,0,.22-.01,.34-.02,.34Z"/>
      </g>
      <rect class="cls-8" x="562.94" y="103.44" width="89.22" height="9.03" rx="4.4" ry="4.4"/>
      <rect class="cls-8" x="559.61" y="198.94" width="96.62" height="9.03" rx="4.4" ry="4.4"/>
      <rect class="cls-8" x="559.61" y="216.02" width="96.62" height="9.03" rx="4.4" ry="4.4"/>
      <rect class="cls-8" x="559.61" y="233.09" width="96.62" height="9.03" rx="4.4" ry="4.4"/>
      <g>
        <rect class="cls-11" x="563.21" y="296.65" width="93.01" height="30.5" rx="3.39" ry="3.39"/>
        <g>
          <path class="cls-1" d="M592.13,313.65h-1.81v3.11h-3.31v-11.72h5.36c1.06,0,1.98,.18,2.76,.53,.78,.35,1.38,.85,1.81,1.51,.42,.65,.64,1.42,.64,2.3s-.2,1.59-.59,2.22c-.4,.63-.96,1.12-1.7,1.48l2.53,3.68h-3.55l-2.13-3.11Zm1.57-5.54c-.35-.3-.86-.45-1.54-.45h-1.84v3.43h1.84c.68,0,1.19-.15,1.54-.44,.35-.3,.52-.72,.52-1.26s-.17-.97-.52-1.27Z"/>
          <path class="cls-1" d="M608.81,314.21v2.56h-9.41v-11.72h9.19v2.56h-5.91v1.98h5.21v2.48h-5.21v2.14h6.13Z"/>
          <path class="cls-1" d="M621.8,305.05v11.72h-2.73l-5.17-6.24v6.24h-3.25v-11.72h2.73l5.17,6.24v-6.24h3.25Z"/>
          <path class="cls-1" d="M626.63,307.68h-3.6v-2.63h10.5v2.63h-3.58v9.09h-3.31v-9.09Z"/>
        </g>
      </g>
      <g>
        <path class="cls-11" d="M576.49,97.12c-.73-.39-1.3-.93-1.72-1.62s-.63-1.48-.63-2.35,.21-1.66,.63-2.35c.42-.69,.99-1.23,1.72-1.62,.73-.39,1.55-.58,2.47-.58,.8,0,1.52,.14,2.17,.43,.64,.28,1.18,.69,1.6,1.23l-1.58,1.43c-.57-.68-1.26-1.03-2.07-1.03-.48,0-.9,.1-1.27,.31-.37,.21-.66,.5-.86,.88-.2,.38-.31,.82-.31,1.31s.1,.93,.31,1.31c.2,.38,.49,.67,.86,.88,.37,.21,.79,.31,1.27,.31,.81,0,1.5-.34,2.07-1.03l1.58,1.43c-.43,.53-.96,.94-1.6,1.23-.64,.28-1.37,.43-2.17,.43-.92,0-1.74-.19-2.47-.58Z"/>
        <path class="cls-11" d="M589.55,95.82h-3.71l-.69,1.7h-2.53l3.87-8.77h2.44l3.88,8.77h-2.58l-.69-1.7Zm-.73-1.83l-1.13-2.8-1.13,2.8h2.25Z"/>
        <path class="cls-11" d="M597.35,95.2h-1.35v2.33h-2.48v-8.77h4.01c.79,0,1.48,.13,2.07,.39,.58,.26,1.04,.64,1.35,1.13s.48,1.06,.48,1.72-.15,1.19-.44,1.66c-.3,.47-.72,.84-1.27,1.11l1.89,2.75h-2.65l-1.59-2.33Zm1.18-4.14c-.26-.23-.64-.34-1.15-.34h-1.38v2.57h1.38c.51,0,.89-.11,1.15-.33s.39-.54,.39-.95-.13-.73-.39-.95Z"/>
        <path class="cls-11" d="M612.97,97.52l-2-2.82c-.23,.02-.46,.04-.7,.04h-2.35v2.78h-.93v-8.77h3.28c1.12,0,2,.27,2.63,.8,.63,.53,.95,1.27,.95,2.2,0,.68-.17,1.26-.52,1.73-.35,.47-.84,.81-1.48,1.02l2.14,3.01h-1.01Zm-.74-4.14c.46-.38,.69-.92,.69-1.62s-.23-1.25-.69-1.63c-.46-.38-1.12-.57-1.99-.57h-2.33v4.39h2.33c.87,0,1.53-.19,1.99-.58Z"/>
        <path class="cls-11" d="M622.23,96.72v.8h-6.2v-8.77h6.01v.8h-5.08v3.12h4.53v.79h-4.53v3.26h5.27Z"/>
        <path class="cls-11" d="M631.74,88.76v8.77h-.76l-5.63-7.11v7.11h-.93v-8.77h.76l5.65,7.11v-7.11h.91Z"/>
        <path class="cls-11" d="M636.3,89.56h-3.08v-.8h7.09v.8h-3.08v7.96h-.93v-7.96Z"/>
      </g>
    </g>
  </g>
  <g id="Car">
    <g>
      <rect class="cls-8" x="71.07" y="343.03" width="503.33" height="68.39"/>
      <g class="cls-13">
        <rect x="71.07" y="343.03" width="503.33" height="68.39"/>
      </g>
      <path class="cls-8" d="M603.44,338.98c-14.3-8.85-51.42-22.73-61.72-23.91-6.24-.72-34.01-4.54-34.01-4.54l-9-.72s-95.7-47.44-110.92-53.32c-23.57-9.11-73.39-17.03-126.21-10.52,0,0-70.58,6.46-86.27,11-15.69,4.54-91.58,28.21-91.58,28.21,0,0-33.27,3.5-32.75,4.78,0,0,.46,2.15,3.23,4.78v21.28s-3.69,5.02-4.61,7.41c-.92,2.39-3,21.28-3,21.28,0,0-9.95,23.67-9.95,29.89s18.02,30.13,22.4,33.71c4.38,3.59,39.78,8.81,39.78,8.81l-.06-17.9c.93-27.25,22.15-49.05,48.21-49.05s47.27,21.8,48.21,49.05l.11,23.19H471.43l-.19-17.21c-.1-1.36-.17-2.73-.17-4.11,0-28.12,21.6-50.92,48.25-50.92s48.25,22.8,48.25,50.92c0,1.39-.07,2.75-.17,4.11h.98v17.21h31.83s25.83-19.84,25.14-29.89v-28.28c0-3.76-1.36-7.37-3.83-10.13-3.6-4.02-9.69-9.95-18.09-15.14Z"/>
      <g class="cls-6">
        <path d="M625.36,372.45l-20.37-7.53-2.42,11.48-32.52-1.79s-14.32-28.35-43.6-30.84c-25.07-2.14-44.98,10.78-44.98,10.78l-143.25-14.73s-72.66-2.87-100.69-2.51c-28.03,.36-52.73,21.47-52.73,21.47,0,0-8.27-12.44-37.58-12.72-29.31-.28-41.54,17.56-41.54,17.56-20.66-2.8-40.58-11.32-57.14-24.43l-1.43,1.19c-.3,2.55-.5,4.34-.5,4.34,0,0-9.95,23.67-9.95,29.89s18.02,30.13,22.4,33.71c4.38,3.59,39.78,8.81,39.78,8.81l-.06-17.9c.93-27.25,22.15-49.05,48.21-49.05s47.27,21.8,48.21,49.05l.11,23.19H471.43l-.19-17.21c-.1-1.36-.17-2.73-.17-4.11,0-28.12,21.6-50.92,48.25-50.92s48.25,22.8,48.25,50.92c0,1.39-.07,2.75-.17,4.11h.98v17.21h31.83s25.83-19.84,25.14-29.89v-20.08h0Z"/>
      </g>
      <path class="cls-15" d="M134.03,286.73c-2.46,1.83-1.49,5.83,1.51,6.25l24.27,3.36,137.91,15.76,168.15,9.67c2.7,.16,5.38-1.04,6.88-3.37,1.43-2.22,1.97-5.31-1.56-8.83-7.06-7.03-38.28-25.2-45.61-28.78-7.33-3.58-58.76-35.56-135.53-31.19-23.24,.84-67.84,7.72-125.47,15.54-1.23,.17-2.41,.65-3.42,1.4l-27.14,20.2Z"/>
      <path class="cls-4" d="M162.7,293.76c.34-1.07,12.76-25.38,15.17-26.81,2.41-1.43,102.75-14.65,104.13-12.87,1.38,1.79,4.83,52.9,4.83,52.9l-124.13-13.22Z"/>
      <polygon class="cls-15" points="200.94 263.24 200.07 298.91 205.24 298.91 205.24 262.65 200.94 263.24"/>
      <path class="cls-15" d="M442.07,290.02s.09,.18,.25,.54c.16,.37,.4,.91,.71,1.62,.3,.72,.73,1.59,1.13,2.67,.41,1.08,.88,2.33,1.41,3.74,1.99,5.7,4.39,14.31,5.89,25.52,1.52,11.2,2.15,24.98,1.23,40.67-.45,7.85-1.28,16.17-2.56,24.88-.65,4.35-1.39,8.8-2.33,13.32-.25,1.12-.44,2.28-.89,3.4-.44,1.1-.99,2.14-1.57,3.16-1.17,2.04-2.48,4.01-3.88,5.95l-.08,.11h-.13c-33.41-.63-72.46-1.37-113.98-2.16-21.55-.51-42.43-1.01-62.21-1.48-9.89-.2-19.51-.41-28.8-.47-1.16,0-2.32-.02-3.46,0-1.14,.02-2.29,.02-3.46-.04-2.31-.18-4.55-.87-6.58-1.92-2.03-1.05-3.85-2.44-5.46-4.01-1.62-1.57-3.04-3.29-4.24-5.19v.02c-10.61-15.16-20.2-29.17-28.6-41.67-4.18-6.26-8.09-12.13-11.61-17.62-3.53-5.48-6.73-10.56-9.44-15.26-1.36-2.34-2.61-4.6-3.56-6.84-.23-.56-.45-1.12-.67-1.67-.22-.55-.34-1.12-.51-1.67-.14-.55-.35-1.08-.44-1.63-.1-.54-.2-1.08-.29-1.6-.72-4.23-.11-7.92,.69-10.72,.83-2.82,1.92-4.8,2.72-6.07,.81-1.27,1.34-1.83,1.34-1.83,0,0-.11,.16-.34,.46-.22,.31-.54,.78-.94,1.41-.77,1.28-1.84,3.26-2.64,6.07-.77,2.79-1.35,6.45-.62,10.63,.1,.52,.2,1.05,.3,1.59,.09,.54,.29,1.06,.44,1.61,.17,.54,.29,1.11,.52,1.65,.22,.54,.44,1.09,.67,1.65,.96,2.21,2.21,4.46,3.58,6.79,2.72,4.68,5.93,9.74,9.48,15.21,3.53,5.48,7.46,11.33,11.65,17.59,8.42,12.48,18.04,26.46,28.68,41.61h0s.01,.02,.01,.02c2.34,3.63,5.57,6.91,9.5,8.99,1.97,1.02,4.14,1.69,6.38,1.86,1.11,.06,2.26,.06,3.41,.03,1.15-.02,2.31,0,3.47,0,9.3,.06,18.91,.25,28.8,.45,19.78,.46,40.66,.95,62.21,1.46,41.52,.81,80.57,1.58,113.98,2.23l-.21,.1c1.38-1.92,2.7-3.88,3.86-5.89,.57-1.01,1.12-2.03,1.54-3.09,.42-1.04,.62-2.19,.87-3.31,.94-4.5,1.69-8.95,2.35-13.29,1.29-8.69,2.13-17,2.6-24.83,.95-15.66,.37-29.42-1.11-40.6-1.45-11.2-3.8-19.8-5.74-25.51-.52-1.42-.97-2.67-1.37-3.75-.39-1.08-.8-1.96-1.09-2.68-.29-.71-.52-1.26-.68-1.63-.15-.37-.22-.56-.22-.56Z"/>
      <path class="cls-15" d="M299.82,312.21s.13,.34,.29,1.01c.16,.67,.35,1.67,.56,2.96,.41,2.58,.83,6.35,1.11,11.02,.6,9.34,.36,22.26,.18,36.52-.22,14.26-.52,27.16-.78,36.5-.14,4.63-.26,8.39-.34,11.06-.05,1.26-.09,2.27-.12,3.01-.02,.31-.03,.57-.05,.78-.01,.18-.03,.27-.04,.27-.01,0-.02-.09-.02-.27,0-.21,0-.47-.01-.78,0-.74,0-1.74,.01-3.01,.04-2.67,.09-6.43,.15-11.06,.16-9.39,.37-22.27,.6-36.5,.18-14.25,.49-27.16-.01-36.48-.23-4.66-.59-8.42-.92-11.01-.17-1.29-.33-2.29-.45-2.97-.05-.31-.1-.56-.14-.77-.03-.17-.04-.26-.04-.27Z"/>
      <path class="cls-4" d="M300.97,253.08l10.29,53.9,109.72,8.08,16.9-23.75s-42.51-25.07-79.86-32.63c-37.89-7.67-57.04-5.6-57.04-5.6Z"/>
      <g class="cls-6">
        <path d="M214.69,377.62s51.25,22.33,60.57,24.44c9.32,2.1,159.5,3.31,159.5,3.31l3.11-6.94-156.74-1.08s-62.97-24.39-66.43-19.73Z"/>
      </g>
      <path class="cls-15" d="M184.79,358.78s-.09-.08-.27-.25c-.17-.18-.44-.42-.79-.75-.72-.63-1.81-1.52-3.3-2.55-1.5-1-3.41-2.11-5.72-3.21-2.33-1.05-5.03-2.11-8.11-2.99-3.09-.83-6.51-1.63-10.25-2.05-1.86-.29-3.8-.38-5.8-.55-1-.09-2.01-.05-3.04-.08-1.03,0-2.07-.07-3.12,.03-8.42,.34-17.64,2.6-26.32,7.2-3.7,1.95-7.19,4.21-10.18,6.77l-.24,.21-.18-.26c-4.89-7-9.43-13.61-13.38-19.69-3.95-6.07-7.28-11.61-9.99-16.26-2.71-4.66-4.82-8.43-6.26-11.02-.7-1.28-1.25-2.28-1.64-2.99-.17-.32-.31-.58-.41-.78-.09-.18-.13-.27-.12-.28,0,0,.07,.08,.17,.25,.12,.2,.27,.44,.46,.75,.41,.7,.99,1.69,1.72,2.94,1.52,2.6,3.7,6.31,6.41,10.93,2.75,4.62,6.12,10.13,10.09,16.17,3.97,6.05,8.53,12.64,13.43,19.63l-.42-.05c3.06-2.63,6.56-4.89,10.3-6.86,8.76-4.64,18.07-6.9,26.57-7.22,1.06-.1,2.11-.02,3.15-.02,1.04,.03,2.06,0,3.06,.09,2,.18,3.96,.28,5.83,.58,3.76,.45,7.2,1.27,10.3,2.14,3.1,.91,5.81,2.01,8.14,3.09,2.31,1.14,4.21,2.29,5.71,3.32,1.48,1.06,2.56,1.99,3.25,2.65,.34,.34,.6,.6,.75,.8,.16,.19,.24,.29,.23,.3Z"/>
      <path class="cls-15" d="M53.64,387.19s-.19-.6-.42-1.7c-.23-1.1-.55-2.71-.91-4.69-.73-3.97-1.63-9.48-2.5-15.58-.87-6.1-1.53-11.65-1.94-15.66-.21-2.01-.35-3.64-.44-4.77-.08-1.13-.11-1.75-.07-1.76,.04,0,.14,.61,.3,1.73,.16,1.23,.37,2.82,.62,4.74,.51,4,1.24,9.53,2.11,15.63,.87,6.09,1.71,11.6,2.33,15.59,.29,1.91,.54,3.5,.73,4.72,.17,1.12,.24,1.74,.2,1.75Z"/>
      <path class="cls-15" d="M99.81,391.2s-.2,.04-.59,.05c-.45,0-1.01,0-1.69,.01-1.46,0-3.58-.04-6.2-.14-5.23-.18-12.46-.61-20.41-1.42-7.95-.82-15.12-1.87-20.29-2.76-2.58-.44-4.67-.83-6.1-1.13-.66-.14-1.21-.26-1.65-.35-.38-.09-.57-.14-.57-.16,0-.02,.21,0,.59,.04,.45,.06,1,.14,1.67,.24,1.53,.23,3.61,.55,6.13,.94,5.18,.78,12.34,1.76,20.28,2.58,7.94,.81,15.15,1.31,20.37,1.6,2.55,.14,4.64,.25,6.19,.33,.68,.04,1.23,.08,1.68,.1,.38,.03,.59,.06,.59,.08Z"/>
      <path class="cls-1" d="M604.98,364.92s-6.34-15.22-6.16-15.73c.98-2.73,4.62-10.21,4.62-10.21,0,0,2.98,1.7,6.6,4.39,4.03,3,8.9,7.21,12.28,11.08,1.95,2.24,3.03,5.15,3.04,8.17v12.75s-20.38-10.45-20.38-10.45Z"/>
      <path class="cls-15" d="M466.94,294.4c.12,.12-1.3,1.87-2.94,4.11-1.65,2.23-2.91,4.11-3.05,4.02-.13-.08,.92-2.13,2.59-4.39,1.67-2.27,3.3-3.85,3.41-3.74Z"/>
      <path class="cls-10" d="M54.22,294.75s48.06,4.08,47.53,5.18c-.53,1.1-47.53,16.1-47.53,16.1v-21.28Z"/>
      <path class="cls-15" d="M54.07,316.64c-.16,0-.29-4.88-.3-10.9,0-6.02,.13-10.9,.29-10.9s.29,4.88,.3,10.9c0,6.02-.13,10.9-.29,10.9Z"/>
      <path class="cls-15" d="M570.04,374.61s-.09-.14-.25-.43c-.17-.28-.4-.71-.75-1.26-.65-1.11-1.71-2.7-3.15-4.72-1.49-1.97-3.33-4.41-5.81-6.97-2.45-2.57-5.42-5.4-9.14-7.99-3.7-2.59-8.03-5.17-13.17-6.84-5.1-1.74-10.87-2.62-17.05-2.71-6.17-.13-12.76,.48-19.45,2.16-3.35,.81-6.72,1.93-10.04,3.39-3.31,1.45-6.63,3.2-9.6,5.51l-.09,.07h-.1c-22.07-2.27-46.94-4.82-73.15-7.5-24.11-2.49-47.08-4.86-67.97-7.01-.65-.07-1.3-.14-1.95-.2-.65-.04-1.3-.07-1.94-.11-1.29-.06-2.58-.13-3.85-.19-2.55-.12-5.07-.23-7.56-.34-4.97-.18-9.79-.36-14.46-.54-9.33-.3-18.02-.48-25.96-.6-15.87-.24-28.72-.26-37.6-.31-4.43-.03-7.87-.05-10.22-.06-1.16-.01-2.04-.02-2.66-.03-.6-.01-.91-.03-.91-.03,0,0,.31-.02,.91-.03,.62,0,1.5-.02,2.66-.03,2.35-.01,5.8-.03,10.22-.05,8.88-.02,21.73-.06,37.61,.12,7.94,.09,16.64,.25,25.97,.52,4.67,.14,9.49,.31,14.46,.51,2.49,.11,5.01,.22,7.56,.33,1.28,.06,2.57,.12,3.86,.19,.65,.03,1.3,.07,1.95,.1,.65,.07,1.3,.13,1.95,.2,20.9,2.14,43.87,4.49,67.98,6.97,26.22,2.71,51.08,5.27,73.16,7.55l-.19,.06c3.07-2.37,6.39-4.11,9.74-5.58,3.35-1.46,6.75-2.58,10.12-3.39,6.75-1.67,13.37-2.27,19.57-2.12,6.2,.1,12.04,1.02,17.16,2.79,5.17,1.7,9.52,4.32,13.22,6.94,3.73,2.62,6.7,5.48,9.14,8.08,2.47,2.58,4.3,5.05,5.77,7.04,1.42,2.04,2.45,3.65,3.09,4.78,.65,1.12,.92,1.73,.92,1.73Z"/>
      <path class="cls-15" d="M434.76,405.37s-.19,.02-.57,.02c-.4,0-.96,0-1.68,0-1.5-.02-3.67-.04-6.45-.08-5.63-.09-13.73-.23-23.73-.4-20.06-.39-47.73-.94-78.3-1.53-15.29-.33-29.86-.64-43.11-.92-.83-.02-1.65-.04-2.47-.05-.81-.03-1.63,0-2.46-.13-1.67-.2-3.14-.98-4.58-1.56-2.91-1.22-5.75-2.36-8.49-3.46-5.5-2.18-10.65-4.14-15.35-5.94-9.41-3.58-17-6.53-22.21-8.69-2.6-1.07-4.62-1.93-5.97-2.53-.66-.29-1.17-.52-1.54-.69-.35-.16-.52-.25-.52-.25,0,0,.19,.06,.54,.2,.37,.15,.89,.36,1.56,.63,1.4,.56,3.42,1.38,6.01,2.42,5.23,2.09,12.84,4.98,22.27,8.5,4.71,1.77,9.87,3.71,15.38,5.87,2.75,1.09,5.6,2.22,8.51,3.44,1.47,.59,2.89,1.33,4.46,1.51,.77,.11,1.58,.09,2.4,.11,.82,.02,1.64,.03,2.47,.05,13.25,.27,27.82,.56,43.11,.87,30.56,.67,58.23,1.27,78.29,1.71,10,.25,18.1,.45,23.73,.59,2.78,.08,4.95,.15,6.45,.19,.72,.03,1.28,.05,1.68,.06,.38,.02,.57,.04,.57,.04Z"/>
      <path class="cls-8" d="M422.07,290.93c-2.07,4.39-4.33,10.89-3.91,17.63,.27,4.39,3.76,7.83,8.01,7.86l19.76,.15c2.91,.02,5.55-2.1,5.93-5.09,.12-.98,.01-2.03-.5-3.12-2.05-4.34-3.77-3.52-3.77-3.52,0,0-5.98-12.8-15.08-17.65-3.81-2.04-8.56-.26-10.43,3.74Z"/>
      <path class="cls-15" d="M442.53,316.55c.03,.08,.78-.15,1.79-.9,.97-.75,2.34-2.04,2.87-4.03,.5-1.94,.4-3.71,.4-4.95-.02-1.26-.08-2.03-.18-2.04-.09,0-.2,.77-.31,2.02-.12,1.25-.11,3-.58,4.77-.45,1.76-1.66,3.02-2.51,3.83-.88,.82-1.54,1.2-1.49,1.29Z"/>
      <path class="cls-1" d="M444.02,302.14c.07-.03-.27-1.09-1.1-2.66-.83-1.57-2.21-3.62-4.08-5.55-1.88-1.93-3.87-3.34-5.39-4.19-1.52-.85-2.54-1.2-2.57-1.12-.11,.2,3.82,2,7.48,5.81,3.7,3.76,5.47,7.82,5.66,7.7Z"/>
      <path class="cls-4" d="M291.5,249.51s.08,.21,.17,.62c.1,.48,.22,1.08,.36,1.81,.3,1.57,.72,3.85,1.21,6.67,.98,5.64,2.26,13.45,3.5,22.1,1.24,8.65,2.19,16.52,2.67,22.23,.14,1.43,.22,2.72,.28,3.86,.07,1.14,.13,2.12,.14,2.92,0,.75,.02,1.36,.02,1.85,0,.42-.01,.64-.03,.64-.02,0-.05-.22-.09-.64-.03-.49-.08-1.1-.13-1.84-.04-.8-.13-1.77-.23-2.91-.1-1.13-.21-2.42-.37-3.84-.59-5.69-1.6-13.54-2.84-22.18-1.24-8.64-2.46-16.46-3.33-22.11-.42-2.77-.77-5.03-1.02-6.7-.1-.74-.19-1.34-.26-1.83-.05-.42-.07-.64-.05-.64Z"/>
      <g class="cls-6">
        <path d="M54.22,316.03l23.77-14.61,.69-4.44c9.23,.95,20.42,1.85,23.08,2.95,0,.75-29.23,10.35-47.53,16.1Z"/>
      </g>
      <g class="cls-6">
        <path d="M598.82,349.19l12.7,11.18,13.84,2.25v12.75s-20.38-10.45-20.38-10.45c-2.51-6.06-4.8-11.73-6.16-15.73Z"/>
      </g>
      <path class="cls-15" d="M598.68,349.19s-.11-.03-.32-.12c-.24-.1-.54-.23-.92-.39-.84-.37-2.02-.89-3.52-1.56-3.09-1.37-7.5-3.33-12.94-5.74-5.47-2.4-11.99-5.25-19.3-8.23-3.66-1.45-7.51-3.04-11.59-4.25-2.05-.53-4.2-.86-6.38-1.25-2.18-.36-4.39-.72-6.63-1.09-17.93-2.84-34.19-5.23-45.95-7.02-5.85-.89-10.6-1.62-13.93-2.12-1.61-.26-2.88-.46-3.78-.6-.4-.07-.73-.13-.98-.17-.22-.04-.33-.07-.33-.08,0-.01,.12,0,.34,.02,.26,.03,.58,.07,.99,.11,.91,.12,2.18,.28,3.8,.49,3.34,.46,8.09,1.12,13.95,1.93,11.78,1.68,28.04,4.01,45.98,6.85,2.24,.37,4.45,.73,6.63,1.09,2.18,.39,4.33,.72,6.43,1.27,4.14,1.24,7.97,2.83,11.64,4.3,7.3,3.02,13.81,5.91,19.26,8.36,5.45,2.46,9.84,4.49,12.87,5.92,1.48,.71,2.64,1.26,3.48,1.66,.37,.18,.67,.33,.9,.45,.2,.1,.3,.16,.3,.17Z"/>
      <g>
        <ellipse class="cls-15" cx="146.72" cy="402.86" rx="44.97" ry="46.61"/>
        <path class="cls-15" d="M101.77,402.07s0,.08,0,.12c-.36,25.74,19.48,46.9,44.31,47.27,24.83,.37,45.25-20.19,45.61-45.93,0-.04,0-.08,0-.12l-89.91-1.34Z"/>
        <path class="cls-2" d="M115.16,402.39c-.25,18.07,13.68,32.93,31.11,33.19,17.43,.26,31.77-14.18,32.02-32.25,.25-18.07-13.68-32.93-31.11-33.19-17.43-.26-31.77,14.18-32.02,32.25Z"/>
        <path class="cls-8" d="M147.18,370.14c-17.43-.26-31.77,14.18-32.02,32.25l63.13,.94c.25-18.07-13.68-32.93-31.11-33.19Z"/>
        <path class="cls-15" d="M127.49,402.57c-.15,11.01,8.33,20.06,18.95,20.22,10.62,.16,19.35-8.64,19.51-19.64,.15-11.01-8.33-20.06-18.95-20.22-10.62-.16-19.35,8.64-19.5,19.64Z"/>
      </g>
      <g>
        <ellipse class="cls-15" cx="518.84" cy="402.86" rx="44.97" ry="46.61"/>
        <path class="cls-15" d="M473.89,402.07s0,.08,0,.12c-.36,25.74,19.48,46.9,44.31,47.27,24.83,.37,45.25-20.19,45.61-45.93,0-.04,0-.08,0-.12l-89.91-1.34Z"/>
        <path class="cls-2" d="M487.28,402.39c-.25,18.07,13.68,32.93,31.11,33.19,17.43,.26,31.77-14.18,32.02-32.25,.25-18.07-13.68-32.93-31.11-33.19-17.43-.26-31.77,14.18-32.02,32.25Z"/>
        <path class="cls-8" d="M519.3,370.14c-17.43-.26-31.77,14.18-32.02,32.25l63.13,.94c.25-18.07-13.68-32.93-31.11-33.19Z"/>
        <path class="cls-15" d="M499.61,402.57c-.15,11.01,8.33,20.06,18.95,20.22,10.62,.16,19.35-8.64,19.51-19.64,.15-11.01-8.33-20.06-18.95-20.22s-19.35,8.64-19.5,19.64Z"/>
      </g>
      <g>
        <path class="cls-1" d="M349.03,297.94c-.07-.15,8.26-4.66,18.6-10.08,10.35-5.42,18.8-9.69,18.87-9.54,.07,.15-8.26,4.66-18.61,10.08-10.35,5.42-18.79,9.69-18.87,9.54Z"/>
        <path class="cls-1" d="M337.43,296.76c-.08-.15,7.84-4.61,17.67-9.97,9.83-5.36,17.87-9.58,17.94-9.43,.08,.15-7.83,4.61-17.67,9.97-9.83,5.36-17.86,9.58-17.94,9.43Z"/>
        <path class="cls-1" d="M221.5,294.76s.56-.31,1.62-.75c1.16-.48,2.67-1.11,4.5-1.86,3.89-1.61,9.09-3.76,14.83-6.14,5.72-2.44,10.89-4.65,14.77-6.31,1.82-.78,3.32-1.42,4.48-1.91,1.06-.44,1.65-.67,1.67-.63,.02,.04-.55,.34-1.58,.85-1.03,.51-2.54,1.23-4.4,2.09-3.73,1.73-8.92,4.04-14.71,6.48-5.78,2.43-11.06,4.52-14.9,5.98-1.92,.73-3.48,1.3-4.56,1.68-1.08,.38-1.69,.57-1.7,.53Z"/>
        <path class="cls-1" d="M232.22,281.98c-.07-.15,4.24-2.31,9.63-4.81,5.38-2.5,9.8-4.41,9.87-4.26,.07,.15-4.24,2.31-9.63,4.81-5.38,2.5-9.8,4.41-9.87,4.26Z"/>
      </g>
      <path class="cls-15" d="M625.37,375.37s-.08-.65-.12-1.83c-.02-1.29-.06-2.97-.1-5-.05-2.1,0-4.66-.12-7.39-.23-2.73-2.18-5.22-4.1-7.69-1.94-2.47-4.27-4.39-6.36-6.13-2.12-1.72-4.08-3.19-5.74-4.41-1.61-1.16-2.94-2.12-3.96-2.85-.94-.67-1.45-1.05-1.43-1.09,.02-.04,.58,.28,1.55,.89,.98,.61,2.37,1.52,4.07,2.7,1.69,1.18,3.69,2.61,5.84,4.32,2.12,1.73,4.49,3.65,6.48,6.19,.99,1.25,1.93,2.5,2.71,3.82,.79,1.3,1.36,2.75,1.47,4.2,.1,2.84,0,5.32,0,7.45-.04,2.03-.07,3.71-.09,5-.03,1.18-.07,1.83-.11,1.83Z"/>
    </g>
  </g>
  <g id="_Icon" data-name=" Icon">
    <path class="cls-11" d="M155.96,185.74c0-22.12-19.99-39.58-42.9-35.28-14.41,2.7-25.89,14.47-28.41,28.91-1.58,9.03,.29,17.52,4.4,24.52h-.02l.1,.14c1.38,2.32,3.1,3.98,4.85,6.42l20.86,27.64c2.6,3.44,7.76,3.44,10.36,0l20.52-27.18s3.83-4.57,5.22-6.91l.07-.1h-.01c3.13-5.33,4.96-11.52,4.96-18.15Zm-35.93,15.65c-8.73,0-15.81-7.08-15.81-15.81s7.08-15.81,15.81-15.81,15.81,7.08,15.81,15.81-7.08,15.81-15.81,15.81Z"/>
  </g>
  <g id="Speech_Bubble" data-name="Speech Bubble">
    <g>
      <g>
        <path class="cls-1" d="M464.21,179.24l6.36,1.13c2.28,2.58,5.29,4.58,8.82,5.65,10.18,3.08,20.92-2.69,24-12.88,3.08-10.19-2.67-20.95-12.85-24.02-10.18-3.08-20.92,2.69-24,12.88-1.29,4.26-1.03,8.61,.45,12.46h0s-2.77,4.78-2.77,4.78Z"/>
        <path class="cls-15" d="M464.21,179.24s.07-.11,.2-.32c.13-.22,.31-.52,.55-.92,.48-.81,1.18-1.99,2.09-3.52h-.12s0,.01,0,.02c.02,.03,.07,.04,.1,.02,.03-.02,.04-.05,.02-.08-.84-2.26-1.57-5.47-1.07-9.28,.12-.95,.33-1.92,.62-2.91,.34-.97,.65-2,1.17-2.98,.96-1.98,2.32-3.93,4.13-5.62,1.8-1.69,4.03-3.1,6.56-4.02,2.53-.92,5.36-1.34,8.25-1.09,2.88,.28,5.78,1.23,8.37,2.84,2.61,1.59,4.83,3.91,6.42,6.67,3.14,5.38,3.27,12,.96,17.14-1.13,2.59-2.8,4.84-4.76,6.59-1.96,1.76-4.21,3.05-6.5,3.84-4.6,1.6-9.23,1.25-12.78-.05-3.59-1.29-6.15-3.41-7.8-5.25-.01-.01-.03-.02-.04-.02-2.05-.34-3.63-.61-4.71-.79-.53-.09-.94-.15-1.23-.2-.28-.04-.43-.06-.43-.06,0,0,.13,.03,.39,.08,.28,.05,.68,.13,1.2,.23,1.09,.2,2.68,.5,4.75,.89l-.04-.02c1.64,1.88,4.2,4.04,7.83,5.37,3.58,1.34,8.28,1.72,12.95,.11,2.32-.8,4.61-2.1,6.61-3.88,2-1.78,3.7-4.07,4.85-6.7,2.36-5.23,2.23-11.98-.97-17.45l-.62-1.04c-.23-.33-.47-.65-.71-.97-.45-.67-1.02-1.23-1.54-1.83-.26-.3-.58-.54-.86-.82-.3-.26-.56-.55-.89-.78-.64-.46-1.23-.98-1.91-1.35-2.64-1.64-5.6-2.6-8.52-2.88-2.93-.25-5.82,.18-8.38,1.13-2.57,.94-4.83,2.39-6.65,4.11-1.82,1.72-3.2,3.7-4.16,5.72-.52,.99-.83,2.04-1.17,3.02-.29,1-.49,1.99-.61,2.95-.48,3.85,.29,7.1,1.16,9.36l.12-.07s0,0,0,0c-.02-.03-.07-.04-.1-.02,0,0-.02,.01-.02,.02-.88,1.56-1.56,2.77-2.03,3.6-.22,.39-.39,.7-.51,.92-.11,.2-.16,.3-.16,.3Z"/>
      </g>
      <polygon class="cls-11" points="485.55 175.48 476.1 169.16 478.31 165.86 484.64 170.1 492.52 159.67 495.69 162.06 485.55 175.48"/>
    </g>
  </g>
  <g id="Character_2" data-name="Character 2">
    <g>
      <g>
        <path class="cls-15" d="M394.62,239.94c.02-.69,.44-1.3,1.01-1.68,8.99-5.95,15.76-19.14,16.45-30.3,.02-.64,.04-1.28,.06-1.93,0,0,0,0,0,0h0c.52-15.96,2.87-35.32,4.98-40.48,3.9-9.53,17.1-10.43,17.1-10.43,17.52-1.25,20.65,12.21,22.42,24.47,1.1,7.63,5.34,34.87,5.34,34.87l-3.22,1.25c-3.79,11.24-12.34,20.34-23.44,24.52-3.23,1.22-5.97,1.7-7.25,.66-5.1,5.17-11.49,9.08-18.44,11.19-2.83,.86-5.8,1.44-8.74,1.16-1.91-.18-3.93-.81-5.07-2.36-.98-1.33-1.12-3.24-.33-4.69,.78-1.46,2.45-2.39,4.1-2.3-.66-2.15-5.03-1.52-4.96-3.95Z"/>
        <path class="cls-7" d="M431.75,159.58l1.1-1.04,9.26,3.73c1.71,.09,4.56,3.38,4.61,5.1l-.18,37.68c.01,2.62,.66,4.95-.92,7.04l-1.66,2.2c-3.79,5.01-11.6,4.6-14.6-.92-.21-.39-.36-.72-.42-1-.06-.34-.16-.57-.18-.86-.35-3.11-.73-5.28-.73-5.28,0,0,.07-5.33,.07-5.3,0,0-7.26-.83-9.22-10.15-.98-4.63-.79-11-.52-17.28,.38-8.68,6.4-13.92,13.38-13.91Z"/>
        <path class="cls-15" d="M432.98,179.88c0,.64,.56,1.15,1.22,1.16,.66,0,1.2-.51,1.19-1.15,0-.64-.56-1.15-1.22-1.16-.67,0-1.2,.51-1.19,1.15Z"/>
        <path class="cls-15" d="M420.91,179.88c0,.64,.56,1.15,1.22,1.16,.66,0,1.2-.51,1.19-1.15,0-.64-.56-1.15-1.22-1.16-.67,0-1.2,.51-1.19,1.15Z"/>
        <path class="cls-15" d="M419.75,176.47c.16,.15,1.04-.57,2.33-.63,1.29-.08,2.28,.54,2.41,.37,.07-.07-.1-.35-.53-.63-.42-.28-1.13-.54-1.94-.49-.81,.05-1.47,.38-1.85,.7-.38,.33-.5,.62-.43,.68Z"/>
        <path class="cls-15" d="M432.9,176.61c.17,.13,.97-.67,2.25-.87,1.28-.21,2.32,.3,2.44,.12,.06-.08-.13-.34-.59-.57-.45-.24-1.18-.42-1.98-.29-.8,.13-1.42,.53-1.76,.89-.35,.36-.44,.66-.35,.72Z"/>
        <path class="cls-15" d="M428.37,186.04c0-.07-.81-.17-2.12-.27-.33-.02-.65-.07-.72-.29-.09-.24,.03-.6,.17-.99,.27-.82,.55-1.67,.85-2.57,1.18-3.66,2.01-6.65,1.87-6.7-.15-.05-1.22,2.88-2.4,6.53-.28,.9-.55,1.76-.81,2.58-.11,.38-.3,.82-.11,1.31,.1,.24,.35,.41,.57,.46,.22,.05,.4,.05,.57,.05,1.32,0,2.13-.03,2.13-.1Z"/>
        <path class="cls-9" d="M428.11,200.9s6.34,.09,12.41-3.98c0,0-3,6.68-12.45,6.27l.04-2.28Z"/>
        <path class="cls-9" d="M429.08,189.13c.44-.64,1.23-1.02,2.05-.97,.57,.03,1.15,.27,1.51,.72,.36,.44,.47,1.09,.18,1.54-.33,.51-1.05,.66-1.68,.51-.63-.14-1.18-.52-1.71-.91-.15-.11-.29-.22-.39-.36-.09-.15-.12-.35-.02-.48"/>
        <path class="cls-15" d="M432.23,186.74c-.21,0-.14,1.4-1.3,2.46-1.15,1.06-2.66,.98-2.66,1.18-.02,.09,.35,.26,.98,.24,.62,0,1.52-.25,2.22-.9,.7-.65,.98-1.48,1-2.06,.02-.59-.15-.93-.25-.92Z"/>
        <path class="cls-15" d="M431.66,171.56c.18,.33,1.43-.03,2.97-.08,1.53-.08,2.81,.17,2.96-.17,.07-.16-.2-.46-.74-.72-.54-.26-1.36-.46-2.28-.43-.92,.04-1.72,.31-2.24,.62-.52,.31-.75,.62-.67,.78Z"/>
        <path class="cls-15" d="M419.94,170.9c.24,.28,1.12-.07,2.19-.14,1.07-.11,1.99,.1,2.19-.22,.08-.15-.07-.44-.48-.7-.41-.26-1.07-.45-1.81-.39-.74,.06-1.36,.36-1.72,.68-.36,.32-.47,.63-.37,.77Z"/>
        <path class="cls-15" d="M447.72,183.48s-6.64,2.07-10.39-14.31c-1.28-5.6-6.48-10.14-6.48-10.14l2.11-.63s13.09,3.69,13.31,3.85c.22,.16,3.3,6.77,3.3,6.77l-1.85,14.46Z"/>
        <path class="cls-7" d="M445.13,182.56c-.03-.7,.69-2.39,1.38-2.53,1.83-.38,5.16-.4,5.43,4.28,.36,6.4-6.14,5.44-6.16,5.26-.02-.14-.53-4.6-.65-7.01Z"/>
        <path class="cls-9" d="M447.59,187.04s.12,.07,.31,.15c.19,.07,.51,.11,.83-.03,.66-.29,1.17-1.39,1.14-2.55-.02-.58-.17-1.13-.4-1.58-.22-.46-.54-.77-.89-.81-.34-.06-.57,.16-.64,.34-.08,.18-.03,.31-.06,.32-.02,.02-.14-.1-.11-.37,.02-.13,.09-.28,.23-.42,.15-.13,.37-.21,.61-.2,.5,0,.97,.44,1.22,.93,.28,.49,.47,1.11,.49,1.76,.03,1.29-.56,2.54-1.47,2.86-.44,.14-.83,.03-1.03-.11-.21-.15-.25-.29-.23-.3Z"/>
        <path class="cls-4" d="M451.96,207.65s.03-.1,.07-.31c.04-.23,.09-.53,.16-.91,.14-.82,.33-1.99,.58-3.47l-.15-.02c-.03,.23-.07,.49-.1,.76v-.02c-.03,.09-.08,.19-.13,.29l.16,.06c.76-2.62,1.59-6.14,2.05-10.3,.24-2.08,.37-4.32,.39-6.66-.02-2.34,0-4.82-.63-7.31-.26-1.03-.65-2.01-1.16-2.9-.51-.9-1.12-1.71-1.77-2.46-1.3-1.5-2.7-2.8-3.98-4.08-2.58-2.54-4.91-4.83-6.87-6.76-1.95-1.9-3.54-3.45-4.65-4.54-.54-.52-.97-.93-1.27-1.22-.14-.13-.25-.23-.34-.31-.08-.07-.12-.1-.12-.1,0,0,.03,.04,.1,.12,.08,.09,.19,.2,.32,.33,.3,.3,.71,.73,1.24,1.26,1.1,1.1,2.66,2.67,4.58,4.61,1.95,1.94,4.26,4.25,6.83,6.8,1.28,1.29,2.67,2.59,3.96,4.07,1.28,1.48,2.38,3.23,2.87,5.26,.61,2.43,.6,4.9,.63,7.23-.01,2.34-.14,4.56-.37,6.64-.44,4.15-1.24,7.66-1.96,10.28l.16,.06c.05-.1,.09-.2,.13-.29h0s0-.02,0-.02c.03-.27,.07-.52,.09-.76l-.15-.02c-.21,1.49-.38,2.66-.5,3.49-.05,.39-.09,.69-.12,.92-.03,.21-.03,.31-.03,.32Z"/>
        <path class="cls-4" d="M456.23,176.62s-.03-.1-.11-.27c-.1-.2-.22-.45-.37-.75-.32-.65-.84-1.57-1.51-2.69-.67-1.12-1.52-2.42-2.53-3.81-1.02-1.39-2.2-2.87-3.53-4.36-1.33-1.48-2.69-2.81-3.96-3.97-1.28-1.15-2.48-2.14-3.52-2.92-1.04-.79-1.9-1.39-2.52-1.78-.28-.18-.52-.33-.71-.45-.16-.1-.25-.15-.26-.14,0,0,.07,.07,.22,.19,.18,.13,.4,.3,.68,.5,.59,.42,1.43,1.05,2.45,1.85,1.02,.8,2.2,1.8,3.47,2.96,1.26,1.17,2.59,2.5,3.92,3.97,1.32,1.48,2.5,2.95,3.53,4.32,1.02,1.38,1.89,2.66,2.57,3.76,.69,1.1,1.23,2,1.58,2.64,.17,.29,.31,.53,.42,.72,.1,.16,.16,.25,.16,.24Z"/>
      </g>
      <g>
        <path class="cls-9" d="M346.5,226.68l-6.29,4.28s.78,1.9,2.96,.94c2.18-.96,6.05-3.34,6.05-3.34l2.99,1.2,2.29-2.77-7.4-.48c-.21-.01-.42,.04-.59,.16Z"/>
        <path class="cls-7" d="M370.92,236.33l-15.7-9.38c-.07-.04-.16-.07-.24-.07h-1.65s-.04,0-.06,0l-6.34,.85c-.09,.01-.17,.05-.23,.1l-5.89,4.74c-.29,.23-.21,.69,.14,.82,.8,.27,2.43,.33,2.96,.18,2.09-.6,3.86-2.14,4.49-2.62,.11-.08,.24-.11,.37-.09l4.17,.74c.22,.04,.38,.22,.39,.44l.02,.51c0,.19-.09,.37-.27,.45-.68,.32-2.44,1.04-3.95,.76-1.99-.37-2.97-.31-2.97-.31-.63,.03-2.86,.35-3.24,.66-.71,.56-.43,1.7,.45,1.91,1.88,.44,6.66,1.09,7.68,1.41,1.41,.43,2.03,2.07,5.98,3.33,2.01,.64,5.26-.28,6.08-.59l3.59,3.6c.23,.14,.52,.06,.66-.17l3.75-6.64c.13-.22,.05-.51-.17-.64Z"/>
        <g>
          <rect class="cls-4" x="340.54" y="237.11" width="5.71" height="8.34" rx="1.76" ry="1.76" transform="translate(625.57 551.94) rotate(-167.34)"/>
          <path class="cls-15" d="M344.96,233.61c0-.05-.29-.12-.74-.04-.44,.08-1.12,.34-1.52,.99-.4,.65-.38,1.35-.28,1.8,.11,.45,.29,.69,.35,.66,.07-.03,0-.29,0-.7,0-.41,.04-.99,.35-1.49,.31-.51,.82-.76,1.2-.92,.39-.16,.65-.22,.65-.3Z"/>
          <path class="cls-15" d="M344.31,237.87c-.05,.1,.62,.49,1.5,.11,.43-.21,.65-.65,.67-.93,.03-.29-.03-.45-.09-.46-.16-.03-.22,.67-.8,.94-.59,.27-1.26,.18-1.28,.33Z"/>
          <path class="cls-15" d="M341.45,245.13s-.11-.07-.22-.26c-.11-.19-.16-.51-.05-.9,.27-1.03,.53-2.01,.81-3.07,.26-1.06,.5-2.05,.76-3.08,.08-.39,.3-.65,.51-.7,.21-.07,.33,0,.33,0,.01,0-.11-.12-.35-.07-.25,.04-.52,.34-.62,.74-.22,.79-.51,1.87-.81,3.07-.3,1.2-.58,2.29-.75,3.09-.09,.41-.02,.78,.13,.97,.14,.2,.29,.23,.29,.22Z"/>
          <path class="cls-15" d="M342.25,239.59c-.01,.05,.89,.36,2.03,.68,1.14,.32,2.07,.54,2.09,.49,.01-.05-.89-.36-2.03-.68-1.14-.32-2.07-.54-2.08-.49Z"/>
          <path class="cls-15" d="M341.66,242.11c-.02,.05,.85,.35,1.94,.67,1.09,.32,1.98,.53,1.99,.48s-.85-.35-1.94-.67c-1.08-.31-1.97-.53-1.99-.48Z"/>
          <path class="cls-8" d="M340.93,244.99s-.52-.39-.35-1.2c.17-.81,1.39-5.76,1.39-5.76l-.72-.21-1.25,5.51s-.21,1.39,.93,1.66Z"/>
        </g>
      </g>
      <g>
        <g>
          <g>
            <path class="cls-15" d="M436.18,444.12v.91s-15.43,6.37-15.56,9.31l30.76-.45-.57-10.23c-4.54,2.19-9.33,2.49-14.63,.46Z"/>
            <path class="cls-4" d="M451.38,453.89l-.14-2.46-29.43,1.33s-1.36,.62-1.19,1.58l30.76-.45Z"/>
            <path class="cls-1" d="M436.08,445.12c0,.15,.76,.21,1.51,.68,.76,.45,1.15,1.1,1.29,1.04,.14-.03-.1-.93-1.01-1.48-.91-.56-1.81-.37-1.78-.23Z"/>
            <path class="cls-1" d="M432.87,446.5c-.03,.15,.62,.39,1.14,1.02,.54,.61,.68,1.3,.83,1.29,.14,.02,.23-.86-.43-1.63-.65-.77-1.54-.82-1.54-.68Z"/>
            <path class="cls-1" d="M431.09,450.39c.14,.03,.34-.72-.06-1.54-.39-.82-1.11-1.13-1.17-1.01-.08,.12,.38,.56,.7,1.24,.33,.67,.38,1.3,.53,1.31Z"/>
          </g>
          <g>
            <path class="cls-15" d="M458.18,434.84l-13.1,3.66,3.27,7.43-3.39,18.8c-.19,1.06,.42,2.15,1.48,2.44,.81,.22,1.66-.03,2.2-.63,2.89-3.24,13.47-15.22,13.21-16.68l-.42-3.91c-.09-.81-.87-2.74-.87-2.91l-2.38-8.19Z"/>
            <path class="cls-4" d="M446.82,467.24l14.9-18.75,.08,.85c.17,.92-.21,1.32-.6,1.96-1.17,1.89-4.5,6.17-12.5,15.22-.47,.53-1.17,.79-1.88,.71h0Z"/>
            <path class="cls-1" d="M450.75,457.99c-.11,.07-.68-.95-1.96-1.4-1.27-.49-2.39-.1-2.43-.23-.02-.05,.23-.23,.7-.34,.47-.11,1.18-.11,1.89,.15,.7,.26,1.23,.72,1.51,1.11,.28,.39,.34,.69,.29,.71Z"/>
            <path class="cls-1" d="M449.52,460.83c-.09,.1-.82-.5-1.91-.7-1.09-.22-2,.05-2.05-.07-.07-.1,.89-.62,2.14-.37,1.25,.24,1.93,1.07,1.82,1.14Z"/>
            <path class="cls-1" d="M453.18,454.28c-.09,.1-1.2-.82-2.88-1.27-1.67-.48-3.12-.28-3.14-.42-.04-.1,1.47-.53,3.26-.01,1.8,.5,2.84,1.64,2.75,1.7Z"/>
          </g>
          <path class="cls-4" d="M448.2,443.38c.06,0,.12,.98,.15,2.53h0s0,.03,0,.03c-.16,1.09-.39,2.48-.66,3.99-.31,1.79-.62,3.4-.86,4.57s-.41,1.88-.47,1.87,.03-.74,.2-1.92,.43-2.8,.75-4.59c.26-1.51,.52-2.9,.74-3.98v.03c.03-1.55,.09-2.53,.15-2.53Z"/>
        </g>
        <g>
          <path class="cls-15" d="M466.83,322.39c1.03-4.98,3.64-13.99,2.61-18.14-2.39-9.61-6.57-15.17-12.3-27.37h-4.25l-40.82-.71-3.34,7.4c-3.71,9.98-6.24,15.95-7.28,23.25-1.2,8.41,.91,20.6,5.58,32.9,10.09,26.56,15.72,47.8,16.11,53.52,.39,5.72,1,11.64,6.3,29.75,3.87,13.23,6.73,21.13,6.73,21.13,4.02,2.27,8.29,2.88,12.17,.68l11.85-4.57s-3.63-31.19-7.87-39.47c-3.05-5.96-8.04-8.79-5.71-16.55,2.33-7.76,17.05-46.53,20.22-61.82Z"/>
          <path class="cls-4" d="M419.05,297.2s.06,.07,.16,.21c.11,.15,.26,.36,.45,.63,.4,.57,.98,1.39,1.73,2.46,1.51,2.17,3.7,5.32,6.47,9.31l.02,.03v.04c-.32,3.49-.44,7.53-.65,12.04-.21,4.51-.45,9.47-.7,14.8-.28,5.33-.58,11.02-.89,16.99-.35,5.97-.66,12.2-1.26,18.62-.62,5.34-1.17,10.58-.72,15.62,.12,1.26,.27,2.5,.51,3.72,.25,1.21,.47,2.43,.88,3.56,.85,2.26,1.83,4.45,2.76,6.59,3.77,8.52,7.3,16.14,10.23,22.55,2.95,6.39,5.34,11.57,6.99,15.16,.82,1.78,1.45,3.17,1.89,4.13,.21,.46,.37,.82,.48,1.08,.11,.24,.15,.37,.15,.37,0,0-.07-.12-.19-.36-.12-.25-.3-.61-.52-1.06-.46-.95-1.12-2.33-1.96-4.09-1.69-3.58-4.11-8.74-7.11-15.11-2.97-6.39-6.53-14-10.31-22.52-.94-2.14-1.92-4.31-2.78-6.62-.43-1.17-.65-2.38-.9-3.61-.24-1.23-.4-2.48-.52-3.75-.46-5.09,.09-10.37,.71-15.7,.59-6.39,.91-12.64,1.27-18.6,.32-5.97,.63-11.66,.92-16.98,.27-5.33,.52-10.29,.75-14.79,.24-4.5,.38-8.56,.72-12.04l.02,.08c-2.73-4.01-4.89-7.19-6.38-9.37-.73-1.08-1.29-1.91-1.68-2.49-.18-.28-.32-.49-.42-.65-.09-.15-.14-.22-.13-.22Z"/>
        </g>
      </g>
      <g>
        <g>
          <path class="cls-3" d="M424.49,210l3.47-6.2,7.49,8.42,11.32-9.11,1.93,2.31,4.14,73.27s-14.47,2.92-21.7,1.9c-7.23-1.02-15.74-4.32-15.74-4.32v-41.67l9.09-24.61Z"/>
          <path class="cls-15" d="M446.98,212.98s-.03,.05-.1,.13c-.09,.1-.19,.21-.32,.36-.29,.31-.72,.77-1.28,1.32-1.12,1.11-2.77,2.65-4.89,4.28l-.07,.06-.06-.07c-1.44-1.58-3-3.48-4.48-5.61-.15-.22-.3-.44-.44-.64h.18c-1.28,1.72-2.49,3.36-3.59,4.84-.14,.18-.3,.36-.5,.5-.19,.14-.45,.23-.69,.19-.25-.04-.45-.19-.6-.34-.16-.16-.28-.32-.41-.48-.51-.64-.98-1.23-1.42-1.77-.85-1.07-1.54-1.95-2.03-2.57-.23-.29-.41-.53-.54-.7-.12-.16-.18-.25-.18-.25,0,0,.08,.07,.21,.23,.14,.17,.34,.4,.57,.68,.51,.61,1.22,1.47,2.09,2.53,.44,.54,.92,1.13,1.44,1.76,.26,.31,.52,.68,.9,.75,.39,.06,.74-.28,1-.63,1.1-1.49,2.3-3.12,3.57-4.84l.09-.12,.09,.13c.14,.2,.29,.42,.44,.64,1.48,2.12,3.02,4.02,4.45,5.6h-.13c2.12-1.63,3.79-3.13,4.93-4.22,.57-.54,1.01-.98,1.31-1.28,.14-.14,.25-.25,.35-.34,.08-.08,.12-.11,.13-.11Z"/>
          <g class="cls-14">
            <path d="M429.91,217.62s1.89,2.33,2.43,1.75c.53-.59,3.34-4.93,3.67-5.11,.34-.18,3.73,5.91,5.06,5.48,1.33-.43,6.07-5.17,6.07-5.17l.09-1.87-6.91,6.29-4.91-6.25-4.13,5.37s-.87,.69-1.38-.5Z"/>
          </g>
        </g>
        <path class="cls-15" d="M433.08,281.03s-.02-.24,0-.69c.02-.49,.04-1.14,.06-1.97,.07-1.75,.17-4.21,.29-7.23,.26-6.11,.6-14.54,.92-23.86,.32-9.32,.56-17.76,.73-23.87,.09-3.02,.16-5.49,.21-7.24,.03-.82,.05-1.48,.07-1.97,.02-.45,.04-.69,.05-.69,.01,0,.02,.24,.03,.69,0,.49,0,1.14,0,1.97-.02,1.75-.04,4.21-.07,7.24-.09,6.11-.28,14.56-.6,23.88-.32,9.32-.71,17.76-1.05,23.86-.18,3.02-.32,5.48-.43,7.23-.06,.82-.11,1.48-.14,1.96-.04,.45-.06,.68-.08,.68Z"/>
        <g>
          <g class="cls-14">
            <path d="M419.93,251.46c-2.62,17.17-5.23,34.33-7.85,51.5l.61,5.58c.69,.79,2.06,.52,2.76-.25,.7-.78,.91-1.86,1.08-2.89,2.99-17.81,4.6-35.92,3.4-53.93Z"/>
          </g>
          <path class="cls-11" d="M408.88,210.19c-2.88,.9-4.18,2.77-6.08,6.2l-13.97,27.28s-19.45-9.72-19.49-9.5l-7.21,10.86,22.8,14.11c5.27,3.26,12.18,1.86,15.75-3.21l7.18-10.17,5.99-36.55-4.98,.97Z"/>
          <path class="cls-11" d="M419.68,208.08l-8.86,1.73-3.08,33.03,1.13,22.84c.04,.58,.05,.91,.05,.91l-15.3,34.24c3.42,6.1,12.67,8.96,19.19,10.52,0,0,6.6-46.8,7.03-57.12,.43-10.32,7.44-49.49,7.44-49.49l-7.6,3.35Z"/>
          <path class="cls-15" d="M395.49,296.97s.02-.05,.06-.16c.05-.11,.11-.26,.19-.45,.17-.4,.42-.98,.74-1.73,.66-1.51,1.61-3.69,2.8-6.41,2.4-5.45,5.74-13.05,9.55-21.69v.05c-.08-2.33-.17-4.75-.28-7.23-.26-5.58-.57-10.9-.77-15.73-.21-4.84-.33-9.2-.37-12.86-.05-3.66-.02-6.63,.02-8.67,.02-1.02,.04-1.81,.05-2.36,0-.26,.01-.47,.02-.61,0-.14,.01-.21,.01-.21,0,0,0,.07,0,.21,0,.15,0,.35,0,.61,0,.55,0,1.34-.01,2.36,0,2.05-.01,5.01,.05,8.67,.06,3.66,.19,8.02,.41,12.85,.24,4.84,.51,10.15,.79,15.73,.12,2.48,.2,4.9,.27,7.23v.02s0,.02,0,.02c-3.83,8.63-7.2,16.22-9.62,21.66-1.21,2.71-2.18,4.88-2.86,6.38-.34,.74-.6,1.31-.78,1.71-.09,.19-.16,.33-.21,.44-.05,.1-.07,.15-.08,.15Z"/>
          <path class="cls-15" d="M419.36,249.1s-.02-.04-.04-.11c-.02-.09-.05-.19-.08-.33-.07-.31-.17-.73-.29-1.27-.23-1.11-.56-2.71-.86-4.72-.3-2-.6-4.4-.83-7.06-.23-2.67-.42-5.6-.57-8.69-.05-1.15-.1-2.28-.15-3.39-.02-.55-.05-1.1-.07-1.63-.01-.27-.03-.54-.04-.8v-.4s0-.2,0-.2c0-.03,0-.07,0-.11,0-.02,0-.04,.02-.07,0-.01,.02-.03,.03-.04,.02-.03,.1-.05,.12-.03,.08,.04,.05,.04,.08,.06l-.15-.03c.82-.57,1.61-1.12,2.37-1.66l.02,.17c-.9-.42-1.76-.82-2.58-1.21l-.07-.03,.02-.07c.39-1.47,.85-2.77,1.26-3.92,.41-1.15,.79-2.14,1.1-2.96,.32-.81,.57-1.45,.75-1.88,.09-.2,.16-.37,.21-.49,.05-.11,.08-.17,.08-.16,0,0-.01,.06-.05,.17-.05,.13-.11,.29-.18,.5-.17,.45-.41,1.09-.7,1.9-.3,.82-.66,1.82-1.06,2.97-.39,1.15-.85,2.46-1.22,3.91l-.05-.11c.82,.38,1.68,.78,2.58,1.19l.16,.07-.14,.1c-.76,.53-1.55,1.09-2.36,1.66l-.15-.03s.07-.05,.07-.06c0-.02,0,0,0,0,.01,.01,.03,.02,.04,.02h.03s0,.01,0,.01c0,0,0,0,0,0v.02s0,.09,0,.09v.19s.01,.39,.01,.39c.01,.26,.03,.53,.04,.8,.02,.54,.05,1.08,.08,1.64,.05,1.1,.1,2.23,.15,3.39,.14,3.08,.32,6.02,.55,8.68,.22,2.66,.5,5.05,.79,7.06,.28,2,.58,3.61,.79,4.72,.11,.54,.19,.97,.25,1.28,.02,.14,.04,.25,.06,.33,.01,.08,.02,.11,.01,.12Z"/>
        </g>
        <g>
          <path class="cls-11" d="M463.92,270.89l5.64-57.02-15.87-5.82s-3.82-2.1-5.8-3.88l-.59,7.63s-2.15,36.6,1.23,55.02,2.9,17.81,5.38,29.79c1.8,8.73,2.1,16.35,4.81,17.11,2.71,.77,16.44-4.25,16.44-4.25l-11.22-38.61Z"/>
          <path class="cls-11" d="M469.56,213.87s4.81,2.36,5.53,9.08c.63,5.91,1.68,42.21,1.55,45.14-.13,2.93-2.66,11.2-7.19,11.49-7.16,.45-9.13-5.07-9.13-5.07l1.92-18.54,7.31-42.1Z"/>
          <path class="cls-15" d="M451.35,247.14s0-.04,.01-.11c.02-.08,.03-.19,.06-.32,.06-.29,.14-.7,.24-1.21,.19-1.05,.48-2.58,.75-4.47,.57-3.79,1.05-9.06,1.33-14.9,.06-1.38,.13-2.72,.19-4.02,.03-.65,.06-1.29,.09-1.92,.02-.31,.03-.62,.05-.93,0-.15,.01-.3,.02-.45v-.22s0-.07,0-.1c0-.01,0-.03,0-.03,0,0,0,0,0,.01,0,0,0,0,.01,.02,.02,.02,.04,.02,.06,.02,.03,0,.07-.03,.06-.03h0s-.15,.03-.15,.03c-.82-.58-1.61-1.14-2.36-1.67l-.13-.1,.15-.07c.92-.42,1.78-.82,2.58-1.19l-.05,.1c-.28-1.15-.4-2.22-.53-3.15-.12-.93-.24-1.73-.37-2.38-.13-.65-.26-1.15-.37-1.48-.05-.16-.09-.28-.12-.38-.03-.09-.04-.13-.04-.13,0,0,.02,.04,.06,.12,.03,.08,.09,.21,.15,.37,.12,.33,.27,.83,.41,1.48,.14,.65,.27,1.45,.41,2.38,.14,.93,.27,1.99,.56,3.12l.02,.07-.06,.03c-.8,.38-1.66,.78-2.58,1.21v-.16c.77,.52,1.56,1.08,2.39,1.65l-.15,.03,.02-.03s.05-.04,.08-.04c.02,0,.06,.01,.08,.03,.02,.02,.01,.02,.02,.03,.01,.02,.02,.03,.02,.04,.01,.04,.01,.05,.01,.08,0,.04,0,.08,0,.12v.23c0,.15-.01,.31-.02,.46-.02,.31-.03,.62-.05,.93-.03,.63-.05,1.27-.08,1.92-.06,1.3-.12,2.65-.19,4.02-.28,5.84-.79,11.13-1.39,14.92-.29,1.9-.6,3.42-.82,4.47-.12,.51-.21,.91-.28,1.2-.03,.13-.06,.23-.08,.31-.02,.07-.03,.11-.03,.1Z"/>
          <g class="cls-14">
            <path d="M428.01,276.98s-1.08,1.41,1.3,1.84,29.39-1.56,29.39-1.56l5.13,2.98-.67-2.16-4.28-4.57-30.87,3.46Z"/>
          </g>
          <path class="cls-15" d="M460.46,232.06l-34,1.74c-.8,.04-1.44,.68-1.48,1.48l-2.26,40.33c-.05,.93,.71,1.7,1.64,1.65l32.99-1.73c.78-.04,1.42-.66,1.48-1.44l3.27-40.34c.08-.94-.7-1.74-1.64-1.69Z"/>
          <path class="cls-15" d="M467.6,223.22s-.01,.13-.05,.36c-.05,.25-.12,.6-.2,1.03-.18,.91-.43,2.2-.74,3.78-.62,3.2-1.43,7.62-2.21,12.52-.77,4.91-1.37,9.37-1.76,12.6-.19,1.6-.35,2.9-.46,3.83-.05,.44-.1,.78-.13,1.04-.03,.24-.05,.36-.06,.36,0,0,0-.13,.02-.37,.02-.26,.05-.61,.09-1.05,.08-.91,.21-2.22,.39-3.84,.36-3.24,.92-7.7,1.7-12.61,.78-4.91,1.61-9.33,2.27-12.52,.33-1.59,.61-2.88,.81-3.77,.1-.43,.18-.77,.24-1.02,.06-.23,.09-.35,.1-.35Z"/>
          <g>
            <path class="cls-7" d="M461.16,258.47s1.96,.11,3.69,3.01l3.31,2.11s2.9,4.56,0,8.81c-2.9,4.26-6.4,.64-6.4,.64,0,0-3.5,1.74-4.48,1.43-.98-.3-7.61-3.87-8.59-4.69-.29-.24-2.42-2.7-2.42-2.7,0,0-2.96-.64-3.3-1.31-.34-.68-.36-2.23,1.63-2.08,0,0-1.94-.59-2.17-1.56-.23-.98,.02-2.26,3.44-1.77,3.43,.49,10.03,2.33,10.8,2.14,.18-.04,.47-.61-.08-.87-.25-.11-8.01-3.13-9.27-3.48-1.35-.37-1.54-3.37,1.25-2.66,2.79,.72,11.86,2.9,11.86,2.9l.72,.08Z"/>
            <path class="cls-9" d="M456.03,270s-.56-.15-1.44-.44c-.88-.29-2.1-.68-3.46-1.07-1.36-.4-2.6-.72-3.5-.95-.9-.23-1.46-.37-1.45-.41,0-.01,.15,0,.4,.04,.26,.04,.63,.11,1.08,.21,.91,.19,2.16,.5,3.52,.89,1.36,.4,2.58,.81,3.45,1.14,.44,.16,.79,.3,1.02,.4,.24,.1,.37,.17,.36,.18Z"/>
            <path class="cls-9" d="M457.15,266.4s-.18,0-.51-.03c-.33-.04-.8-.1-1.37-.18-1.16-.17-2.75-.45-4.5-.82-1.75-.37-3.32-.77-4.44-1.09-.56-.16-1.02-.29-1.33-.39-.31-.1-.48-.16-.48-.18,0-.01,.18,.02,.5,.1,.36,.09,.81,.2,1.35,.33,1.14,.28,2.71,.65,4.45,1.03,1.74,.37,3.33,.67,4.48,.89,.54,.1,1,.18,1.36,.25,.32,.06,.5,.1,.5,.12Z"/>
            <path class="cls-9" d="M466.58,265.62s.02,.13,0,.36c0,.23-.05,.56-.13,.96-.16,.81-.54,1.9-1.23,2.95-.7,1.05-1.55,1.83-2.23,2.3-.34,.23-.63,.4-.83,.5-.21,.1-.32,.15-.33,.13-.02-.04,.43-.27,1.07-.76,.64-.49,1.46-1.27,2.14-2.29,.68-1.03,1.07-2.08,1.26-2.87,.2-.78,.23-1.29,.27-1.28Z"/>
            <path class="cls-15" d="M467.67,273.51s.42-.47,.94-1.33c.51-.85,1.05-2.18,1.09-3.71,.05-1.53-.4-2.89-.86-3.77-.46-.89-.89-1.36-.85-1.39,0,0,.13,.1,.31,.32,.18,.22,.43,.55,.68,1,.51,.88,.99,2.27,.94,3.85-.05,1.58-.62,2.93-1.18,3.78-.28,.43-.54,.75-.74,.95-.2,.21-.32,.31-.33,.3Z"/>
          </g>
          <path class="cls-15" d="M475.33,259.04s-.55-.37-1.51-.84c-.48-.24-1.07-.47-1.74-.67-.68-.19-1.44-.34-2.25-.4-.81-.06-1.58-.02-2.28,.06-.7,.1-1.32,.24-1.82,.4-1.02,.32-1.6,.65-1.62,.61,0-.01,.13-.1,.4-.24,.13-.07,.3-.16,.49-.24,.2-.08,.42-.19,.68-.27,.51-.19,1.14-.34,1.84-.45,.71-.1,1.5-.14,2.33-.08,.83,.07,1.6,.23,2.29,.43,.68,.22,1.28,.46,1.76,.72,.24,.12,.45,.26,.63,.37,.18,.11,.33,.22,.45,.31,.24,.18,.37,.29,.36,.3Z"/>
          <g class="cls-14">
            <path d="M453.11,208.78s2.87,6.68,2.47,7.24c-.4,.56-1.91,.95-1.91,.95,0,0,2.47,1.07,2.47,2.01,0,1.89-2.65,13.06-2.65,13.06l.65-13.65-2.37-1.66,2.58-1.2-1.24-6.77Z"/>
          </g>
        </g>
      </g>
      <path class="cls-4" d="M436.52,233.28c-.13,.4,.29-3.37,.29-3.37l16.04-.7-.46,3.26-15.87,.81Z"/>
    </g>
  </g>
  <g id="Character_1" data-name="Character 1">
    <path class="cls-12" d="M343.88,250.8c-.7,1.45-1.26,2.7-1.35,2.9l-.77-5.54s-1.66-.12-1.89,1.96-.61,3.8-.61,3.8l-.86,.17-2.11,.18-5.81-3.16,1.78,4.53s3.25,1.15,3.52,1.19c.26,.05,9.32-1.41,9.32-1.41,.16,.05,1.99-6.24,1.99-6.24,0,0-2.45,.04-3.21,1.62Z"/>
    <g>
      <path class="cls-4" d="M228.39,340.52s2.45-22.48,7.71-24.97c5.26-2.5,12.56-4.14,14.55-.77,1.99,3.36,4.06,8.43,4.86,13.81s.34,13.59,.34,13.59l-6-.67s.29-22.4-1.53-25.71c-1.82-3.31-11.06-.65-12.07,3.34-1.01,3.99-3.23,21.89-3.23,21.89l-4.63-.51Z"/>
      <g>
        <g>
          <path class="cls-4" d="M207.5,372.21c.28-9.27,1.17-29.71,1.56-38.7,.11-2.45,2.13-4.38,4.59-4.36l55.13,.33c2.46,.01,4.47,1.98,4.54,4.44l1.08,38.07c.07,2.56-1.98,4.68-4.54,4.69l-57.77,.23c-2.58,.01-4.66-2.12-4.58-4.7Z"/>
          <path class="cls-15" d="M207.5,372.21c.06-.02-.11,.81,.51,2.13,.32,.64,.89,1.38,1.8,1.9,.45,.26,.99,.46,1.59,.54,.59,.08,1.25,.04,1.94,.04,5.54-.04,13.53-.1,23.39-.17,4.94-.03,10.35-.06,16.16-.09,2.9-.02,5.91-.03,9-.05,1.55,0,3.12-.02,4.71-.02,.8,0,1.6,0,2.4-.01,.82,0,1.6,.03,2.33-.27,1.47-.51,2.62-1.91,2.81-3.5,.09-.77,0-1.65,0-2.48-.02-.84-.05-1.69-.07-2.55-.1-3.42-.2-6.91-.3-10.46-.2-7.1-.41-14.46-.63-21.99-.04-.95,.02-1.88-.32-2.7-.3-.84-.89-1.55-1.62-2.06-.73-.5-1.6-.76-2.49-.75-.92,0-1.85-.01-2.76-.02-3.67-.02-7.29-.05-10.84-.07-7.11-.05-13.96-.09-20.49-.14-6.53-.05-12.74-.09-18.54-.13-.73,0-1.45-.01-2.16-.02-.7-.02-1.38,.07-1.99,.35-1.24,.52-2.18,1.63-2.51,2.88-.18,.62-.15,1.28-.19,1.95-.03,.66-.06,1.31-.08,1.96-.05,1.29-.11,2.55-.16,3.79-.43,9.86-.78,17.84-1.02,23.37-.13,2.75-.23,4.88-.3,6.35-.04,.71-.07,1.26-.09,1.65-.02,.37-.05,.56-.05,.56,0,0,0-.19,0-.56,.01-.39,.02-.94,.04-1.65,.05-1.47,.12-3.61,.21-6.36,.21-5.54,.5-13.52,.87-23.38,.05-1.23,.1-2.5,.15-3.79,.02-.65,.05-1.3,.08-1.96,.04-.65,0-1.34,.2-2.03,.35-1.36,1.36-2.56,2.71-3.14,.66-.3,1.43-.4,2.15-.39,.71,0,1.43,0,2.16,0,5.81,.03,12.01,.06,18.54,.09,6.53,.03,13.39,.07,20.49,.11,3.55,.02,7.17,.04,10.84,.06,.92,0,1.84,.01,2.76,.02,.96,0,1.95,.28,2.75,.83,.8,.56,1.45,1.35,1.79,2.28,.17,.46,.29,.95,.3,1.44l.05,1.42c.21,7.53,.42,14.89,.62,21.99,.1,3.55,.2,7.04,.29,10.46,.02,.85,.05,1.7,.07,2.55,0,.85,.1,1.66,0,2.55-.22,1.75-1.48,3.28-3.1,3.85-.8,.33-1.69,.29-2.47,.29-.81,0-1.61,0-2.4,0-1.59,0-3.16,0-4.71,.01-3.09,0-6.1,.02-9,.02-5.81,.01-11.22,.03-16.16,.04-9.87,0-17.85,.01-23.4,.02-.69-.01-1.34,.03-1.96-.06-.62-.1-1.17-.31-1.63-.58-.93-.55-1.5-1.32-1.81-1.98-.31-.67-.4-1.23-.43-1.6-.02-.37,0-.57,0-.57Z"/>
        </g>
        <path class="cls-15" d="M269.48,343.45s0,.13,.01,.41c0,.29,0,.7,0,1.23,0,1.1,0,2.7-.01,4.75-.02,4.17-.06,10.17-.1,17.59,0,.46,0,.94-.01,1.41,.02,.47-.06,1.02-.32,1.46-.26,.45-.65,.83-1.14,1.04-.48,.24-1.05,.24-1.54,.23-2.02,0-4.13,0-6.3,0-4.36,0-9.01-.02-13.91-.02-4.9-.01-10.04-.02-15.37-.04-2.67,0-5.38-.01-8.13-.02-1.38,0-2.76,0-4.16-.01h-1.05c-.34-.01-.71,.02-1.09-.07-.75-.17-1.41-.7-1.73-1.4-.14-.3-.22-.63-.24-.95-.01-.33,0-.61,.01-.92,.01-.6,.03-1.21,.04-1.81,.03-1.2,.05-2.39,.08-3.58,.05-2.37,.1-4.71,.15-7.02,.1-4.61,.2-9.06,.29-13.32v-.2s.21,.01,.21,.01c15.84,.97,29.43,1.23,39.04,1.27,4.81,.02,8.63,0,11.24-.02,1.3,0,2.31-.01,3.01-.02,.33,0,.58,0,.77,0,.17,0,.25,0,.25,0,0,0-.1,0-.27,.02-.19,0-.45,.02-.78,.03-.69,.02-1.69,.05-2.98,.09-2.61,.06-6.43,.12-11.24,.13-9.62,.03-23.22-.19-39.07-1.12l.21-.19c-.09,4.25-.18,8.71-.27,13.32-.05,2.3-.1,4.64-.15,7.02-.02,1.19-.05,2.38-.07,3.58-.01,.6-.03,1.2-.04,1.81-.01,.62-.07,1.19,.19,1.69,.27,.59,.82,1.03,1.44,1.17,.3,.08,.64,.05,1,.06h1.05c1.4,0,2.78,.01,4.16,.02,2.75,0,5.46,.02,8.13,.03,5.33,.02,10.47,.04,15.37,.06,4.9,.02,9.55,.04,13.91,.06,2.18,.01,4.28,.02,6.3,.03,.52,.01,.98,.02,1.41-.19,.42-.19,.77-.52,1-.91,.23-.4,.3-.84,.29-1.31,0-.47,.01-.94,.02-1.4,.11-7.38,.2-13.36,.26-17.51,.04-2.07,.07-3.68,.09-4.79,.01-.54,.02-.95,.03-1.25,0-.28,.02-.44,.02-.44Z"/>
        <path class="cls-15" d="M253.64,367.91s.34,0,.96-.13c.61-.14,1.54-.46,2.39-1.32,.86-.84,1.49-2.27,1.34-4.01,0-1.73,.01-3.7,.02-5.88,0-1.09,.01-2.23,.02-3.42,.07-1.18-.2-2.39-.98-3.37-.75-.98-1.96-1.65-3.27-1.74-1.34-.04-2.76-.03-4.19-.04-5.76-.05-12.08-.1-18.73-.15-1.59-.02-3.14,.85-3.93,2.19-.41,.66-.63,1.42-.66,2.18-.01,.79-.02,1.58-.03,2.36-.02,1.57-.03,3.1-.05,4.61,0,.75-.02,1.5-.02,2.24,0,.73-.05,1.48,.03,2.15,.18,1.38,1.02,2.59,2.14,3.27,.56,.34,1.18,.56,1.81,.64,.62,.07,1.3,.04,1.93,.05,2.56,.03,4.94,.06,7.12,.09,4.33,.07,7.85,.12,10.31,.16,1.2,.03,2.13,.05,2.8,.06,.3,.01,.54,.02,.73,.03,.16,0,.25,.02,.25,.02,0,0-.08,.01-.25,.02-.19,0-.43,0-.73,.01-.67,0-1.61,0-2.8,.01-2.46,0-5.98-.02-10.31-.03-2.18-.01-4.56-.03-7.12-.04-.65-.02-1.28,.02-1.97-.05-.68-.08-1.36-.31-1.96-.68-1.22-.72-2.13-2.03-2.33-3.53-.1-.76-.03-1.47-.04-2.21,0-.74,.01-1.48,.02-2.24,.01-1.51,.02-3.05,.04-4.61,0-.79,.02-1.58,.03-2.38,.04-.83,.27-1.66,.72-2.38,.86-1.46,2.55-2.41,4.29-2.39,6.64,.07,12.97,.13,18.73,.19,1.44,.02,2.83,.02,4.22,.06,1.42,.1,2.72,.84,3.52,1.89,.83,1.04,1.12,2.4,1.03,3.58-.02,1.19-.03,2.33-.04,3.42-.03,2.17-.06,4.14-.08,5.87,0,.43,0,.85-.05,1.26-.06,.41-.14,.79-.29,1.14-.27,.71-.68,1.28-1.12,1.71-.9,.87-1.86,1.17-2.48,1.29-.64,.1-.98,.05-.98,.05Z"/>
        <g class="cls-14">
          <path d="M216.12,371.21c16.33,4.96,34.12,5,50.48,.12l-50.48-.12Z"/>
        </g>
        <path class="cls-8" d="M240.63,350.01h7c.88,0,1.6,.72,1.6,1.6v.5c0,.88-.72,1.6-1.6,1.6h-7c-.88,0-1.6-.72-1.6-1.6v-.49c0-.88,.72-1.6,1.6-1.6Z" transform="translate(3.22 -2.21) rotate(.52)"/>
      </g>
      <g>
        <path class="cls-7" d="M247.08,306.2s1.86,1.65,2.51,2.79c.65,1.14,1.8,6.1,1.8,6.1,0,0-.92,.83-2.56-1.79-1.64-2.62-2.12-3.93-2.12-3.93l.38-3.18Z"/>
        <path class="cls-7" d="M238.96,296.36l2.19,3.86,6.03,6.09,2.27,9.04c.24,.95,.15,1.98-.31,2.85-.17,.31-.37,.57-.61,.67-.68,.28-2.58-.7-2.58-.7,0,0-1.39,1.73-2.88,.71,0,0-2.14,1.1-3.33,.03,0,0-1.36,1.08-2.37,.41-1.01-.67-3.91-4.89-3.91-4.89l-3.88-13.93,9.39-4.13Z"/>
      </g>
    </g>
    <path class="cls-5" d="M323.58,259.21l13.91,1.36s11.55-4.24,12.86-4.8c.33-.14,.52-.36,.61-.62,.34-.9-.52-1.82-1.47-1.68l-12.94,1.89c-.78,.09-1.56-.15-2.14-.68l-4.5-4.05s2.47-1.58,4.09-2.85c1.62-1.28,.94-2.87,.94-2.87-1.69-.09-11.2,4.39-11.2,4.39l-4,1.99,3.83,7.92Z"/>
    <g>
      <g>
        <path class="cls-15" d="M275.62,151.41c1.98,.18,3.97-1.32,4.35-3.27s-.91-4.08-2.81-4.66c1.2-1.29,1.46-3.36,.62-4.9-.84-1.54-2.73-2.44-4.46-2.13-.11-1.73-1.19-3.37-2.73-4.17-1.54-.79-3.5-.71-4.98,.2-1.95-1.6-5.05-1.59-6.99,.02-1.69-.27-3.51,.67-4.27,2.2-.76,1.54-.39,3.55,.86,4.73"/>
        <path class="cls-5" d="M276.22,151.96c-.91-8.92-8.53-15.65-17.5-15.46l-.89,.02c-9.6,.77-14.31,9.35-13.27,18.92l.86,34.27h0l16.51,17.83,6.97-11.4-.08-11.37s9.21-1.64,9.12-10.87c-.04-4.46-.87-13.64-1.72-21.94Z"/>
        <path class="cls-12" d="M268.89,184.76s-5.89,.48-12.18-3.28c0,0,2.85,6.77,12.05,5.74l.13-2.45Z"/>
        <path class="cls-15" d="M273.98,160.41c.04,.7-.52,1.3-1.24,1.36-.72,.05-1.35-.46-1.39-1.16-.04-.7,.52-1.3,1.24-1.36,.73-.05,1.35,.47,1.39,1.16Z"/>
        <path class="cls-15" d="M274.33,156.52c-.16,.18-1.17-.54-2.59-.51-1.42,.01-2.44,.77-2.6,.6-.08-.08,.08-.39,.53-.73,.44-.34,1.19-.67,2.08-.69,.88-.01,1.63,.3,2.07,.62,.44,.33,.6,.63,.52,.71Z"/>
        <path class="cls-15" d="M261.06,160.96c.04,.7-.52,1.3-1.24,1.36-.72,.05-1.35-.46-1.39-1.16-.04-.7,.52-1.3,1.24-1.36,.73-.05,1.35,.47,1.39,1.16Z"/>
        <path class="cls-15" d="M260.38,157.09c-.16,.18-1.18-.54-2.59-.51-1.42,.01-2.44,.77-2.6,.6-.08-.08,.08-.39,.53-.73,.44-.34,1.19-.67,2.08-.69,.88-.01,1.63,.3,2.07,.62,.44,.33,.6,.63,.52,.71Z"/>
        <path class="cls-15" d="M265.76,167.5c0-.08,.87-.25,2.3-.47,.36-.05,.7-.12,.76-.37,.08-.26-.08-.65-.26-1.07-.36-.87-.74-1.78-1.13-2.74-1.57-3.9-2.72-7.11-2.56-7.17,.16-.06,1.56,3.05,3.13,6.94,.38,.96,.74,1.88,1.09,2.75,.15,.41,.39,.87,.22,1.42-.09,.27-.35,.48-.58,.54-.23,.08-.43,.08-.61,.1-1.44,.11-2.33,.13-2.34,.05Z"/>
        <path class="cls-15" d="M260.71,152.25c-.18,.36-1.4,0-2.9-.02-1.5-.05-2.75,.26-2.9-.11-.06-.18,.2-.51,.73-.81,.53-.3,1.34-.54,2.24-.52,.9,.02,1.68,.3,2.18,.62,.5,.32,.73,.66,.65,.84Z"/>
        <path class="cls-15" d="M274.39,151.49c-.29,.33-1.47,.02-2.88,.03-1.41-.03-2.6,.27-2.88-.06-.12-.16,.06-.49,.57-.8,.51-.32,1.36-.58,2.33-.58,.97,0,1.81,.28,2.31,.6,.5,.32,.68,.65,.55,.81Z"/>
        <path class="cls-5" d="M246.24,164.4c-.09-1.42-1.34-2.52-2.76-2.36-1.72,.2-3.61,1.22-3.42,4.78,.34,6.31,6.6,4.67,6.6,4.49,0-.12-.26-4.27-.42-6.91Z"/>
        <path class="cls-12" d="M245.16,169.01s-.11,.08-.29,.18c-.18,.09-.49,.17-.82,.06-.68-.21-1.3-1.24-1.39-2.37-.05-.57,.04-1.13,.22-1.59,.17-.47,.45-.81,.78-.89,.33-.1,.58,.09,.66,.27,.09,.17,.06,.3,.09,.31,.02,.01,.13-.11,.07-.37-.03-.12-.11-.27-.27-.38-.16-.12-.38-.17-.62-.13-.48,.06-.9,.53-1.1,1.04-.22,.51-.34,1.14-.29,1.78,.11,1.27,.82,2.42,1.75,2.64,.45,.09,.81-.06,1-.22,.19-.17,.21-.31,.19-.32Z"/>
        <path class="cls-15" d="M270.69,138.94c-.06-.16-.14-.31-.23-.45-.7-1.05-1.93-1.66-3.18-1.72-.76-.37-1.52-.66-2.23-.88-.92-1.48-2.53-2.53-4.26-2.68-1.97-.17-3.98,.84-5.08,2.48-.26,.04-.52,.09-.77,.14-1.32-.91-3.04-1.25-4.59-.86-1.75,.44-3.25,1.77-3.89,3.45-1.54-.37-3.28,.26-4.23,1.54-.95,1.28-1.04,3.12-.24,4.49-1.12,.67-2.07,1.82-2.06,3.13,0,1.23,1.16,2.41,2.34,2.24-.16,3.03,.24,6.59,.47,9.73,.16,2.21,3,3.46,3.23,4.96,1.15,7.64,3.56,3.35,4.18-12.53,.16-.13,.31-.26,.48-.41,.32-.31,.4-.69,.68-1.03,.34-.41,.98-.3,1.51-.25,1.84,.16,3.69-1.18,4.12-2.98,.48,.69,1.58,.64,2.27,.17,.7-.47,1.14-1.23,1.68-1.88,.54-.65,1.31-1.23,2.14-1.13,.47,.06,.91,.32,1.38,.27,.83-.09,1.21-1.07,1.32-1.9,.09-.7,.16-1.48,.6-1.99,.5-.25,1.02-.44,1.59-.49,.31,.03,.63,.09,.94,.12,.14,.02,.29,.02,.45,.02,.19,.06,.38,.13,.58,.22,2.82,1.29,5.38,7.02,5.38,7.02,.12-3.67-1.94-6.68-4.55-8.81Z"/>
        <path class="cls-4" d="M241.16,144.82s.01-.03,.06-.09c.04-.06,.1-.15,.2-.25,.19-.21,.5-.49,.97-.74,.47-.24,1.11-.45,1.86-.44,.75,0,1.63,.22,2.36,.83l-.17,.06c.26-1.24,1.19-2.48,2.54-3.22,.67-.37,1.44-.64,2.25-.74,.81-.1,1.66-.05,2.5,.12,1.63,.34,3.06,1.1,4.27,1.9l-.18,.06c.55-1.45,1.65-2.5,2.78-3.05,1.15-.56,2.33-.61,3.23-.46,.92,.15,1.59,.49,2.01,.76,.21,.13,.37,.25,.46,.34,.1,.08,.15,.13,.14,.14-.01,.02-.22-.16-.65-.4-.43-.24-1.09-.55-1.99-.68-.89-.12-2.02-.06-3.12,.5-1.09,.54-2.13,1.56-2.65,2.94l-.05,.15-.13-.08c-1.2-.78-2.61-1.52-4.19-1.85-.81-.17-1.63-.22-2.41-.12-.78,.1-1.52,.35-2.16,.7-1.3,.7-2.2,1.87-2.46,3.05l-.04,.17-.13-.11c-.68-.58-1.51-.81-2.23-.82-.72-.02-1.34,.17-1.81,.38-.94,.46-1.24,1.01-1.28,.98Z"/>
        <path class="cls-4" d="M266.35,140.45s-.03,.09-.1,.25c-.06,.16-.15,.41-.22,.73-.08,.33-.15,.73-.24,1.21-.11,.47-.2,1.04-.59,1.57-.2,.26-.52,.45-.88,.49-.36,.05-.71-.01-1.07-.05-.36-.03-.74-.05-1.07,.1-.34,.15-.63,.43-.9,.73-.27,.31-.53,.65-.8,1-.27,.34-.52,.75-.92,1.03-.4,.28-.88,.44-1.37,.49-.25,.03-.51,.03-.77-.03-.26-.05-.52-.2-.69-.45l.23-.04c-.08,.37-.2,.73-.4,1.07-.2,.34-.45,.64-.75,.91-.61,.52-1.38,.86-2.19,.98-.34,.06-.68,.06-1.01,.06-.35-.02-.64-.09-.92,.02-.28,.1-.49,.28-.67,.55-.19,.26-.4,.5-.63,.73-.89,.89-2.02,1.55-3.22,1.59-1.19,0-2.23-.53-2.99-1.21-.76-.69-1.24-1.55-1.43-2.37l.11,.07c-.8,.19-1.56-.06-2.06-.45-.51-.39-.76-.92-.85-1.35-.1-.43-.06-.78-.02-1,.03-.11,.05-.2,.07-.25,.02-.05,.03-.08,.04-.08,.04,0-.2,.47,0,1.31,.11,.41,.35,.9,.84,1.26,.48,.35,1.2,.57,1.94,.39l.09-.02,.02,.09c.2,.79,.67,1.61,1.4,2.26,.73,.64,1.74,1.13,2.84,1.13,1.1-.04,2.19-.67,3.04-1.53,.22-.22,.42-.45,.6-.7,.17-.26,.45-.54,.79-.64,.17-.06,.35-.08,.53-.08l.49,.04c.32,0,.64,0,.96-.06,.77-.11,1.5-.43,2.06-.92,.28-.25,.51-.53,.7-.84,.18-.31,.29-.65,.37-1l.07-.29,.16,.25c.23,.36,.77,.41,1.21,.37,.46-.05,.9-.19,1.26-.44,.36-.24,.6-.62,.88-.97,.28-.34,.53-.69,.82-1,.29-.31,.6-.61,.98-.77,.39-.17,.81-.14,1.17-.1,.37,.04,.71,.1,1.03,.06,.32-.03,.59-.19,.78-.42,.36-.47,.47-1.03,.59-1.49,.11-.47,.19-.88,.28-1.2,.09-.33,.19-.57,.27-.73,.09-.16,.14-.23,.14-.23Z"/>
        <path class="cls-12" d="M261.39,170.08c-.53,1.63-.08,3.39,1.41,4.24,.52,.29,1.17,.36,1.74,.19,.7-.21,1.33-.58,1.61-1.3,.26-.68,.48-1.38,.39-2.11-1.44-.33-3.71-.69-5.16-1.02Z"/>
        <path class="cls-15" d="M265.94,173.63s-.1,.17-.37,.38c-.27,.2-.73,.45-1.36,.5-.62,.07-1.4-.11-2.04-.64-.65-.51-1.12-1.38-1.18-2.33-.04-.48,.02-.96,.14-1.39l.03-.11,.11,.02c1.48,.29,2.78,.55,3.71,.75,.92,.2,1.48,.33,1.47,.36,0,.03-.57-.05-1.5-.2-.93-.15-2.24-.39-3.72-.66l.15-.09c-.11,.41-.16,.86-.13,1.31,.06,.89,.48,1.68,1.08,2.17,.59,.5,1.3,.68,1.88,.64,.59-.03,1.03-.23,1.31-.4,.28-.18,.41-.31,.43-.3Z"/>
      </g>
      <g>
        <g>
          <g>
            <g>
              <path class="cls-15" d="M257.93,424.32l-.9,20.58s20.62,7.83,20.82,11.65l-39.97-.31,.09-32.13,19.96,.21Z"/>
              <path class="cls-4" d="M237.88,456.24l.14-3.24,38.27,1.51s1.77,.79,1.56,2.04l-39.97-.31Z"/>
              <path class="cls-15" d="M257.68,444.7c0,.2-.98,.28-1.95,.9-.98,.59-1.48,1.44-1.66,1.36-.18-.04,.12-1.2,1.3-1.93,1.17-.74,2.35-.5,2.31-.32Z"/>
              <path class="cls-15" d="M261.86,446.47c.04,.19-.8,.51-1.47,1.34-.69,.8-.87,1.69-1.06,1.68-.18,.03-.31-1.12,.54-2.12,.84-1.01,1.99-1.08,1.99-.9Z"/>
              <path class="cls-15" d="M264.2,451.51c-.18,.04-.44-.94,.07-2,.5-1.07,1.43-1.48,1.51-1.32,.11,.16-.49,.73-.89,1.61-.43,.87-.49,1.69-.68,1.71Z"/>
              <path class="cls-15" d="M257.36,439.99c-.08,.18-.98-.1-2.08-.03-1.11,.04-1.97,.41-2.07,.24-.11-.14,.73-.86,2.03-.92,1.3-.07,2.21,.56,2.11,.71Z"/>
            </g>
            <path class="cls-15" d="M257.87,439.76c.1,0,.11,1.91,.05,4.96l-.16-.24c2.33,.89,5.44,2.08,8.74,3.64,3.61,1.69,6.79,3.45,8.86,5.1,1.04,.81,1.8,1.59,2.19,2.23,.42,.64,.36,1.13,.3,1.11-.03,0-.06-.4-.51-.96-.43-.56-1.21-1.26-2.26-2-2.09-1.52-5.27-3.19-8.86-4.87-3.28-1.55-6.35-2.8-8.64-3.78l-.17-.07v-.17c.19-3.04,.36-4.94,.46-4.94Z"/>
          </g>
          <g>
            <path class="cls-15" d="M232.08,280.79l-3.98,23.43,9.78,55.01s-.77,27.72-2.21,43.49c-1.24,13.7,.79,37.54,.79,37.54h21.82l7.81-79.54,4.84-49.61,8.79-29.38-47.64-.95Z"/>
            <g>
              <path class="cls-15" d="M270.76,420.75l-5.71,19.79s18.2,12.46,17.5,16.22l-38.78-9.7,7.64-31.21,19.35,4.9Z"/>
              <path class="cls-4" d="M243.77,447.06l.89-3.12,36.85,10.47s1.54,1.18,1.04,2.35l-38.78-9.7Z"/>
              <path class="cls-4" d="M265.72,440.5c-.05,.19-1.02,.04-2.11,.41-1.09,.35-1.78,1.05-1.93,.93-.17-.08,.4-1.14,1.72-1.57,1.32-.44,2.4,.07,2.32,.23Z"/>
              <path class="cls-4" d="M269.37,443.2c0,.19-.9,.31-1.75,.95-.86,.62-1.24,1.44-1.43,1.39-.19-.01-.04-1.16,1.02-1.93,1.06-.78,2.19-.59,2.15-.4Z"/>
              <path class="cls-4" d="M270.46,448.65c-.18,0-.21-1.01,.54-1.93,.74-.92,1.73-1.11,1.77-.93,.07,.18-.65,.6-1.25,1.36-.62,.75-.87,1.53-1.06,1.5Z"/>
              <path class="cls-15" d="M266.52,435.85c-.12,.15-.93-.33-2.01-.52-1.08-.22-2.01-.07-2.07-.25-.08-.16,.91-.66,2.19-.41,1.28,.24,2.02,1.06,1.89,1.19Z"/>
            </g>
            <path class="cls-15" d="M288.14,282.06l1,10.15-.4,71c-.01,2.6-.42,5.18-1.19,7.66l-16.89,54.19-4.18,14.35-22.29-4.2,17.18-153.13,26.77-.02Z"/>
          </g>
        </g>
        <path class="cls-4" d="M287.47,371.14s-.02,.11-.08,.33c-.07,.23-.16,.55-.28,.97-.26,.87-.63,2.13-1.12,3.76-1,3.29-2.45,8.08-4.28,14.11-3.69,12.09-8.91,29.16-15.03,49.16l-.05,.16-.17-.03c-7.04-1.25-14.53-2.59-22.29-3.97l-.2-.04,.04-.19c1.14-5.7,2.33-11.65,3.54-17.72,3.6-17.97,6.99-34.93,9.96-49.74v.06c-3.69-21.97-6.63-39.5-8.32-49.56v.03c-1.61-2.8-2.86-4.95-3.71-6.42-.41-.72-.73-1.28-.95-1.66-.21-.37-.31-.57-.31-.57,0,0,.12,.18,.35,.55,.23,.38,.56,.93,.99,1.64,.87,1.46,2.14,3.6,3.79,6.38h0s0,.03,0,.03c1.73,10.06,4.74,27.57,8.52,49.53v.03s0,.03,0,.03c-2.95,14.82-6.33,31.77-9.92,49.75-1.21,6.07-2.4,12.02-3.54,17.72l-.16-.23c7.75,1.39,15.24,2.73,22.28,3.99l-.22,.13c6.17-19.98,11.44-37.05,15.17-49.12,1.88-6.02,3.36-10.8,4.39-14.08,.51-1.63,.91-2.88,1.18-3.74,.14-.42,.24-.73,.31-.96,.07-.22,.12-.32,.12-.32Z"/>
      </g>
      <g>
        <path class="cls-11" d="M216.77,234.92s-3.08,18.22-1.23,25.16c1.84,6.94,16.85,24.47,16.85,24.47l20.47-12.7-13.49-33.16-22.61-3.77Z"/>
        <path class="cls-11" d="M228.37,197.92s14.11,.43,14.25,13.84-2.51,31.37-2.51,31.37l-24.26-1.71s1.5-25.14,3.44-32.56c1.97-7.52,9.08-10.95,9.08-10.95Z"/>
        <path class="cls-1" d="M245.16,184.83l.07-2.52s21.04,5.88,24.12,7.84,.74,5.13,.74,5.13l-24.94-10.45Z"/>
        <path class="cls-11" d="M286.11,253.41l-7.39-54.87-7.44-4.62h0c-1.37-2.2-3.15-3.03-5.94-3.98l-20.08-6.62-1.29,5.02-17.89,10.81,6.27,59.41-5.71,49.85h10.64l3.94-11.62,1.16,11.62,48.77-1.44-5.04-53.56Z"/>
        <path class="cls-11" d="M275.63,196.52s7.34,2.82,9.67,13.02c.78,3.4,7.29,36.32,7.29,36.32l30.11,2.68,2.52,15.52-33,2.16c-9.13,1.08-17.96-1.69-20.41-14.8-.06-.32-.16-.63-.22-.94-2.44-11.55-5.71-27.69-6.15-33.21-.63-7.99,1.18-18.62,10.19-20.74Z"/>
        <path class="cls-15" d="M260.68,261.99s-.35,.07-.97,.12c-.63,.05-1.54,.1-2.66,.15-2.25,.1-5.35,.21-8.79,.27-3.43,.06-6.54,.04-8.79,.03-1.04-.01-1.93-.03-2.66-.04-.63-.02-.98-.04-.98-.08,0-.03,.35-.07,.98-.11,.63-.04,1.54-.08,2.66-.11,2.25-.07,5.36-.11,8.79-.17,3.37-.05,6.42-.1,8.79-.13,1.04,0,1.93,0,2.66,0,.63,.01,.98,.03,.98,.06Z"/>
        <path class="cls-15" d="M224.54,218.31s.03,.07,.06,.2c.04,.16,.08,.36,.13,.6,.12,.56,.27,1.33,.47,2.3,.39,2.04,.95,4.92,1.64,8.46,1.34,7.19,3.19,17.05,5.22,27.95,.13,.7,.26,1.39,.37,2.03v.03s0,.03,0,.03c-1.24,10.54-2.34,20-3.15,26.87-.42,3.38-.76,6.12-1,8.07-.12,.92-.22,1.64-.29,2.18-.07,.5-.12,.76-.13,.76-.02,0,0-.27,.04-.77,.05-.54,.12-1.27,.21-2.19,.21-1.95,.49-4.69,.85-8.08,.77-6.87,1.83-16.33,3-26.88v.07c-.12-.64-.24-1.34-.37-2.03-1.98-10.91-3.78-20.78-5.08-27.97-.62-3.55-1.13-6.44-1.49-8.49-.16-.97-.29-1.74-.38-2.31-.03-.24-.06-.44-.09-.6-.02-.14-.02-.21-.01-.21Z"/>
        <path class="cls-15" d="M271.61,194.11s-.4-.05-1.09-.24c-.78-.2-1.76-.46-2.93-.76-2.48-.64-5.91-1.44-9.73-2.23-3.82-.78-7.3-1.39-9.82-1.81-1.19-.2-2.19-.37-2.98-.5-.7-.12-1.09-.2-1.09-.24,0-.03,.4-.01,1.11,.05,.71,.07,1.74,.18,3.01,.35,2.54,.34,6.03,.9,9.86,1.68,3.83,.78,7.26,1.65,9.72,2.37,1.23,.36,2.22,.67,2.9,.91,.68,.24,1.05,.38,1.04,.41Z"/>
        <path class="cls-15" d="M279.13,199.51c0,.09-1.2-.17-3.1,.09-1.87,.25-4.48,1.17-6.51,3.27-2.04,2.08-2.98,4.66-3.31,6.53-.34,1.88-.18,3.09-.27,3.09-.03,0-.09-.29-.14-.84-.05-.54-.05-1.34,.08-2.31,.25-1.92,1.17-4.63,3.3-6.8,2.12-2.19,4.87-3.1,6.8-3.27,.98-.09,1.77-.05,2.31,.04,.54,.08,.83,.17,.82,.2Z"/>
        <path class="cls-15" d="M222.77,204.36c.13-.03,.62,1.5,1.1,3.42,.48,1.92,.77,3.5,.64,3.54-.13,.03-.62-1.5-1.1-3.42-.48-1.92-.77-3.5-.64-3.54Z"/>
      </g>
    </g>
    <path class="cls-15" d="M270.14,229.79s.02,.14,.03,.4c.02,.29,.04,.68,.06,1.17,.06,1.03,.19,2.54,.44,4.49,.49,3.89,1.47,9.47,2.46,16.42l.09,.65,.02,.17v.04s0,.02,0,.02c-.16,.04,.36-.02-.36,.1-.02-.06-.01-.05-.02-.07v-.02c-.32,.09,.45-.07,.36-.07l.06,.33c.09,.44,.18,.88,.27,1.32,.22,.88,.46,1.78,.81,2.66,.67,1.76,1.66,3.51,3.08,4.95,1.43,1.43,3.29,2.52,5.36,3.13,2.07,.63,4.34,.76,6.63,.64,9.25-.61,19.41-1.27,30.09-1.97,1.91-.12,3.8-.25,5.68-.37l-.24,.3c-.87-5.35-1.71-10.55-2.51-15.53l.22,.21c-11.37-1.03-21.64-1.97-30.1-2.73h-.15s-.03-.15-.03-.15c-1.52-7.8-2.75-14.13-3.61-18.55-.41-2.17-.73-3.87-.95-5.05-.1-.56-.18-1-.23-1.32-.05-.3-.07-.45-.06-.45s.05,.15,.12,.44c.07,.32,.17,.75,.29,1.31,.25,1.18,.6,2.87,1.06,5.04,.9,4.4,2.19,10.72,3.77,18.5l-.17-.15c8.47,.74,18.74,1.63,30.11,2.62l.19,.02,.03,.19c.81,4.98,1.66,10.17,2.53,15.52l.05,.28-.29,.02c-1.87,.12-3.77,.25-5.68,.37-10.67,.69-20.84,1.34-30.09,1.93-2.33,.11-4.65-.02-6.78-.68-2.13-.64-4.06-1.78-5.54-3.27-1.46-1.51-2.47-3.31-3.15-5.12-.35-.9-.59-1.82-.81-2.72-.09-.45-.18-.9-.27-1.34l-.06-.33c-.09-.02,.68-.18,.37-.07v.02s0,.02,0,.02c-.05,.02,.11-.02-.11,.03-.2,.05-.32,.02-.25,.03v-.02s0-.04,0-.04l-.02-.16-.09-.65c-.93-6.94-1.86-12.54-2.29-16.44-.22-1.95-.32-3.47-.35-4.51-.02-.52-.01-.91-.01-1.18,0-.26,0-.4,.02-.4Z"/>
  </g>
</svg>