<svg width="25" height="24" viewBox="0 0 25 24" fill="none" xmlns="http://www.w3.org/2000/svg">
<g clip-path="url(#clip0_229_759)">
<g clip-path="url(#clip1_229_759)">
<g clip-path="url(#clip2_229_759)">
<path d="M11.72 6.58268C11.72 6.47218 11.7639 6.36619 11.842 6.28805C11.9202 6.20991 12.0262 6.16602 12.1367 6.16602H13.8033C13.9138 6.16602 14.0198 6.20991 14.098 6.28805C14.1761 6.36619 14.22 6.47218 14.22 6.58268C14.22 6.69319 14.1761 6.79917 14.098 6.87731C14.0198 6.95545 13.9138 6.99935 13.8033 6.99935H12.1367C12.0262 6.99935 11.9202 6.95545 11.842 6.87731C11.7639 6.79917 11.72 6.69319 11.72 6.58268Z" fill="#224099"/>
<path fill-rule="evenodd" clip-rule="evenodd" d="M16.8717 9.71667C16.7205 9.83542 16.5242 9.93042 16.2876 10.0075C16.3328 10.4704 16.2808 10.9376 16.1346 11.3792C15.9885 11.8208 15.7516 12.2268 15.4392 12.5714C15.1267 12.9159 14.7456 13.1912 14.3204 13.3796C13.8951 13.568 13.4352 13.6653 12.9701 13.6653C12.505 13.6653 12.045 13.568 11.6198 13.3796C11.1945 13.1912 10.8134 12.9159 10.5009 12.5714C10.1885 12.2268 9.95159 11.8208 9.80547 11.3792C9.65935 10.9376 9.60726 10.4704 9.65254 10.0075C9.41587 9.93042 9.21962 9.83542 9.06879 9.71667C8.87296 9.5625 8.74171 9.35667 8.72629 9.10917C8.71171 8.87958 8.80254 8.68458 8.89337 8.54708C8.98304 8.41685 9.08952 8.29902 9.21004 8.19667C9.26837 8.14542 9.32587 8.1 9.37921 8.06042C9.36337 7.975 9.34587 7.87167 9.32837 7.75208C9.25456 7.22687 9.21835 6.69704 9.22004 6.16667C9.22004 6.03583 9.27587 5.93833 9.30171 5.89708C9.33421 5.845 9.37254 5.80042 9.40754 5.76458C9.47712 5.69167 9.56712 5.6175 9.66587 5.54625C9.86587 5.40125 10.1409 5.23833 10.4675 5.08583C11.1188 4.78167 12.0134 4.5 12.9701 4.5C13.9272 4.5 14.8213 4.78208 15.4726 5.08583C15.7534 5.21428 16.0218 5.36841 16.2742 5.54625C16.373 5.6175 16.463 5.69208 16.5326 5.76458C16.5676 5.80042 16.6059 5.845 16.6384 5.89708C16.6642 5.93833 16.7201 6.03583 16.7201 6.16667C16.7201 6.83417 16.6659 7.375 16.6117 7.75208C16.5942 7.87167 16.5767 7.975 16.5609 8.06042C16.6142 8.1 16.6722 8.14542 16.7305 8.19667C16.8347 8.28792 16.9538 8.40667 17.0467 8.54708C17.138 8.68458 17.2284 8.87958 17.2142 9.10958C17.1988 9.35667 17.0676 9.5625 16.8717 9.71667ZM10.0542 6.29917C10.0605 6.86083 10.1071 7.315 10.1534 7.6325C10.1642 7.7075 10.175 7.77417 10.185 7.83333H15.7551C15.7655 7.77417 15.7759 7.70708 15.7867 7.6325C15.8326 7.315 15.8797 6.86083 15.8859 6.29917C15.8535 6.27175 15.82 6.24562 15.7855 6.22083C15.6351 6.11208 15.4067 5.975 15.1201 5.84125C14.5438 5.57208 13.7717 5.33333 12.9701 5.33333C12.1684 5.33333 11.3963 5.57208 10.82 5.84125C10.5334 5.975 10.305 6.11208 10.155 6.22042C10.1204 6.24546 10.0868 6.27146 10.0542 6.29917ZM9.96504 8.66667L9.96379 8.6675C9.89188 8.71542 9.82299 8.76774 9.75754 8.82417C9.68337 8.88917 9.62421 8.9525 9.58837 9.0075C9.57984 9.01987 9.57219 9.03282 9.56546 9.04625C9.57136 9.05163 9.57747 9.05678 9.58379 9.06167C9.64629 9.11083 9.78046 9.18292 10.0421 9.25417C10.0938 9.26833 10.1492 9.28167 10.2084 9.295L10.2121 9.29583C10.4213 9.34208 10.6788 9.38333 10.9926 9.41583C11.4372 9.46208 11.9967 9.4925 12.6959 9.49917L12.9701 9.5C14.3147 9.5 15.1842 9.41625 15.7284 9.29583L15.7317 9.295C15.7913 9.28167 15.8467 9.26833 15.8984 9.25417C16.1597 9.18333 16.2942 9.11083 16.3563 9.06167C16.3626 9.05678 16.3688 9.05163 16.3747 9.04625C16.3681 9.03283 16.3605 9.01989 16.3522 9.0075C16.3037 8.9394 16.2467 8.87778 16.1826 8.82417C16.1173 8.76775 16.0485 8.71542 15.9767 8.6675L15.9751 8.66667H9.96504ZM12.8567 10.3333C13.9576 10.3333 14.8109 10.275 15.4651 10.1733C15.4866 10.513 15.4385 10.8536 15.3237 11.174C15.209 11.4945 15.03 11.7882 14.7977 12.037C14.5655 12.2859 14.2849 12.4847 13.9731 12.6212C13.6613 12.7578 13.3249 12.8293 12.9845 12.8312C12.6441 12.8332 12.3069 12.7656 11.9935 12.6326C11.6802 12.4997 11.3973 12.3041 11.1622 12.058C10.927 11.8118 10.7447 11.5202 10.6262 11.2011C10.5078 10.882 10.4558 10.542 10.4734 10.2021C11.083 10.2863 11.8642 10.3333 12.8567 10.3333ZM9.66921 18.1988C9.64749 18.3538 9.63663 18.5101 9.63671 18.6667V19.0833C9.63675 19.1749 9.60662 19.264 9.55096 19.3367C9.4953 19.4095 9.41722 19.4619 9.32879 19.4858C9.24037 19.5097 9.14654 19.5038 9.0618 19.469C8.97707 19.4342 8.90616 19.3725 8.86004 19.2933C8.57922 19.4457 8.25061 19.4843 7.94212 19.4013L7.13712 19.1854C6.81702 19.0995 6.54415 18.89 6.3785 18.6029C6.21285 18.3158 6.168 17.9747 6.25379 17.6546L6.57712 16.4471C6.66296 16.1269 6.87245 15.8539 7.15953 15.6882C7.44661 15.5225 7.78776 15.4776 8.10796 15.5633L8.91296 15.7788C9.19296 15.8538 9.42546 16.0183 9.58712 16.2333C9.97284 15.6964 10.4809 15.2592 11.0693 14.9577C11.6577 14.6563 12.3094 14.4994 12.9705 14.5C13.6312 14.4996 14.2826 14.6565 14.8706 14.9577C15.4587 15.259 15.9665 15.696 16.3522 16.2325C16.5196 16.0104 16.7567 15.8508 17.0255 15.7792L17.8305 15.5638C18.1506 15.478 18.4917 15.5228 18.7788 15.6885C19.0659 15.8541 19.2754 16.127 19.3613 16.4471L19.6851 17.655C19.7275 17.8136 19.7384 17.979 19.7169 18.1417C19.6954 18.3045 19.6421 18.4614 19.56 18.6035C19.4779 18.7457 19.3686 18.8703 19.2384 18.9702C19.1081 19.0701 18.9595 19.1434 18.8009 19.1858L17.9963 19.4013C17.6884 19.4843 17.3603 19.4462 17.0797 19.2946C17.0334 19.3736 16.9624 19.4352 16.8776 19.4698C16.7928 19.5044 16.699 19.5102 16.6107 19.4861C16.5223 19.4621 16.4443 19.4096 16.3888 19.3368C16.3332 19.264 16.3032 19.1749 16.3034 19.0833V18.6667C16.3035 18.5101 16.2926 18.3538 16.2709 18.1988L14.1026 18.78C14.0019 18.9954 13.8419 19.1777 13.6413 19.3054C13.4407 19.4331 13.2079 19.5009 12.9701 19.5009C12.7323 19.5009 12.4994 19.4331 12.2988 19.3054C12.0982 19.1777 11.9382 18.9954 11.8376 18.78L9.66921 18.1988ZM11.7701 17.8988C11.826 17.7088 11.9261 17.5348 12.0623 17.391C12.1985 17.2473 12.3668 17.1378 12.5534 17.0717V15.3592C11.969 15.4331 11.4145 15.6603 10.9463 16.0179C10.4782 16.3755 10.113 16.8506 9.88796 17.395L11.7701 17.8988ZM16.0522 17.3946C15.827 16.8503 15.4619 16.3752 14.9937 16.0177C14.5256 15.6602 13.9711 15.433 13.3867 15.3592V17.0713C13.7634 17.2046 14.0576 17.5129 14.1701 17.8992L16.0522 17.3946ZM16.9467 17.0946C16.9326 17.0417 16.9289 16.9866 16.9361 16.9323C16.9432 16.8781 16.9609 16.8258 16.9883 16.7784C17.0157 16.731 17.0521 16.6894 17.0955 16.6561C17.1389 16.6228 17.1885 16.5983 17.2413 16.5842L18.0463 16.3683C18.153 16.3398 18.2667 16.3548 18.3623 16.4101C18.4579 16.4653 18.5277 16.5563 18.5563 16.6629L18.8801 17.8704C18.8942 17.9233 18.8979 17.9784 18.8907 18.0327C18.8836 18.0869 18.8659 18.1392 18.8385 18.1866C18.8112 18.234 18.7747 18.2756 18.7313 18.3089C18.6879 18.3422 18.6383 18.3667 18.5855 18.3808L17.7805 18.5967C17.7276 18.6108 17.6724 18.6144 17.6182 18.6073C17.5639 18.6001 17.5115 18.5823 17.4641 18.5549C17.4167 18.5276 17.3752 18.4911 17.3419 18.4476C17.3086 18.4042 17.2842 18.3546 17.2701 18.3017L16.9467 17.0946ZM7.89254 16.3683C7.83965 16.3541 7.78448 16.3504 7.73017 16.3575C7.67587 16.3646 7.62349 16.3824 7.57605 16.4097C7.5286 16.4371 7.48702 16.4735 7.45367 16.517C7.42032 16.5604 7.39587 16.61 7.38171 16.6629L7.05837 17.87C7.04419 17.9229 7.04057 17.978 7.0477 18.0322C7.05483 18.0865 7.07258 18.1388 7.09994 18.1862C7.12729 18.2336 7.16372 18.2752 7.20713 18.3085C7.25054 18.3418 7.3001 18.3663 7.35296 18.3804L8.15796 18.5963C8.21081 18.6104 8.26595 18.6141 8.3202 18.6069C8.37446 18.5998 8.42679 18.582 8.47419 18.5547C8.52158 18.5273 8.56313 18.4909 8.59645 18.4475C8.62977 18.4041 8.65421 18.3545 8.66837 18.3017L8.99171 17.0942C9.00595 17.0413 9.00962 16.9861 9.00252 16.9318C8.99542 16.8775 8.97768 16.8251 8.95032 16.7777C8.92296 16.7302 8.88652 16.6886 8.84307 16.6553C8.79962 16.622 8.75003 16.5975 8.69712 16.5833L7.89254 16.3683ZM13.3867 18.25C13.3867 18.3605 13.3428 18.4665 13.2647 18.5446C13.1866 18.6228 13.0806 18.6667 12.9701 18.6667C12.8596 18.6667 12.7536 18.6228 12.6754 18.5446C12.5973 18.4665 12.5534 18.3605 12.5534 18.25C12.5534 18.1395 12.5973 18.0335 12.6754 17.9554C12.7536 17.8772 12.8596 17.8333 12.9701 17.8333C13.0806 17.8333 13.1866 17.8772 13.2647 17.9554C13.3428 18.0335 13.3867 18.1395 13.3867 18.25Z" fill="#224099"/>
<path d="M20.97 0.5H4.96997C3.03697 0.5 1.46997 2.067 1.46997 4V20C1.46997 21.933 3.03697 23.5 4.96997 23.5H20.97C22.903 23.5 24.47 21.933 24.47 20V4C24.47 2.067 22.903 0.5 20.97 0.5Z" stroke="#224099"/>
</g>
</g>
</g>
<defs>
<clipPath id="clip0_229_759">
<rect width="24" height="24" fill="white" transform="translate(0.969971)"/>
</clipPath>
<clipPath id="clip1_229_759">
<rect width="24" height="24" fill="white" transform="translate(0.969971)"/>
</clipPath>
<clipPath id="clip2_229_759">
<rect width="24" height="24" fill="white" transform="translate(0.969971)"/>
</clipPath>
</defs>
</svg>
