<svg width="25" height="24" viewBox="0 0 25 24" fill="none" xmlns="http://www.w3.org/2000/svg">
<g clip-path="url(#clip0_229_743)">
<g clip-path="url(#clip1_229_743)">
<g clip-path="url(#clip2_229_743)">
<path d="M14.0251 6.15436V6.48409V7.38362V8.70733V10.3287V12.0958V13.8884V15.5595V16.9712V17.9828C14.0251 18.1428 14.0219 18.3045 14.0251 18.4645V18.4853C14.158 18.3525 14.2924 18.218 14.4253 18.0852H13.5882H11.5778H9.15449H7.05931C6.7184 18.0852 6.37746 18.074 6.03654 18.0852H6.02214C6.15499 18.218 6.28944 18.3525 6.42229 18.4853V17.6258V15.4698V12.624V9.72211V7.37402V6.19598V6.16237V6.15596V6.13195C6.42229 6.11915 6.43028 6.04392 6.42068 6.11915C6.41108 6.19598 6.42708 6.10314 6.43028 6.08714C6.43508 6.06793 6.4463 6.04552 6.4511 6.02631C6.43349 6.11755 6.42549 6.08554 6.4463 6.04552C6.4559 6.02631 6.46871 6.01031 6.47991 5.9927C6.50232 5.95749 6.50871 5.9895 6.45589 6.02311C6.4719 6.01351 6.4847 5.9895 6.49911 5.9767C6.52952 5.94789 6.56953 5.93988 6.4815 5.9847C6.51351 5.9687 6.56313 5.94308 6.59034 5.91908C6.57114 5.92708 6.55194 5.93508 6.53433 5.94309C6.54714 5.93828 6.56154 5.93348 6.57435 5.92868C6.59515 5.92228 6.61595 5.91748 6.63677 5.91267C6.71519 5.89187 6.53593 5.91587 6.61756 5.91427C6.57595 5.91427 6.70559 5.91267 6.66237 5.91267H6.67037C6.82723 5.91107 6.98569 5.91267 7.14256 5.91267H9.55304H12.3797C12.8455 5.91267 13.3128 5.90627 13.7786 5.91267H13.8026C13.8106 5.91267 13.817 5.91267 13.825 5.91427C13.8683 5.91908 13.8538 5.91587 13.785 5.90787C13.8026 5.91587 13.8298 5.91748 13.849 5.92228C13.8683 5.92708 13.8907 5.93828 13.9099 5.94309C13.8186 5.92548 13.8506 5.91748 13.8907 5.93828C13.9035 5.94469 13.9147 5.95269 13.9275 5.96069C13.9339 5.96389 13.9387 5.96869 13.9451 5.9719C13.9787 5.9959 13.9675 5.9879 13.9147 5.94789C13.9243 5.96389 13.9483 5.9767 13.9611 5.9911C13.9899 6.02152 13.9979 6.06153 13.9531 5.9735C13.9691 6.00391 13.9915 6.03272 14.0091 6.06313C14.0491 6.13036 13.9803 5.9703 14.0027 6.04552C14.0091 6.06633 14.0155 6.08554 14.0219 6.10795C14.0347 6.15757 14.0123 6.17677 14.0219 6.08714C14.0187 6.10795 14.0251 6.13355 14.0251 6.15436C14.0283 6.36403 14.206 6.56412 14.4253 6.55452C14.6397 6.54491 14.8286 6.37845 14.8254 6.15437C14.8174 5.67097 14.4701 5.21 13.9787 5.13317C13.8842 5.11877 13.7962 5.11237 13.7018 5.11237H13.0183H10.3837H7.63709H6.832H6.67353C6.3118 5.11557 5.99647 5.29163 5.79159 5.58616C5.64274 5.80064 5.62354 6.04874 5.62354 6.29842V6.85864V8.95383V11.7901V14.7447V17.1712V18.4244V18.4821C5.62354 18.6981 5.8076 18.8822 6.02368 18.8822H6.86082H8.87118H11.2945H13.3897C13.7306 18.8822 14.0715 18.8902 14.4124 18.8822H14.4268C14.6429 18.8822 14.827 18.6982 14.827 18.4821V18.1523V17.2528V15.9291V14.3077V12.5407V10.748V9.07695V7.66524V6.65367C14.827 6.49361 14.8302 6.33196 14.827 6.17189V6.15109C14.827 5.94141 14.6429 5.74133 14.4268 5.75093C14.2076 5.76374 14.0251 5.93028 14.0251 6.15436Z" fill="#224099"/>
<path d="M14.0251 6.15436V6.48409V7.38362V8.70733V10.3287V12.0958V13.8884V15.5595V16.9712V17.9828C14.0251 18.1428 14.0219 18.3045 14.0251 18.4645V18.4853C14.158 18.3525 14.2924 18.218 14.4253 18.0852H13.5882H11.5778H9.15449H7.05931C6.7184 18.0852 6.37746 18.074 6.03654 18.0852H6.02214C6.15499 18.218 6.28944 18.3525 6.42229 18.4853V17.6258V15.4698V12.624V9.72211V7.37402V6.19598V6.16237V6.15596V6.13195C6.42229 6.11915 6.43028 6.04392 6.42068 6.11915C6.41108 6.19598 6.42708 6.10314 6.43028 6.08714C6.43508 6.06793 6.4463 6.04552 6.4511 6.02631C6.43349 6.11755 6.42549 6.08554 6.4463 6.04552C6.4559 6.02631 6.46871 6.01031 6.47991 5.9927C6.50232 5.95749 6.50871 5.9895 6.45589 6.02311C6.4719 6.01351 6.4847 5.9895 6.49911 5.9767C6.52952 5.94789 6.56953 5.93988 6.4815 5.9847C6.51351 5.9687 6.56313 5.94308 6.59034 5.91908C6.57114 5.92708 6.55194 5.93508 6.53433 5.94309C6.54714 5.93828 6.56154 5.93348 6.57435 5.92868C6.59515 5.92228 6.61596 5.91748 6.63677 5.91267C6.7152 5.89187 6.53593 5.91587 6.61756 5.91427C6.57595 5.91427 6.70558 5.91267 6.66237 5.91267H6.67037C6.82723 5.91107 6.98569 5.91267 7.14256 5.91267H9.55304H12.3797C12.8455 5.91267 13.3128 5.90627 13.7786 5.91267H13.8026C13.8106 5.91267 13.817 5.91267 13.825 5.91427C13.8683 5.91908 13.8538 5.91587 13.785 5.90787C13.8026 5.91587 13.8298 5.91748 13.849 5.92228C13.8683 5.92708 13.8907 5.93828 13.9099 5.94309C13.8186 5.92548 13.8506 5.91748 13.8907 5.93828C13.9035 5.94469 13.9147 5.95269 13.9275 5.96069C13.9339 5.96389 13.9387 5.96869 13.9451 5.9719C13.9787 5.9959 13.9675 5.9879 13.9147 5.94789C13.9243 5.96389 13.9483 5.9767 13.9611 5.9911C13.9899 6.02152 13.9979 6.06153 13.9531 5.9735C13.9691 6.00391 13.9915 6.03272 14.0091 6.06313C14.0491 6.13036 13.9803 5.9703 14.0027 6.04552C14.0091 6.06633 14.0155 6.08554 14.0219 6.10795C14.0347 6.15757 14.0123 6.17677 14.0219 6.08714C14.0187 6.10795 14.0251 6.13355 14.0251 6.15436ZM14.0251 6.15436C14.0283 6.36403 14.206 6.56412 14.4253 6.55452C14.6397 6.54491 14.8286 6.37845 14.8254 6.15437C14.8174 5.67097 14.4701 5.21 13.9787 5.13317C13.8842 5.11877 13.7962 5.11237 13.7018 5.11237H13.0183H10.3837H7.63709H6.832H6.67353C6.3118 5.11557 5.99647 5.29163 5.79159 5.58616C5.64274 5.80064 5.62354 6.04874 5.62354 6.29842V6.85864V8.95383V11.7901V14.7447V17.1712V18.4244V18.4821C5.62354 18.6981 5.8076 18.8822 6.02368 18.8822H6.86082H8.87118H11.2945H13.3897C13.7306 18.8822 14.0715 18.8902 14.4124 18.8822H14.4268C14.6429 18.8822 14.827 18.6982 14.827 18.4821V18.1523V17.2528V15.9291V14.3077V12.5407V10.748V9.07695V7.66524V6.65367C14.827 6.49361 14.8302 6.33196 14.827 6.17189V6.15109C14.827 5.94141 14.6429 5.74133 14.4268 5.75093C14.2076 5.76374 14.0251 5.93028 14.0251 6.15436Z" stroke="#224099" stroke-width="0.213413"/>
<path d="M5.01059 18.8841H6.0478H8.53991H11.5539H14.1581C14.5791 18.8841 15 18.8921 15.421 18.8841H15.4386C15.6483 18.8841 15.8483 18.7 15.8387 18.4839C15.8291 18.2678 15.6627 18.0838 15.4386 18.0838H14.4014H11.9093H8.89524H6.29106C5.8701 18.0838 5.44913 18.0758 5.0282 18.0838H5.01059C4.80092 18.0838 4.60084 18.2678 4.61044 18.4839C4.62005 18.7 4.78651 18.8841 5.01059 18.8841Z" fill="#224099" stroke="#224099" stroke-width="0.213413"/>
<path d="M14.4252 10.8939H15.2351H15.6513C15.6961 10.8939 15.7457 10.9035 15.7889 10.8987C15.7825 10.8987 15.6865 10.8779 15.7473 10.8939C15.7617 10.8971 15.7761 10.9003 15.7889 10.9035C15.8161 10.9099 15.845 10.9275 15.8706 10.9291C15.8049 10.9227 15.7969 10.8955 15.8338 10.9131C15.8498 10.9211 15.8658 10.9291 15.8802 10.9371C15.9074 10.9515 15.933 10.9755 15.9602 10.9883C15.885 10.9547 15.9042 10.9419 15.9362 10.9723C15.9458 10.9819 15.957 10.9915 15.9666 11.0011C15.9874 11.0219 16.0066 11.0524 16.0306 11.0716C16.0258 11.0668 15.9746 10.9883 16.005 11.0412C16.013 11.0524 16.021 11.0652 16.0274 11.0764C16.045 11.1068 16.0578 11.1404 16.077 11.1708C16.0194 11.0764 16.061 11.134 16.0722 11.1756C16.0786 11.1964 16.0963 11.3053 16.0866 11.2284C16.0786 11.1516 16.0866 11.27 16.0882 11.286V11.2892V11.4653V12.3729C16.0882 12.9138 16.085 13.4564 16.0882 13.9975C16.0915 14.5961 16.3972 15.1467 16.8949 15.4764C17.4167 15.8237 18.1018 15.8366 18.6556 15.5612C19.2078 15.2859 19.5535 14.7161 19.6031 14.1111C19.6143 13.9686 19.6079 13.823 19.6079 13.6805V11.723V9.98474C19.6079 9.5862 19.6127 9.18604 19.6079 8.7875C19.6047 8.42897 19.4719 8.10883 19.2446 7.83676C19.1742 7.75193 19.1022 7.66709 19.0301 7.58066C18.8317 7.34377 18.6316 7.10687 18.4331 6.86839C18.0938 6.46344 17.7529 6.05849 17.4135 5.65354C17.3703 5.60232 17.3287 5.5527 17.2855 5.50148C17.151 5.33982 16.8565 5.35102 16.7189 5.50148C16.562 5.67275 16.5748 5.89522 16.7189 6.06808C17.071 6.48743 17.4231 6.9084 17.7753 7.32775C18.0746 7.68309 18.3739 8.03841 18.6716 8.39536C18.6748 8.40016 18.678 8.40336 18.6812 8.40816C18.7388 8.47699 18.646 8.35214 18.6748 8.40176C18.6844 8.41777 18.694 8.43057 18.7036 8.44658C18.7276 8.48499 18.7469 8.52341 18.7661 8.56342C18.7901 8.61144 18.7404 8.48979 18.7565 8.54101C18.7613 8.55862 18.7677 8.57462 18.7741 8.59063C18.7853 8.62905 18.7949 8.66746 18.8029 8.70587C18.8157 8.7683 18.7917 8.68026 18.7997 8.67866C18.7997 8.67866 18.8045 8.73629 18.8045 8.73148C18.8061 8.75069 18.8061 8.7699 18.8061 8.78751C18.8077 8.90115 18.8061 9.01319 18.8061 9.12684V9.86311V11.1756V13.2756V13.911V14.0407C18.8045 14.0711 18.8029 14.0999 18.7997 14.1287C18.7965 14.1591 18.7805 14.1895 18.8061 14.0871C18.8029 14.1015 18.8013 14.1159 18.7997 14.1303C18.7885 14.1943 18.7725 14.2568 18.7517 14.3176C18.742 14.3448 18.7292 14.3704 18.7228 14.3976C18.7565 14.2776 18.7324 14.3752 18.7148 14.4072C18.686 14.4632 18.654 14.5177 18.6172 14.5689C18.6092 14.5801 18.6012 14.5913 18.5932 14.6025C18.5644 14.6457 18.6604 14.5225 18.6108 14.5785C18.5916 14.5993 18.574 14.6201 18.5548 14.6409C18.5132 14.6857 18.4571 14.7225 18.4171 14.7689C18.4203 14.7657 18.5004 14.7081 18.4491 14.7449C18.4379 14.7529 18.4267 14.7609 18.4155 14.7689C18.3931 14.7849 18.3691 14.7994 18.3451 14.8138C18.3179 14.8298 18.2907 14.8458 18.2619 14.8602L18.2235 14.8794C18.145 14.9178 18.2795 14.8586 18.2411 14.873C18.1834 14.8922 18.1274 14.913 18.0682 14.929C18.0394 14.9354 18.0122 14.9418 17.9834 14.9466C17.969 14.9498 17.9546 14.9514 17.9402 14.953C18.0634 14.929 17.9898 14.9466 17.9594 14.9482C17.9081 14.953 17.8553 14.953 17.8025 14.9514C17.7721 14.9498 17.7433 14.9482 17.7145 14.945C17.6344 14.9402 17.7977 14.9594 17.7449 14.9498C17.7273 14.9466 17.7097 14.9434 17.6921 14.9402C17.6328 14.929 17.5736 14.913 17.516 14.8922C17.476 14.8794 17.4008 14.8298 17.5032 14.8906C17.476 14.8746 17.4456 14.8634 17.4184 14.849C17.3655 14.8218 17.3143 14.7898 17.2663 14.7561C17.2551 14.7481 17.2439 14.7385 17.2327 14.7321C17.3207 14.7881 17.2855 14.7737 17.2647 14.7561C17.2391 14.7337 17.2119 14.7113 17.1879 14.6857C17.1687 14.6665 17.1479 14.6457 17.1303 14.6265C17.1175 14.6121 17.0502 14.5273 17.095 14.5865C17.1399 14.6473 17.079 14.5625 17.071 14.5513C17.0518 14.5225 17.0326 14.492 17.015 14.4616C17.0006 14.4376 16.9878 14.412 16.975 14.3864C16.967 14.3704 16.9622 14.3528 16.9526 14.3384C16.9542 14.3416 16.9894 14.4344 16.9686 14.3752C16.9478 14.3144 16.927 14.2536 16.9126 14.1911C16.9062 14.1623 16.9014 14.1351 16.8966 14.1063C16.8838 14.0423 16.9014 14.1431 16.9014 14.1479C16.9014 14.1335 16.8982 14.1191 16.8966 14.1047C16.8934 14.0663 16.8918 14.0295 16.8918 13.9911V13.9366V13.6533V12.661V11.6494C16.8918 11.4221 16.911 11.1772 16.847 10.9563C16.7589 10.649 16.538 10.3641 16.2483 10.2216C16.0515 10.1256 15.8498 10.0872 15.6337 10.0872H14.6749H14.4268C14.2172 10.0872 14.0171 10.2713 14.0267 10.4873C14.0347 10.7098 14.2012 10.8939 14.4252 10.8939Z" fill="#224099" stroke="#224099" stroke-width="0.213413"/>
<path d="M18.8078 8.78746V9.6982L19.208 9.29804H18.9135H18.7534H18.7198C18.7022 9.29804 18.6238 9.29004 18.6958 9.29804C18.7694 9.30605 18.6718 9.28844 18.6542 9.28364C18.6446 9.28044 18.6334 9.27404 18.6238 9.27244C18.6254 9.27244 18.7006 9.31245 18.6702 9.29164C18.6542 9.28044 18.6334 9.27083 18.6157 9.26123C18.6077 9.25643 18.5981 9.24522 18.5901 9.24362C18.5917 9.24362 18.6526 9.30125 18.6302 9.27404C18.6125 9.25323 18.5901 9.23562 18.5709 9.21641C18.5645 9.21001 18.5581 9.19881 18.5501 9.1924C18.5517 9.194 18.5965 9.26443 18.5821 9.23082C18.5741 9.21321 18.5597 9.19401 18.5501 9.1764C18.5453 9.16839 18.5421 9.15559 18.5357 9.14759C18.5373 9.14919 18.5629 9.23082 18.5565 9.194C18.5517 9.16839 18.5421 9.13798 18.5325 9.11077C18.5197 9.07236 18.5389 9.16519 18.5389 9.16359C18.5389 9.15239 18.5373 9.14118 18.5357 9.12998C18.5357 9.11877 18.5341 9.10757 18.5341 9.09637V9.08516V9.02434V7.60142V7.12762C18.3068 7.22206 18.0779 7.31649 17.8507 7.41093C18.1244 7.73744 18.3997 8.06396 18.6733 8.3905C18.6765 8.3953 18.6813 8.40011 18.6846 8.40491C18.7422 8.47374 18.6749 8.3937 18.6862 8.40651C18.6493 8.36489 18.6862 8.40971 18.6942 8.42091C18.7134 8.45133 18.731 8.48174 18.7486 8.51215C18.7566 8.52816 18.7646 8.54416 18.771 8.56017C18.795 8.60658 18.747 8.48814 18.7614 8.53776C18.771 8.57137 18.7838 8.60498 18.7918 8.6386C18.795 8.6514 18.7982 8.6642 18.8014 8.67701C18.803 8.68501 18.8174 8.77145 18.8078 8.70262C18.7998 8.6434 18.8062 8.68981 18.8062 8.70262C18.8062 8.73463 18.8078 8.76185 18.8078 8.78746C18.811 8.99714 18.9903 9.1972 19.208 9.1876C19.4224 9.178 19.6113 9.01154 19.6081 8.78745C19.6033 8.43691 19.4785 8.12321 19.2576 7.85269C19.2159 7.80147 19.1727 7.75185 19.1295 7.70063C18.9422 7.47815 18.755 7.25567 18.5693 7.03159C18.5181 6.97077 18.4669 6.90835 18.4156 6.84752C18.3132 6.72588 18.1131 6.70827 17.9787 6.76429C17.833 6.82511 17.7322 6.96917 17.7322 7.12923V8.3745V9.02753C17.7322 9.12356 17.7386 9.218 17.7562 9.31404C17.8074 9.58134 17.9947 9.82623 18.23 9.96069C18.5277 10.132 18.8782 10.0951 19.2079 10.0951C19.424 10.0951 19.6081 9.91107 19.6081 9.69499V8.78425C19.6081 8.57457 19.424 8.3745 19.2079 8.3841C18.9919 8.3985 18.8078 8.56338 18.8078 8.78746Z" fill="#224099"/>
<path d="M18.8078 8.78746V9.6982L19.208 9.29804H18.9135H18.7534H18.7198C18.7022 9.29804 18.6238 9.29004 18.6958 9.29804C18.7694 9.30605 18.6718 9.28844 18.6542 9.28364C18.6446 9.28044 18.6334 9.27404 18.6238 9.27244C18.6254 9.27244 18.7006 9.31245 18.6702 9.29164C18.6542 9.28044 18.6334 9.27083 18.6157 9.26123C18.6077 9.25643 18.5981 9.24522 18.5901 9.24362C18.5917 9.24362 18.6526 9.30125 18.6302 9.27404C18.6125 9.25323 18.5901 9.23562 18.5709 9.21641C18.5645 9.21001 18.5581 9.19881 18.5501 9.1924C18.5517 9.194 18.5965 9.26443 18.5821 9.23082C18.5741 9.21321 18.5597 9.19401 18.5501 9.1764C18.5453 9.16839 18.5421 9.15559 18.5357 9.14759C18.5373 9.14919 18.5629 9.23082 18.5565 9.194C18.5517 9.16839 18.5421 9.13798 18.5325 9.11077C18.5197 9.07236 18.5389 9.16519 18.5389 9.16359C18.5389 9.15239 18.5373 9.14118 18.5357 9.12998C18.5357 9.11877 18.5341 9.10757 18.5341 9.09637V9.08516V9.02434V7.60142V7.12762C18.3068 7.22206 18.0779 7.31649 17.8507 7.41093C18.1244 7.73744 18.3997 8.06396 18.6733 8.3905C18.6765 8.3953 18.6813 8.40011 18.6846 8.40491C18.7422 8.47374 18.6749 8.3937 18.6862 8.40651C18.6493 8.36489 18.6862 8.40971 18.6942 8.42091C18.7134 8.45133 18.731 8.48174 18.7486 8.51215C18.7566 8.52816 18.7646 8.54416 18.771 8.56017C18.795 8.60658 18.747 8.48814 18.7614 8.53776C18.771 8.57137 18.7838 8.60498 18.7918 8.6386C18.795 8.6514 18.7982 8.6642 18.8014 8.67701C18.803 8.68501 18.8174 8.77145 18.8078 8.70262C18.7998 8.6434 18.8062 8.68981 18.8062 8.70262C18.8062 8.73463 18.8078 8.76185 18.8078 8.78746ZM18.8078 8.78746C18.811 8.99714 18.9903 9.1972 19.208 9.1876C19.4224 9.178 19.6113 9.01154 19.6081 8.78745C19.6033 8.43691 19.4785 8.12321 19.2576 7.85269C19.2159 7.80147 19.1727 7.75185 19.1295 7.70063C18.9422 7.47815 18.755 7.25567 18.5693 7.03159C18.5181 6.97077 18.4669 6.90835 18.4156 6.84752C18.3132 6.72588 18.1131 6.70827 17.9787 6.76429C17.833 6.82511 17.7322 6.96917 17.7322 7.12923V8.3745V9.02753C17.7322 9.12356 17.7386 9.218 17.7562 9.31404C17.8074 9.58134 17.9947 9.82623 18.23 9.96069C18.5277 10.132 18.8782 10.0951 19.2079 10.0951C19.424 10.0951 19.6081 9.91107 19.6081 9.69499V8.78425C19.6081 8.57457 19.424 8.3745 19.2079 8.3841C18.9919 8.3985 18.8078 8.56338 18.8078 8.78746Z" stroke="#224099" stroke-width="0.213413"/>
<path d="M11.8916 12.7378C11.8916 12.7858 11.89 12.8354 11.8868 12.8834C11.8852 12.9058 11.8836 12.9283 11.8804 12.9491C11.8788 12.9603 11.8788 12.9715 11.8772 12.9827C11.8692 13.0531 11.89 12.9026 11.8804 12.9523C11.8644 13.0451 11.8452 13.1363 11.818 13.226C11.8052 13.2708 11.7892 13.314 11.7732 13.3572C11.7652 13.3764 11.7556 13.3972 11.7492 13.4164C11.7508 13.4132 11.7924 13.322 11.7652 13.3796C11.7588 13.3924 11.754 13.4052 11.7476 13.418C11.7092 13.5013 11.6643 13.5797 11.6147 13.6565C11.5907 13.6949 11.5619 13.7301 11.5363 13.7686C11.5123 13.8038 11.5715 13.7253 11.5667 13.7285C11.5571 13.7382 11.5491 13.751 11.5411 13.7606C11.5251 13.7798 11.5107 13.7974 11.4931 13.8166C11.4307 13.887 11.365 13.9542 11.293 14.0151C11.277 14.0295 11.261 14.0423 11.245 14.0551C11.237 14.0615 11.229 14.0679 11.221 14.0743C11.189 14.1015 11.2658 14.0407 11.261 14.0439C11.2194 14.0679 11.181 14.1015 11.141 14.1271C11.0609 14.1783 10.9777 14.2247 10.8929 14.2647C10.8785 14.2712 10.808 14.3016 10.8737 14.2744C10.9425 14.2455 10.856 14.2808 10.8432 14.2856C10.8 14.3016 10.7568 14.316 10.712 14.3304C10.6176 14.3592 10.5231 14.372 10.4271 14.3944C10.4207 14.396 10.5231 14.3832 10.4799 14.388C10.4687 14.3896 10.4575 14.3912 10.4479 14.3912C10.4223 14.3944 10.3967 14.396 10.3711 14.3976C10.323 14.4008 10.275 14.4024 10.2254 14.4024C10.1774 14.4024 10.1278 14.4008 10.0798 14.3976C10.0542 14.396 10.0286 14.3928 10.0029 14.3912C9.99175 14.3896 9.98055 14.388 9.97094 14.388C9.91972 14.3832 10.0622 14.4024 10.0126 14.3928C9.91652 14.3752 9.82209 14.356 9.72765 14.3272C9.68603 14.3144 9.64602 14.3016 9.60601 14.2856C9.5916 14.2808 9.50677 14.2455 9.57559 14.2743C9.64122 14.3016 9.56119 14.2679 9.54678 14.2599C9.46035 14.2199 9.37872 14.1735 9.29869 14.1207C9.26027 14.0967 9.22506 14.0647 9.18665 14.0423C9.18185 14.0391 9.25867 14.0999 9.22666 14.0727C9.21866 14.0663 9.21066 14.0599 9.20265 14.0535C9.18345 14.0375 9.16584 14.0231 9.14663 14.0055C9.07621 13.943 9.00898 13.8774 8.94816 13.8054C8.93375 13.7894 8.92095 13.7734 8.90814 13.7574C8.90014 13.7462 8.89054 13.735 8.88253 13.7253C8.87933 13.7221 8.93696 13.799 8.91295 13.7654C8.88574 13.7253 8.85532 13.6853 8.82971 13.6453C8.7801 13.5685 8.73688 13.4885 8.69846 13.4052C8.68406 13.3748 8.66325 13.298 8.70007 13.4132C8.69366 13.3924 8.68406 13.3732 8.67606 13.354C8.65845 13.3076 8.64245 13.2596 8.62804 13.2116C8.60083 13.1203 8.58802 13.0291 8.56722 12.9363C8.56882 12.9395 8.58002 13.0435 8.57202 12.9779C8.57042 12.9667 8.56882 12.9555 8.56882 12.9443C8.56722 12.9219 8.56402 12.8994 8.56242 12.8786C8.55921 12.8274 8.55761 12.7746 8.55761 12.7234C8.55761 12.6289 8.56562 12.5361 8.57522 12.4433C8.58322 12.3728 8.56081 12.5377 8.57202 12.4689C8.57522 12.4481 8.57842 12.4289 8.58162 12.4081C8.58963 12.3616 8.59923 12.3152 8.61043 12.2688C8.63124 12.1792 8.65685 12.0927 8.68726 12.0063C8.70007 11.9679 8.71447 11.9295 8.72888 11.8927C8.73688 11.8703 8.74808 11.8494 8.75449 11.827C8.75609 11.8206 8.71607 11.9151 8.73368 11.8767C8.73848 11.8639 8.74488 11.8527 8.74969 11.8398C8.82171 11.6782 8.90494 11.5229 8.99938 11.3741C9.04579 11.2988 9.09541 11.2268 9.14663 11.1548C9.17064 11.1212 9.19625 11.0876 9.22026 11.054C9.22666 11.046 9.23146 11.0395 9.23786 11.0315C9.26347 10.9979 9.19945 11.0812 9.20425 11.0748C9.21866 11.054 9.23627 11.0347 9.25067 11.0155C9.35151 10.8891 9.45715 10.7691 9.56919 10.6522C9.75326 10.4601 9.94854 10.2777 10.1534 10.1096C10.1918 10.0776 10.2318 10.0472 10.2702 10.0152C10.3391 9.96075 10.1918 10.0744 10.243 10.036C10.259 10.0248 10.275 10.012 10.291 10.0008C10.331 9.97196 10.3711 9.94315 10.4111 9.91434C10.4159 9.91114 10.4207 9.90793 10.4271 9.90313H10.0238C10.043 9.91754 10.0622 9.93034 10.0814 9.94475C10.0894 9.95115 10.0974 9.95755 10.1054 9.96235C10.155 10.0008 10.003 9.88232 10.0638 9.93034C10.0942 9.95435 10.1246 9.97836 10.155 10.0024C10.3231 10.1384 10.4831 10.2825 10.6384 10.4329C10.8465 10.6362 11.0417 10.8507 11.221 11.0796C11.2674 11.1388 11.1602 10.9995 11.2066 11.0604C11.2178 11.0764 11.2306 11.0924 11.2418 11.1084C11.2658 11.1404 11.2882 11.1724 11.3122 11.2044C11.3586 11.27 11.4035 11.3357 11.4451 11.4045C11.5315 11.5405 11.6099 11.683 11.6788 11.8286C11.6948 11.8623 11.7524 12.0159 11.7044 11.8815C11.7204 11.9263 11.7396 11.9695 11.7556 12.0127C11.7844 12.0943 11.8116 12.1792 11.8324 12.2624C11.8436 12.3072 11.8548 12.3536 11.8644 12.4001C11.8724 12.4385 11.89 12.6033 11.8756 12.4529C11.882 12.5505 11.8916 12.6434 11.8916 12.7378C11.8932 12.9475 12.0757 13.1475 12.2918 13.1379C12.5079 13.1283 12.6936 12.9619 12.692 12.7378C12.6888 12.0031 12.3718 11.3053 11.9429 10.721C11.602 10.2569 11.2034 9.83911 10.76 9.47258C10.6512 9.38295 10.5407 9.29492 10.4271 9.21329C10.3183 9.13646 10.1326 9.13966 10.0238 9.21329C9.69566 9.43257 9.39154 9.69826 9.11305 9.97677C8.56884 10.521 8.09508 11.1756 7.87739 11.9231C7.74934 12.3617 7.72373 12.8258 7.81656 13.2724C7.9094 13.7142 8.13989 14.1287 8.452 14.4536C9.09224 15.1211 10.1086 15.3804 10.9873 15.0859C11.8468 14.7994 12.5287 14.0407 12.6583 13.1332C12.6776 13.0019 12.692 12.8723 12.692 12.7394C12.6936 12.5297 12.5079 12.3297 12.2918 12.3393C12.0741 12.3473 11.8932 12.5137 11.8916 12.7378Z" fill="#224099"/>
<path d="M11.8916 12.7378C11.8916 12.7858 11.89 12.8354 11.8868 12.8834C11.8852 12.9058 11.8836 12.9283 11.8804 12.9491C11.8788 12.9603 11.8788 12.9715 11.8772 12.9827C11.8692 13.0531 11.89 12.9026 11.8804 12.9523C11.8644 13.0451 11.8452 13.1363 11.818 13.226C11.8052 13.2708 11.7892 13.314 11.7732 13.3572C11.7652 13.3764 11.7556 13.3972 11.7492 13.4164C11.7508 13.4132 11.7924 13.322 11.7652 13.3796C11.7588 13.3924 11.754 13.4052 11.7476 13.418C11.7092 13.5013 11.6643 13.5797 11.6147 13.6565C11.5907 13.6949 11.5619 13.7301 11.5363 13.7686C11.5123 13.8038 11.5715 13.7253 11.5667 13.7285C11.5571 13.7382 11.5491 13.751 11.5411 13.7606C11.5251 13.7798 11.5107 13.7974 11.4931 13.8166C11.4307 13.887 11.365 13.9542 11.293 14.0151C11.277 14.0295 11.261 14.0423 11.245 14.0551C11.237 14.0615 11.229 14.0679 11.221 14.0743C11.189 14.1015 11.2658 14.0407 11.261 14.0439C11.2194 14.0679 11.181 14.1015 11.141 14.1271C11.0609 14.1783 10.9777 14.2247 10.8929 14.2647C10.8785 14.2712 10.808 14.3016 10.8737 14.2744C10.9425 14.2455 10.856 14.2808 10.8432 14.2856C10.8 14.3016 10.7568 14.316 10.712 14.3304C10.6176 14.3592 10.5231 14.372 10.4271 14.3944C10.4207 14.396 10.5231 14.3832 10.4799 14.388C10.4687 14.3896 10.4575 14.3912 10.4479 14.3912C10.4223 14.3944 10.3967 14.396 10.3711 14.3976C10.323 14.4008 10.275 14.4024 10.2254 14.4024C10.1774 14.4024 10.1278 14.4008 10.0798 14.3976C10.0542 14.396 10.0286 14.3928 10.0029 14.3912C9.99175 14.3896 9.98055 14.388 9.97094 14.388C9.91972 14.3832 10.0622 14.4024 10.0126 14.3928C9.91652 14.3752 9.82209 14.356 9.72765 14.3272C9.68603 14.3144 9.64602 14.3016 9.60601 14.2856C9.5916 14.2808 9.50677 14.2455 9.57559 14.2743C9.64122 14.3016 9.56119 14.2679 9.54678 14.2599C9.46035 14.2199 9.37872 14.1735 9.29869 14.1207C9.26027 14.0967 9.22506 14.0647 9.18665 14.0423C9.18185 14.0391 9.25867 14.0999 9.22666 14.0727C9.21866 14.0663 9.21066 14.0599 9.20265 14.0535C9.18345 14.0375 9.16584 14.0231 9.14663 14.0055C9.07621 13.943 9.00898 13.8774 8.94816 13.8054C8.93375 13.7894 8.92095 13.7734 8.90814 13.7574C8.90014 13.7462 8.89054 13.735 8.88253 13.7253C8.87933 13.7221 8.93696 13.799 8.91295 13.7654C8.88574 13.7253 8.85532 13.6853 8.82971 13.6453C8.7801 13.5685 8.73688 13.4885 8.69846 13.4052C8.68406 13.3748 8.66325 13.298 8.70007 13.4132C8.69366 13.3924 8.68406 13.3732 8.67606 13.354C8.65845 13.3076 8.64245 13.2596 8.62804 13.2116C8.60083 13.1203 8.58802 13.0291 8.56722 12.9363C8.56882 12.9395 8.58002 13.0435 8.57202 12.9779C8.57042 12.9667 8.56882 12.9555 8.56882 12.9443C8.56722 12.9219 8.56402 12.8994 8.56242 12.8786C8.55921 12.8274 8.55761 12.7746 8.55761 12.7234C8.55761 12.6289 8.56562 12.5361 8.57522 12.4433C8.58322 12.3728 8.56081 12.5377 8.57202 12.4689C8.57522 12.4481 8.57842 12.4289 8.58162 12.4081C8.58963 12.3616 8.59923 12.3152 8.61043 12.2688C8.63124 12.1792 8.65685 12.0927 8.68726 12.0063C8.70007 11.9679 8.71447 11.9295 8.72888 11.8927C8.73688 11.8703 8.74808 11.8494 8.75449 11.827C8.75609 11.8206 8.71607 11.9151 8.73368 11.8767C8.73848 11.8639 8.74488 11.8527 8.74969 11.8398C8.82171 11.6782 8.90494 11.5229 8.99938 11.3741C9.04579 11.2988 9.09541 11.2268 9.14663 11.1548C9.17064 11.1212 9.19625 11.0876 9.22026 11.054C9.22666 11.046 9.23146 11.0395 9.23786 11.0315C9.26347 10.9979 9.19945 11.0812 9.20425 11.0748C9.21866 11.054 9.23627 11.0347 9.25067 11.0155C9.35151 10.8891 9.45715 10.7691 9.56919 10.6522C9.75326 10.4601 9.94854 10.2777 10.1534 10.1096C10.1918 10.0776 10.2318 10.0472 10.2702 10.0152C10.3391 9.96075 10.1918 10.0744 10.243 10.036C10.259 10.0248 10.275 10.012 10.291 10.0008C10.331 9.97196 10.3711 9.94315 10.4111 9.91434C10.4159 9.91114 10.4207 9.90793 10.4271 9.90313H10.0238C10.043 9.91754 10.0622 9.93034 10.0814 9.94475C10.0894 9.95115 10.0974 9.95755 10.1054 9.96235C10.155 10.0008 10.003 9.88232 10.0638 9.93034C10.0942 9.95435 10.1246 9.97836 10.155 10.0024C10.3231 10.1384 10.4831 10.2825 10.6384 10.4329C10.8465 10.6362 11.0417 10.8507 11.221 11.0796C11.2674 11.1388 11.1602 10.9995 11.2066 11.0604C11.2178 11.0764 11.2306 11.0924 11.2418 11.1084C11.2658 11.1404 11.2882 11.1724 11.3122 11.2044C11.3586 11.27 11.4035 11.3357 11.4451 11.4045C11.5315 11.5405 11.6099 11.683 11.6788 11.8286C11.6948 11.8623 11.7524 12.0159 11.7044 11.8815C11.7204 11.9263 11.7396 11.9695 11.7556 12.0127C11.7844 12.0943 11.8116 12.1792 11.8324 12.2624C11.8436 12.3072 11.8548 12.3536 11.8644 12.4001C11.8724 12.4385 11.89 12.6033 11.8756 12.4529C11.882 12.5505 11.8916 12.6434 11.8916 12.7378ZM11.8916 12.7378C11.8932 12.9475 12.0757 13.1475 12.2918 13.1379C12.5079 13.1283 12.6936 12.9619 12.692 12.7378C12.6888 12.0031 12.3718 11.3053 11.9429 10.721C11.602 10.2569 11.2034 9.83911 10.76 9.47258C10.6512 9.38295 10.5407 9.29492 10.4271 9.21329C10.3183 9.13646 10.1326 9.13966 10.0238 9.21329C9.69566 9.43257 9.39154 9.69826 9.11305 9.97677C8.56884 10.521 8.09508 11.1756 7.87739 11.9231C7.74934 12.3617 7.72373 12.8258 7.81656 13.2724C7.9094 13.7142 8.13989 14.1287 8.452 14.4536C9.09224 15.1211 10.1086 15.3804 10.9873 15.0859C11.8468 14.7994 12.5287 14.0407 12.6583 13.1332C12.6776 13.0019 12.692 12.8723 12.692 12.7394C12.6936 12.5297 12.5079 12.3297 12.2918 12.3393C12.0741 12.3473 11.8932 12.5137 11.8916 12.7378Z" stroke="#224099" stroke-width="0.213413"/>
<path d="M20.1101 0.5H4.11011C2.17711 0.5 0.610107 2.067 0.610107 4V20C0.610107 21.933 2.17711 23.5 4.11011 23.5H20.1101C22.0431 23.5 23.6101 21.933 23.6101 20V4C23.6101 2.067 22.0431 0.5 20.1101 0.5Z" stroke="#224099"/>
</g>
</g>
</g>
<defs>
<clipPath id="clip0_229_743">
<rect width="24" height="24" fill="white" transform="translate(0.110107)"/>
</clipPath>
<clipPath id="clip1_229_743">
<rect width="24" height="24" fill="white" transform="translate(0.110107)"/>
</clipPath>
<clipPath id="clip2_229_743">
<rect width="24" height="24" fill="white" transform="translate(0.110107)"/>
</clipPath>
</defs>
</svg>
