<svg width="25" height="24" viewBox="0 0 25 24" fill="none" xmlns="http://www.w3.org/2000/svg">
<g clip-path="url(#clip0_229_753)">
<g clip-path="url(#clip1_229_753)">
<g clip-path="url(#clip2_229_753)">
<path d="M12.6717 4.50014C12.6344 4.50087 12.5973 4.50629 12.5614 4.51638L6.95312 6.11569C6.76209 6.16911 6.63014 6.34365 6.63086 6.54219V12.1505C6.63086 14.2799 8.14105 16.084 9.5845 17.3703C11.028 18.6565 12.4666 19.4451 12.4666 19.4451C12.5994 19.5183 12.7604 19.5183 12.8932 19.4451C12.8932 19.4451 14.3354 18.6566 15.7788 17.3703C17.2223 16.084 18.729 14.28 18.729 12.1505L18.7289 6.54219C18.7301 6.34463 18.5999 6.17045 18.4102 6.11569L12.8019 4.51651C12.7597 4.50457 12.7157 4.49903 12.6717 4.50014ZM12.682 5.39968L17.8467 6.87476V12.1506C17.8467 13.8494 16.5493 15.4977 15.1894 16.7096C13.9363 17.8262 12.8716 18.4128 12.6821 18.5199C12.4943 18.4138 11.4255 17.827 10.1713 16.7096C8.81145 15.4978 7.51323 13.8494 7.51323 12.1506V6.87476L12.682 5.39968ZM12.6812 7.28147C10.6338 7.28147 8.96228 8.95291 8.96228 11.0004C8.96228 13.0477 10.6337 14.7165 12.6812 14.7165C14.7285 14.7165 16.3972 13.0476 16.3972 11.0004C16.3972 8.95303 14.7284 7.28147 12.6812 7.28147ZM12.6812 8.16378C14.2517 8.16378 15.5151 9.42976 15.5151 11.0003C15.5151 12.5708 14.2517 13.8342 12.6812 13.8342C11.1107 13.8342 9.84559 12.5708 9.84559 11.0003C9.84559 9.42976 11.1107 8.16378 12.6812 8.16378ZM14.0951 9.69489C13.9811 9.69489 13.8714 9.73896 13.7892 9.81811L12.2616 11.2544L11.574 10.597C11.4924 10.5046 11.3757 10.4505 11.2524 10.4481C11.129 10.4456 11.0102 10.495 10.9249 10.584C10.8396 10.6731 10.7954 10.7938 10.8032 10.9169C10.811 11.0401 10.8699 11.1544 10.9657 11.232L11.9557 12.1824C12.1248 12.3439 12.3906 12.3454 12.5614 12.1858L14.395 10.46C14.5284 10.3367 14.5726 10.1443 14.5062 9.97513C14.44 9.80601 14.2768 9.69477 14.0951 9.69489Z" fill="#224099"/>
<path d="M20.6799 0.5H4.67993C2.74694 0.5 1.17993 2.067 1.17993 4V20C1.17993 21.933 2.74694 23.5 4.67993 23.5H20.6799C22.6129 23.5 24.1799 21.933 24.1799 20V4C24.1799 2.067 22.6129 0.5 20.6799 0.5Z" stroke="#224099"/>
</g>
</g>
</g>
<defs>
<clipPath id="clip0_229_753">
<rect width="24" height="24" fill="white" transform="translate(0.679932)"/>
</clipPath>
<clipPath id="clip1_229_753">
<rect width="24" height="24" fill="white" transform="translate(0.679932)"/>
</clipPath>
<clipPath id="clip2_229_753">
<rect width="24" height="24" fill="white" transform="translate(0.679932)"/>
</clipPath>
</defs>
</svg>
