<svg width="25" height="24" viewBox="0 0 25 24" fill="none" xmlns="http://www.w3.org/2000/svg">
<g clip-path="url(#clip0_229_726)">
<g clip-path="url(#clip1_229_726)">
<path d="M6.79176 17.245C6.85442 17.6961 7.10509 17.9969 7.36826 18.3228C7.75676 18.799 8.23303 19.1875 8.79699 19.4758C8.83459 19.5008 8.87219 19.5008 8.90978 19.5008H8.92232H15.7149C15.74 19.5008 15.7651 19.4883 15.7776 19.4758C16.3416 19.175 16.8178 18.7865 17.2063 18.3228C17.4695 18.0094 17.7076 17.6961 17.7828 17.245C17.8831 16.5807 17.6074 15.5781 16.8554 15.3776C16.7802 14.6757 16.7301 14.187 16.7175 13.9112C16.705 13.7608 16.6925 13.5979 16.6674 13.4475C16.6423 13.2971 16.6173 13.1342 16.5922 12.9838C16.5797 12.9086 16.5671 12.8459 16.5546 12.7958V12.7707C16.4168 12.1692 16.3917 11.1916 16.4794 9.87574C16.517 9.34937 16.3416 8.823 16.0157 8.47208C15.765 8.2089 15.4517 8.05849 15.1133 8.05849H13.7724V7.54464H14.1107C14.3363 7.54464 14.5494 7.44437 14.6747 7.29398C14.7875 7.15612 14.8251 6.9932 14.7875 6.83026L14.3489 4.98797C14.2862 4.69973 13.998 4.49921 13.6721 4.49921H10.9525C10.6266 4.49921 10.3384 4.69973 10.2757 4.98797L9.87466 6.83026C9.83706 6.99318 9.87466 7.15611 9.98745 7.29398C10.1128 7.45691 10.3259 7.54464 10.5515 7.54464H10.8898V8.05849H9.64908C9.33575 8.07102 9.04752 8.22142 8.80941 8.45954C8.48356 8.81045 8.3081 9.31176 8.34568 9.83813C8.40835 10.941 8.34568 11.8308 8.13263 12.4951L8.1201 12.5327C8.09503 12.6329 8.05743 12.7457 8.01983 12.8836C7.90704 13.3097 7.84438 13.6355 7.83184 13.6982C7.73158 14.2622 7.79425 14.964 7.83184 15.34H7.79425C6.97961 15.528 6.67895 16.5682 6.79176 17.245ZM7.74424 18.0095C7.48106 17.6961 7.31813 17.4831 7.28052 17.1823C7.20532 16.6935 7.40585 15.9541 7.90715 15.8538C8.25807 15.7786 8.67166 16.0168 8.90977 16.4178V18.987C8.45859 18.7238 8.07011 18.398 7.74424 18.0095ZM15.2138 19.0121H9.41116V16.5557C9.4237 16.5431 9.43623 16.5181 9.43623 16.493H15.2013V19.0121H15.2138ZM10.1379 12.1066H14.4744V16.0042H10.1379V12.1066ZM17.2817 17.1698C17.2316 17.4706 17.0687 17.6837 16.818 17.997C16.5172 18.373 16.1412 18.6863 15.7151 18.9369V16.4805C15.9031 16.1045 16.2415 15.8539 16.5548 15.8414C16.5799 15.8414 16.5924 15.8539 16.6175 15.8539H16.6425H16.6551H16.6676C17.1438 15.9291 17.3569 16.706 17.2817 17.1698ZM15.0885 8.57256C15.3392 8.57256 15.5146 8.71042 15.6149 8.82321C15.853 9.07387 15.9658 9.44985 15.9407 9.85089C15.853 11.242 15.8781 12.2446 16.0285 12.8963V12.9213C16.041 12.9589 16.0535 13.0216 16.0661 13.0968C16.0911 13.2346 16.1162 13.385 16.1413 13.5229C16.1663 13.6608 16.1789 13.8111 16.1789 13.949C16.1914 14.2122 16.2415 14.701 16.3167 15.3652C15.9784 15.4404 15.64 15.666 15.4018 16.0044H14.9632V8.57242L15.0885 8.57256ZM10.3762 6.99344C10.3637 6.96838 10.3637 6.95584 10.3637 6.95584L10.7647 5.11355C10.7773 5.07595 10.8399 5.01329 10.9527 5.01329H13.6849C13.7976 5.01329 13.8603 5.06342 13.8728 5.11355L14.2739 6.95584C14.2739 6.95584 14.2739 6.98091 14.2614 6.99344C14.2363 7.03104 14.1736 7.0561 14.0859 7.0561H10.5392C10.4515 7.0561 10.4013 7.01851 10.3762 6.99344ZM11.3788 7.55743H13.2337V8.07128H11.3788V7.55743ZM14.4869 8.57259V11.6056H10.1381V8.57259H14.4869ZM8.33344 13.7862C8.34597 13.7235 8.3961 13.4227 8.5089 13.0217C8.54649 12.8838 8.58409 12.7836 8.59662 12.7083L8.60916 12.6707C8.82221 11.9439 8.90994 10.9914 8.83475 9.83836C8.80968 9.44986 8.93501 9.07385 9.17311 8.8232C9.27338 8.72294 9.4363 8.59761 9.64936 8.57254V15.9919H9.24831C9.01019 15.666 8.69687 15.453 8.34596 15.3653C8.30836 15.0519 8.24571 14.3377 8.33344 13.7862Z" fill="#224099" stroke="#224099" stroke-width="0.208878"/>
<path d="M20.2859 0.5H4.28589C2.35289 0.5 0.785889 2.067 0.785889 4V20C0.785889 21.933 2.35289 23.5 4.28589 23.5H20.2859C22.2189 23.5 23.7859 21.933 23.7859 20V4C23.7859 2.067 22.2189 0.5 20.2859 0.5Z" stroke="#224099"/>
</g>
</g>
<defs>
<clipPath id="clip0_229_726">
<rect width="24" height="24" fill="white" transform="translate(0.285889)"/>
</clipPath>
<clipPath id="clip1_229_726">
<rect width="24" height="24" fill="white" transform="translate(0.285889)"/>
</clipPath>
</defs>
</svg>
