<svg width="25" height="24" viewBox="0 0 25 24" fill="none" xmlns="http://www.w3.org/2000/svg">
<g clip-path="url(#clip0_229_731)">
<g clip-path="url(#clip1_229_731)">
<g clip-path="url(#clip2_229_731)">
<path d="M15.5457 8.54591H14.1712V7.08206H14.7895V6.17441H15.141V4.5H9.19336V6.17441H9.54492V7.08206H10.1768V8.54591H8.78875C8.35231 8.54591 7.9978 8.90053 7.9978 9.33686V17.6211C7.9978 18.0575 8.35241 18.412 8.78875 18.412H8.96907C8.97816 19.0136 9.46913 19.5 10.0723 19.5C10.6754 19.5 11.1679 19.0136 11.1755 18.412H13.156C13.1651 19.0136 13.6561 19.5 14.2592 19.5C14.8624 19.5 15.3548 19.0136 15.3624 18.412H15.5428C15.9792 18.412 16.3337 18.0574 16.3337 17.6211V9.33686C16.3367 8.90053 15.9822 8.54591 15.5457 8.54591ZM10.074 18.8956C9.80727 18.8956 9.589 18.6849 9.57696 18.4213H10.5726C10.5588 18.6849 10.3407 18.8956 10.074 18.8956ZM10.2876 17.8076V9.15185H10.8377V10.1277H11.4437V9.15185H11.8651V10.1277H12.4711V9.15185H12.8923V10.1277H13.4984L13.4985 9.15185H14.0486V17.8073L10.2876 17.8076ZM14.1836 6.47595H13.5396V6.17438H14.1836V6.47595ZM9.7997 5.10608H14.5365V5.56819L14.1834 5.5683H9.80113V5.10607L9.7997 5.10608ZM10.1527 6.47595V6.17438H10.7968V6.47595H10.1527ZM11.4029 7.08203V6.17438H12.9333V7.08203H13.5652V8.54589H10.7849V7.08203H11.4029ZM8.60546 17.6211V9.33689C8.60546 9.23531 8.68875 9.15202 8.79033 9.15202H9.68139V17.8075H8.79033C8.68727 17.8076 8.60546 17.7242 8.60546 17.6211ZM14.2622 18.8955C13.9956 18.8955 13.7773 18.6849 13.7652 18.4213H14.7608C14.7472 18.6849 14.5289 18.8955 14.2622 18.8955ZM15.7307 17.6211C15.7307 17.7227 15.6474 17.806 15.5458 17.806H14.6547V9.15185H15.5458C15.6474 9.15185 15.7307 9.23515 15.7307 9.33672V17.6211Z" fill="#224099" stroke="#224099" stroke-width="0.208333"/>
<path d="M20.1658 0.5H4.16577C2.23277 0.5 0.665771 2.067 0.665771 4V20C0.665771 21.933 2.23277 23.5 4.16577 23.5H20.1658C22.0988 23.5 23.6658 21.933 23.6658 20V4C23.6658 2.067 22.0988 0.5 20.1658 0.5Z" stroke="#224099"/>
</g>
</g>
</g>
<defs>
<clipPath id="clip0_229_731">
<rect width="24" height="24" fill="white" transform="translate(0.165771)"/>
</clipPath>
<clipPath id="clip1_229_731">
<rect width="24" height="24" fill="white" transform="translate(0.165771)"/>
</clipPath>
<clipPath id="clip2_229_731">
<rect width="24" height="24" fill="white" transform="translate(0.165771)"/>
</clipPath>
</defs>
</svg>
