<svg width="25" height="24" viewBox="0 0 25 24" fill="none" xmlns="http://www.w3.org/2000/svg">
<g clip-path="url(#clip0_229_738)">
<g clip-path="url(#clip1_229_738)">
<path d="M6.50947 4.98394C7.44492 4.98394 8.20302 5.74204 8.20302 6.67749C8.20302 7.53237 7.57398 8.24197 6.7514 8.35495V11.7581H12.074V8.35495C11.2514 8.24208 10.6224 7.53237 10.6224 6.67749C10.6224 5.74204 11.3805 4.98394 12.3159 4.98394C13.2513 4.98394 14.0094 5.74204 14.0094 6.67749C14.0094 7.53237 13.3804 8.24197 12.5578 8.35495V11.7581H16.4288C17.2353 11.7581 17.8804 11.113 17.8804 10.3065V8.35489C17.0578 8.24203 16.4288 7.53231 16.4288 6.67744C16.4288 5.74199 17.1869 4.98389 18.1224 4.98389C19.0578 4.98389 19.8159 5.74199 19.8159 6.67744C19.8159 7.53231 19.1869 8.24191 18.3643 8.35489V10.3065C18.3643 11.371 17.4933 12.242 16.4288 12.242H12.5578V15.6451C13.3804 15.758 14.0094 16.4677 14.0094 17.3225C14.0094 18.258 13.2513 19.0161 12.3159 19.0161C11.3805 19.0161 10.6224 18.258 10.6224 17.3225C10.6224 16.4677 11.2514 15.7581 12.074 15.6451V12.242H6.7514V15.6451C7.57398 15.758 8.20302 16.4677 8.20302 17.3225C8.20302 18.258 7.44492 19.0161 6.50947 19.0161C5.57402 19.0161 4.81592 18.258 4.81592 17.3225C4.81592 16.4677 5.44495 15.7581 6.26753 15.6451V8.35495C5.44495 8.24208 4.81592 7.53237 4.81592 6.67749C4.81592 5.74204 5.57402 4.98394 6.50947 4.98394ZM18.1224 5.46781C17.461 5.46781 16.9127 6.01616 16.9127 6.67749C16.9127 7.33882 17.461 7.88717 18.1224 7.88717C18.7837 7.88717 19.332 7.33882 19.332 6.67749C19.332 6.01616 18.7837 5.46781 18.1224 5.46781ZM12.3159 16.113C11.6546 16.113 11.1062 16.6613 11.1062 17.3227C11.1062 17.984 11.6546 18.5323 12.3159 18.5323C12.9772 18.5323 13.5256 17.984 13.5256 17.3227C13.5256 16.6613 12.9772 16.113 12.3159 16.113ZM12.3159 5.46781C11.6546 5.46781 11.1062 6.01616 11.1062 6.67749C11.1062 7.33882 11.6546 7.88717 12.3159 7.88717C12.9772 7.88717 13.5256 7.33882 13.5256 6.67749C13.5256 6.01616 12.9772 5.46781 12.3159 5.46781ZM6.50947 16.113C5.84814 16.113 5.29979 16.6613 5.29979 17.3227C5.29979 17.984 5.84814 18.5323 6.50947 18.5323C7.1708 18.5323 7.71915 17.984 7.71915 17.3227C7.71915 16.6613 7.1708 16.113 6.50947 16.113ZM6.50947 5.46781C5.84814 5.46781 5.29979 6.01616 5.29979 6.67749C5.29979 7.33882 5.84814 7.88717 6.50947 7.88717C7.1708 7.88717 7.71915 7.33882 7.71915 6.67749C7.71915 6.01616 7.1708 5.46781 6.50947 5.46781Z" fill="#224099" stroke="#224099" stroke-width="0.416667"/>
<path d="M20.3159 0.5H4.31592C2.38292 0.5 0.815918 2.067 0.815918 4V20C0.815918 21.933 2.38292 23.5 4.31592 23.5H20.3159C22.2489 23.5 23.8159 21.933 23.8159 20V4C23.8159 2.067 22.2489 0.5 20.3159 0.5Z" stroke="#224099"/>
</g>
</g>
<defs>
<clipPath id="clip0_229_738">
<rect width="24" height="24" fill="white" transform="translate(0.315918)"/>
</clipPath>
<clipPath id="clip1_229_738">
<rect width="24" height="24" fill="white" transform="translate(0.315918)"/>
</clipPath>
</defs>
</svg>
